<?xml version="1.0" encoding="UTF-8" standalone="no"?>
<!DOCTYPE svg PUBLIC "-//W3C//DTD SVG 1.1//EN"
 "http://www.w3.org/Graphics/SVG/1.1/DTD/svg11.dtd">
<!-- Generated by graphviz version 14.1.2 (20260124.0452)
 -->
<!-- Title: gi_pipeline Pages: 1 -->
<svg width="1012pt" height="1115pt"
 viewBox="0.00 0.00 1012.00 1115.00" xmlns="http://www.w3.org/2000/svg" xmlns:xlink="http://www.w3.org/1999/xlink">
<g id="graph0" class="graph" transform="scale(1 1) rotate(0) translate(4 1111.25)">
<title>gi_pipeline</title>
<polygon fill="white" stroke="none" points="-4,4 -4,-1111.25 1008.12,-1111.25 1008.12,4 -4,4"/>
<text xml:space="preserve" text-anchor="middle" x="502.06" y="-1089.95" font-family="Helvetica,sans-Serif" font-size="14.00">GIL Extraction Pipeline: build_artifact()</text>
<g id="clust1" class="cluster">
<title>cluster_inputs</title>
<polygon fill="none" stroke="#999999" stroke-dasharray="5,2" points="8,-953.75 8,-1076.25 838,-1076.25 838,-953.75 8,-953.75"/>
<text xml:space="preserve" text-anchor="middle" x="423" y="-1058.95" font-family="Helvetica,sans-Serif" font-size="14.00">Inputs</text>
</g>
<g id="clust2" class="cluster">
<title>cluster_evidence</title>
<polygon fill="#fff5f5" stroke="#f8d7da" points="333,-344.75 333,-726.75 687,-726.75 687,-344.75 333,-344.75"/>
<text xml:space="preserve" text-anchor="middle" x="510" y="-709.45" font-family="Helvetica,sans-Serif" font-size="14.00">Evidence Stack (grounding path)</text>
</g>
<!-- episode_id -->
<g id="node1" class="node">
<title>episode_id</title>
<path fill="#fff3cd" stroke="black" d="M166.13,-1034C166.13,-1034 61.07,-1034 61.07,-1034 55.07,-1034 46.2,-1028.73 43.34,-1023.46 43.34,-1023.46 21.61,-983.54 21.61,-983.54 18.74,-978.27 21.87,-973 27.87,-973 27.87,-973 132.93,-973 132.93,-973 138.93,-973 147.8,-978.27 150.66,-983.54 150.66,-983.54 172.39,-1023.46 172.39,-1023.46 175.26,-1028.73 172.13,-1034 166.13,-1034"/>
<text xml:space="preserve" text-anchor="middle" x="97" y="-1005.25" font-family="Helvetica,sans-Serif" font-size="10.00">episode_id</text>
<text xml:space="preserve" text-anchor="middle" x="97" y="-994" font-family="Helvetica,sans-Serif" font-size="10.00">transcript_text</text>
</g>
<!-- resolve_insights -->
<g id="node5" class="node">
<title>resolve_insights</title>
<path fill="#d4edda" stroke="black" d="M352.38,-924.75C352.38,-924.75 155.62,-924.75 155.62,-924.75 149.62,-924.75 143.62,-918.75 143.62,-912.75 143.62,-912.75 143.62,-872.5 143.62,-872.5 143.62,-866.5 149.62,-860.5 155.62,-860.5 155.62,-860.5 352.38,-860.5 352.38,-860.5 358.38,-860.5 364.38,-866.5 364.38,-872.5 364.38,-872.5 364.38,-912.75 364.38,-912.75 364.38,-918.75 358.38,-924.75 352.38,-924.75"/>
<text xml:space="preserve" text-anchor="middle" x="254" y="-911.25" font-family="Helvetica,sans-Serif" font-size="10.00">_resolve_insight_texts()</text>
<text xml:space="preserve" text-anchor="middle" x="254" y="-900" font-family="Helvetica,sans-Serif" font-size="10.00">─────────────────────</text>
<text xml:space="preserve" text-anchor="middle" x="254" y="-888.75" font-family="Helvetica,sans-Serif" font-size="10.00">1. Use insight_texts if provided</text>
<text xml:space="preserve" text-anchor="middle" x="254" y="-877.5" font-family="Helvetica,sans-Serif" font-size="10.00">2. Call provider.generate_insights()</text>
<text xml:space="preserve" text-anchor="middle" x="254" y="-866.25" font-family="Helvetica,sans-Serif" font-size="10.00">3. Fallback: stub insight</text>
</g>
<!-- episode_id&#45;&gt;resolve_insights -->
<g id="edge1" class="edge">
<title>episode_id&#45;&gt;resolve_insights</title>
<path fill="none" stroke="black" d="M139.9,-972.75C158.16,-960.09 179.68,-945.17 199.07,-931.71"/>
<polygon fill="black" stroke="black" points="200.94,-934.68 207.16,-926.11 196.95,-928.93 200.94,-934.68"/>
</g>
<!-- cfg -->
<g id="node2" class="node">
<title>cfg</title>
<path fill="#fff3cd" stroke="black" d="M300.13,-1021.5C300.13,-1021.5 231.66,-1021.5 231.66,-1021.5 225.66,-1021.5 216.35,-1016.49 213.05,-1011.49 213.05,-1011.49 202.49,-995.51 202.49,-995.51 199.18,-990.51 201.87,-985.5 207.87,-985.5 207.87,-985.5 276.34,-985.5 276.34,-985.5 282.34,-985.5 291.65,-990.51 294.95,-995.51 294.95,-995.51 305.51,-1011.49 305.51,-1011.49 308.82,-1016.49 306.13,-1021.5 300.13,-1021.5"/>
<text xml:space="preserve" text-anchor="middle" x="254" y="-999.62" font-family="Helvetica,sans-Serif" font-size="10.00">cfg (Config)</text>
</g>
<!-- cfg&#45;&gt;resolve_insights -->
<g id="edge2" class="edge">
<title>cfg&#45;&gt;resolve_insights</title>
<path fill="none" stroke="black" d="M254,-985.01C254,-971.92 254,-953.43 254,-936.51"/>
<polygon fill="black" stroke="black" points="257.5,-936.64 254,-926.64 250.5,-936.64 257.5,-936.64"/>
</g>
<!-- providers -->
<g id="node3" class="node">
<title>providers</title>
<path fill="#fff3cd" stroke="black" d="M583.45,-1045.25C583.45,-1045.25 396.75,-1045.25 396.75,-1045.25 390.75,-1045.25 381.49,-1040.22 378.22,-1035.18 378.22,-1035.18 337.09,-971.82 337.09,-971.82 333.82,-966.78 336.55,-961.75 342.55,-961.75 342.55,-961.75 529.25,-961.75 529.25,-961.75 535.25,-961.75 544.51,-966.78 547.78,-971.82 547.78,-971.82 588.91,-1035.18 588.91,-1035.18 592.18,-1040.22 589.45,-1045.25 583.45,-1045.25"/>
<text xml:space="preserve" text-anchor="middle" x="463" y="-1010.88" font-family="Helvetica,sans-Serif" font-size="10.00">insight_provider</text>
<text xml:space="preserve" text-anchor="middle" x="463" y="-999.62" font-family="Helvetica,sans-Serif" font-size="10.00">quote_extraction_provider</text>
<text xml:space="preserve" text-anchor="middle" x="463" y="-988.38" font-family="Helvetica,sans-Serif" font-size="10.00">entailment_provider</text>
</g>
<!-- providers&#45;&gt;resolve_insights -->
<g id="edge3" class="edge">
<title>providers&#45;&gt;resolve_insights</title>
<path fill="none" stroke="black" d="M383.99,-961.34C364.49,-951.18 343.73,-940.37 324.65,-930.43"/>
<polygon fill="black" stroke="black" points="326.38,-927.38 315.89,-925.87 323.14,-933.59 326.38,-927.38"/>
</g>
<!-- segments -->
<g id="node4" class="node">
<title>segments</title>
<path fill="#fff3cd" stroke="black" d="M818.34,-1034C818.34,-1034 669.99,-1034 669.99,-1034 663.99,-1034 654.47,-1029.15 650.94,-1024.29 650.94,-1024.29 620.71,-982.71 620.71,-982.71 617.19,-977.85 619.66,-973 625.66,-973 625.66,-973 774.01,-973 774.01,-973 780.01,-973 789.53,-977.85 793.06,-982.71 793.06,-982.71 823.29,-1024.29 823.29,-1024.29 826.81,-1029.15 824.34,-1034 818.34,-1034"/>
<text xml:space="preserve" text-anchor="middle" x="722" y="-1005.25" font-family="Helvetica,sans-Serif" font-size="10.00">transcript_segments</text>
<text xml:space="preserve" text-anchor="middle" x="722" y="-994" font-family="Helvetica,sans-Serif" font-size="10.00">(optional)</text>
</g>
<!-- timestamp_map -->
<g id="node13" class="node">
<title>timestamp_map</title>
<path fill="#d4edda" stroke="black" d="M733.75,-924.75C733.75,-924.75 566.25,-924.75 566.25,-924.75 560.25,-924.75 554.25,-918.75 554.25,-912.75 554.25,-912.75 554.25,-872.5 554.25,-872.5 554.25,-866.5 560.25,-860.5 566.25,-860.5 566.25,-860.5 733.75,-860.5 733.75,-860.5 739.75,-860.5 745.75,-866.5 745.75,-872.5 745.75,-872.5 745.75,-912.75 745.75,-912.75 745.75,-918.75 739.75,-924.75 733.75,-924.75"/>
<text xml:space="preserve" text-anchor="middle" x="650" y="-911.25" font-family="Helvetica,sans-Serif" font-size="10.00">_char_range_to_ms()</text>
<text xml:space="preserve" text-anchor="middle" x="650" y="-900" font-family="Helvetica,sans-Serif" font-size="10.00">──────────────────</text>
<text xml:space="preserve" text-anchor="middle" x="650" y="-888.75" font-family="Helvetica,sans-Serif" font-size="10.00">Map quote char spans</text>
<text xml:space="preserve" text-anchor="middle" x="650" y="-877.5" font-family="Helvetica,sans-Serif" font-size="10.00">to segment timestamps</text>
<text xml:space="preserve" text-anchor="middle" x="650" y="-866.25" font-family="Helvetica,sans-Serif" font-size="10.00">(FR2.2)</text>
</g>
<!-- segments&#45;&gt;timestamp_map -->
<g id="edge14" class="edge">
<title>segments&#45;&gt;timestamp_map</title>
<path fill="none" stroke="black" d="M702.33,-972.75C694.56,-961.01 685.51,-947.33 677.14,-934.67"/>
<polygon fill="black" stroke="black" points="680.18,-932.92 671.74,-926.51 674.34,-936.78 680.18,-932.92"/>
</g>
<!-- speaker_map -->
<g id="node14" class="node">
<title>speaker_map</title>
<path fill="#d4edda" stroke="black" d="M992.12,-919.12C992.12,-919.12 775.88,-919.12 775.88,-919.12 769.88,-919.12 763.88,-913.12 763.88,-907.12 763.88,-907.12 763.88,-878.12 763.88,-878.12 763.88,-872.12 769.88,-866.12 775.88,-866.12 775.88,-866.12 992.12,-866.12 992.12,-866.12 998.12,-866.12 1004.12,-872.12 1004.12,-878.12 1004.12,-878.12 1004.12,-907.12 1004.12,-907.12 1004.12,-913.12 998.12,-919.12 992.12,-919.12"/>
<text xml:space="preserve" text-anchor="middle" x="884" y="-905.62" font-family="Helvetica,sans-Serif" font-size="10.00">_speaker_id_for_char_range()</text>
<text xml:space="preserve" text-anchor="middle" x="884" y="-894.38" font-family="Helvetica,sans-Serif" font-size="10.00">───────────────────────</text>
<text xml:space="preserve" text-anchor="middle" x="884" y="-883.12" font-family="Helvetica,sans-Serif" font-size="10.00">Map quote to speaker</text>
<text xml:space="preserve" text-anchor="middle" x="884" y="-871.88" font-family="Helvetica,sans-Serif" font-size="10.00">via diarization segments</text>
</g>
<!-- segments&#45;&gt;speaker_map -->
<g id="edge15" class="edge">
<title>segments&#45;&gt;speaker_map</title>
<path fill="none" stroke="black" d="M766.27,-972.75C787.89,-958.22 813.95,-940.7 836.05,-925.85"/>
<polygon fill="black" stroke="black" points="837.97,-928.78 844.31,-920.3 834.06,-922.97 837.97,-928.78"/>
</g>
<!-- evidence_check -->
<g id="node6" class="node">
<title>evidence_check</title>
<path fill="#fff3cd" stroke="black" d="M242.33,-820.7C242.33,-820.7 138.67,-795.8 138.67,-795.8 132.83,-794.4 132.83,-791.6 138.67,-790.2 138.67,-790.2 242.33,-765.3 242.33,-765.3 248.17,-763.9 259.83,-763.9 265.67,-765.3 265.67,-765.3 369.33,-790.2 369.33,-790.2 375.17,-791.6 375.17,-794.4 369.33,-795.8 369.33,-795.8 265.67,-820.7 265.67,-820.7 259.83,-822.1 248.17,-822.1 242.33,-820.7"/>
<text xml:space="preserve" text-anchor="middle" x="254" y="-794.75" font-family="Helvetica,sans-Serif" font-size="10.00">cfg.generate_gi AND</text>
<text xml:space="preserve" text-anchor="middle" x="254" y="-783.5" font-family="Helvetica,sans-Serif" font-size="10.00">cfg.gi_require_grounding?</text>
</g>
<!-- resolve_insights&#45;&gt;evidence_check -->
<g id="edge4" class="edge">
<title>resolve_insights&#45;&gt;evidence_check</title>
<path fill="none" stroke="black" d="M254,-860.2C254,-852.24 254,-843.58 254,-835.22"/>
<polygon fill="black" stroke="black" points="257.5,-835.22 254,-825.22 250.5,-835.22 257.5,-835.22"/>
</g>
<!-- create_providers -->
<g id="node7" class="node">
<title>create_providers</title>
<path fill="#e8f4fd" stroke="black" d="M607.88,-695.75C607.88,-695.75 372.12,-695.75 372.12,-695.75 366.12,-695.75 360.12,-689.75 360.12,-683.75 360.12,-683.75 360.12,-654.75 360.12,-654.75 360.12,-648.75 366.12,-642.75 372.12,-642.75 372.12,-642.75 607.88,-642.75 607.88,-642.75 613.88,-642.75 619.88,-648.75 619.88,-654.75 619.88,-654.75 619.88,-683.75 619.88,-683.75 619.88,-689.75 613.88,-695.75 607.88,-695.75"/>
<text xml:space="preserve" text-anchor="middle" x="490" y="-682.25" font-family="Helvetica,sans-Serif" font-size="10.00">create_gil_evidence_providers()</text>
<text xml:space="preserve" text-anchor="middle" x="490" y="-671" font-family="Helvetica,sans-Serif" font-size="10.00">─────────────────────────</text>
<text xml:space="preserve" text-anchor="middle" x="490" y="-659.75" font-family="Helvetica,sans-Serif" font-size="10.00">QA extraction provider</text>
<text xml:space="preserve" text-anchor="middle" x="490" y="-648.5" font-family="Helvetica,sans-Serif" font-size="10.00">NLI entailment provider</text>
</g>
<!-- evidence_check&#45;&gt;create_providers -->
<g id="edge5" class="edge">
<title>evidence_check&#45;&gt;create_providers</title>
<path fill="none" stroke="black" d="M293.5,-771.62C330.67,-752.44 386.87,-723.46 429.65,-701.38"/>
<polygon fill="black" stroke="black" points="431.04,-704.6 438.32,-696.91 427.83,-698.38 431.04,-704.6"/>
<text xml:space="preserve" text-anchor="middle" x="372.05" y="-735.95" font-family="Helvetica,sans-Serif" font-size="9.00">Yes</text>
</g>
<!-- stub_artifact -->
<g id="node11" class="node">
<title>stub_artifact</title>
<path fill="#e2e3e5" stroke="black" d="M272.75,-280.38C272.75,-280.38 105.25,-280.38 105.25,-280.38 99.25,-280.38 93.25,-274.38 93.25,-268.38 93.25,-268.38 93.25,-239.38 93.25,-239.38 93.25,-233.38 99.25,-227.38 105.25,-227.38 105.25,-227.38 272.75,-227.38 272.75,-227.38 278.75,-227.38 284.75,-233.38 284.75,-239.38 284.75,-239.38 284.75,-268.38 284.75,-268.38 284.75,-274.38 278.75,-280.38 272.75,-280.38"/>
<text xml:space="preserve" text-anchor="middle" x="189" y="-266.88" font-family="Helvetica,sans-Serif" font-size="10.00">_build_stub_artifact()</text>
<text xml:space="preserve" text-anchor="middle" x="189" y="-255.62" font-family="Helvetica,sans-Serif" font-size="10.00">──────────────────</text>
<text xml:space="preserve" text-anchor="middle" x="189" y="-244.38" font-family="Helvetica,sans-Serif" font-size="10.00">1 Episode + 1 Insight</text>
<text xml:space="preserve" text-anchor="middle" x="189" y="-233.12" font-family="Helvetica,sans-Serif" font-size="10.00">+ 1 Quote stub</text>
</g>
<!-- evidence_check&#45;&gt;stub_artifact -->
<g id="edge6" class="edge">
<title>evidence_check&#45;&gt;stub_artifact</title>
<path fill="none" stroke="black" d="M219.13,-770.55C189.25,-749.2 151,-713.44 151,-670.25 151,-670.25 151,-670.25 151,-372.62 151,-344.25 161.12,-313.81 170.91,-290.99"/>
<polygon fill="black" stroke="black" points="173.98,-292.7 174.88,-282.14 167.59,-289.83 173.98,-292.7"/>
<text xml:space="preserve" text-anchor="middle" x="190.75" y="-510.07" font-family="Helvetica,sans-Serif" font-size="9.00">No</text>
<text xml:space="preserve" text-anchor="middle" x="190.75" y="-500.32" font-family="Helvetica,sans-Serif" font-size="9.00">(single stub insight)</text>
</g>
<!-- multi_insight -->
<g id="node12" class="node">
<title>multi_insight</title>
<path fill="#cce5ff" stroke="black" d="M720,-297.25C720,-297.25 494,-297.25 494,-297.25 488,-297.25 482,-291.25 482,-285.25 482,-285.25 482,-222.5 482,-222.5 482,-216.5 488,-210.5 494,-210.5 494,-210.5 720,-210.5 720,-210.5 726,-210.5 732,-216.5 732,-222.5 732,-222.5 732,-285.25 732,-285.25 732,-291.25 726,-297.25 720,-297.25"/>
<text xml:space="preserve" text-anchor="middle" x="607" y="-283.75" font-family="Helvetica,sans-Serif" font-size="10.00">_artifact_from_multi_insight()</text>
<text xml:space="preserve" text-anchor="middle" x="607" y="-272.5" font-family="Helvetica,sans-Serif" font-size="10.00">────────────────────────</text>
<text xml:space="preserve" text-anchor="middle" x="607" y="-261.25" font-family="Helvetica,sans-Serif" font-size="10.00">Episode node</text>
<text xml:space="preserve" text-anchor="middle" x="607" y="-250" font-family="Helvetica,sans-Serif" font-size="10.00">+ N Insight nodes</text>
<text xml:space="preserve" text-anchor="middle" x="607" y="-238.75" font-family="Helvetica,sans-Serif" font-size="10.00">+ Quote nodes per insight</text>
<text xml:space="preserve" text-anchor="middle" x="607" y="-227.5" font-family="Helvetica,sans-Serif" font-size="10.00">+ Topic nodes (dedupe by slug)</text>
<text xml:space="preserve" text-anchor="middle" x="607" y="-216.25" font-family="Helvetica,sans-Serif" font-size="10.00">+ Speaker nodes (from segments)</text>
</g>
<!-- evidence_check&#45;&gt;multi_insight -->
<g id="edge7" class="edge">
<title>evidence_check&#45;&gt;multi_insight</title>
<path fill="none" stroke="black" d="M254,-762.48C254,-737.82 254,-701.74 254,-670.25 254,-670.25 254,-670.25 254,-372.62 254,-337.06 295.39,-356.38 329,-344.75 390.84,-323.35 409.34,-318.95 471.05,-299.16"/>
<polygon fill="black" stroke="black" points="471.89,-302.57 480.33,-296.17 469.74,-295.9 471.89,-302.57"/>
<text xml:space="preserve" text-anchor="middle" x="289.62" y="-514.95" font-family="Helvetica,sans-Serif" font-size="9.00">No</text>
<text xml:space="preserve" text-anchor="middle" x="289.62" y="-505.2" font-family="Helvetica,sans-Serif" font-size="9.00">(multiple insights,</text>
<text xml:space="preserve" text-anchor="middle" x="289.62" y="-495.45" font-family="Helvetica,sans-Serif" font-size="9.00">no grounding)</text>
</g>
<!-- grounding_loop -->
<g id="node8" class="node">
<title>grounding_loop</title>
<path fill="#e8f4fd" stroke="black" d="M666.88,-605.75C666.88,-605.75 353.12,-605.75 353.12,-605.75 347.12,-605.75 341.12,-599.75 341.12,-593.75 341.12,-593.75 341.12,-553.5 341.12,-553.5 341.12,-547.5 347.12,-541.5 353.12,-541.5 353.12,-541.5 666.88,-541.5 666.88,-541.5 672.88,-541.5 678.88,-547.5 678.88,-553.5 678.88,-553.5 678.88,-593.75 678.88,-593.75 678.88,-599.75 672.88,-605.75 666.88,-605.75"/>
<text xml:space="preserve" text-anchor="middle" x="510" y="-592.25" font-family="Helvetica,sans-Serif" font-size="10.00">For each insight:</text>
<text xml:space="preserve" text-anchor="middle" x="510" y="-581" font-family="Helvetica,sans-Serif" font-size="10.00">find_grounded_quotes_via_providers()</text>
<text xml:space="preserve" text-anchor="middle" x="510" y="-569.75" font-family="Helvetica,sans-Serif" font-size="10.00">─────────────────────────────────</text>
<text xml:space="preserve" text-anchor="middle" x="510" y="-558.5" font-family="Helvetica,sans-Serif" font-size="10.00">QA: extract quotes from transcript</text>
<text xml:space="preserve" text-anchor="middle" x="510" y="-547.25" font-family="Helvetica,sans-Serif" font-size="10.00">NLI: score entailment</text>
</g>
<!-- create_providers&#45;&gt;grounding_loop -->
<g id="edge8" class="edge">
<title>create_providers&#45;&gt;grounding_loop</title>
<path fill="none" stroke="black" d="M495.47,-642.67C497.14,-634.84 499.03,-626 500.87,-617.35"/>
<polygon fill="black" stroke="black" points="504.27,-618.18 502.94,-607.67 497.43,-616.72 504.27,-618.18"/>
</g>
<!-- zero_check -->
<g id="node9" class="node">
<title>zero_check</title>
<path fill="#fff3cd" stroke="black" d="M498.26,-473.78C498.26,-473.78 436.18,-460.72 436.18,-460.72 430.31,-459.49 430.31,-457.01 436.18,-455.78 436.18,-455.78 498.26,-442.72 498.26,-442.72 504.13,-441.49 515.87,-441.49 521.74,-442.72 521.74,-442.72 583.82,-455.78 583.82,-455.78 589.69,-457.01 589.69,-459.49 583.82,-460.72 583.82,-460.72 521.74,-473.78 521.74,-473.78 515.87,-475.01 504.13,-475.01 498.26,-473.78"/>
<text xml:space="preserve" text-anchor="middle" x="510" y="-454.38" font-family="Helvetica,sans-Serif" font-size="10.00">Total grounded &gt; 0?</text>
</g>
<!-- grounding_loop&#45;&gt;zero_check -->
<g id="edge9" class="edge">
<title>grounding_loop&#45;&gt;zero_check</title>
<path fill="none" stroke="black" d="M510,-541.04C510,-524.44 510,-504.24 510,-488.06"/>
<polygon fill="black" stroke="black" points="513.5,-488.12 510,-478.12 506.5,-488.12 513.5,-488.12"/>
</g>
<!-- handle_zero -->
<g id="node10" class="node">
<title>handle_zero</title>
<path fill="#e8f4fd" stroke="black" d="M558.62,-394.5C558.62,-394.5 423.38,-394.5 423.38,-394.5 417.38,-394.5 411.38,-388.5 411.38,-382.5 411.38,-382.5 411.38,-364.75 411.38,-364.75 411.38,-358.75 417.38,-352.75 423.38,-352.75 423.38,-352.75 558.62,-352.75 558.62,-352.75 564.62,-352.75 570.62,-358.75 570.62,-364.75 570.62,-364.75 570.62,-382.5 570.62,-382.5 570.62,-388.5 564.62,-394.5 558.62,-394.5"/>
<text xml:space="preserve" text-anchor="middle" x="491" y="-381" font-family="Helvetica,sans-Serif" font-size="10.00">_handle_zero_grounded_quotes()</text>
<text xml:space="preserve" text-anchor="middle" x="491" y="-369.75" font-family="Helvetica,sans-Serif" font-size="10.00">Warn / raise if</text>
<text xml:space="preserve" text-anchor="middle" x="491" y="-358.5" font-family="Helvetica,sans-Serif" font-size="10.00">gi_fail_on_missing_grounding</text>
</g>
<!-- zero_check&#45;&gt;handle_zero -->
<g id="edge10" class="edge">
<title>zero_check&#45;&gt;handle_zero</title>
<path fill="none" stroke="black" d="M506.25,-440.93C503.94,-430.88 500.9,-417.66 498.14,-405.68"/>
<polygon fill="black" stroke="black" points="501.61,-405.15 495.96,-396.19 494.79,-406.72 501.61,-405.15"/>
<text xml:space="preserve" text-anchor="middle" x="529.39" y="-413.7" font-family="Helvetica,sans-Serif" font-size="9.00">No (0 quotes)</text>
</g>
<!-- zero_check&#45;&gt;multi_insight -->
<g id="edge11" class="edge">
<title>zero_check&#45;&gt;multi_insight</title>
<path fill="none" stroke="black" d="M532.19,-444.56C541.68,-438.52 552.5,-430.76 561,-422.25 571.56,-411.67 574.08,-408.22 580,-394.5 591.63,-367.54 598.28,-335.51 602.07,-308.92"/>
<polygon fill="black" stroke="black" points="605.54,-309.39 603.37,-299.02 598.6,-308.47 605.54,-309.39"/>
<text xml:space="preserve" text-anchor="middle" x="602.63" y="-369.95" font-family="Helvetica,sans-Serif" font-size="9.00">Yes</text>
</g>
<!-- handle_zero&#45;&gt;multi_insight -->
<g id="edge12" class="edge">
<title>handle_zero&#45;&gt;multi_insight</title>
<path fill="none" stroke="black" d="M510.76,-352.42C521.53,-341.42 535.11,-327.57 547.25,-315.25 550.31,-312.15 553.45,-308.96 556.63,-305.74"/>
<polygon fill="black" stroke="black" points="558.94,-308.38 563.48,-298.8 553.96,-303.46 558.94,-308.38"/>
<text xml:space="preserve" text-anchor="middle" x="570.12" y="-326.2" font-family="Helvetica,sans-Serif" font-size="9.00">continue</text>
<text xml:space="preserve" text-anchor="middle" x="570.12" y="-316.45" font-family="Helvetica,sans-Serif" font-size="9.00">(degraded)</text>
</g>
<!-- artifact -->
<g id="node15" class="node">
<title>artifact</title>
<path fill="#d1ecf1" stroke="black" d="M556.86,-173.5C556.86,-173.5 216.79,-173.5 216.79,-173.5 210.79,-173.5 201.94,-168.22 199.09,-162.94 199.09,-162.94 116.84,-10.56 116.84,-10.56 113.99,-5.28 117.14,0 123.14,0 123.14,0 463.21,0 463.21,0 469.21,0 478.06,-5.28 480.91,-10.56 480.91,-10.56 563.16,-162.94 563.16,-162.94 566.01,-168.22 562.86,-173.5 556.86,-173.5"/>
<text xml:space="preserve" text-anchor="middle" x="340" y="-116.62" font-family="Helvetica,sans-Serif" font-size="10.00">GIL Artifact (gi.json)</text>
<text xml:space="preserve" text-anchor="middle" x="340" y="-105.38" font-family="Helvetica,sans-Serif" font-size="10.00">─────────────────────</text>
<text xml:space="preserve" text-anchor="middle" x="340" y="-94.12" font-family="Helvetica,sans-Serif" font-size="10.00">schema_version, model_version</text>
<text xml:space="preserve" text-anchor="middle" x="340" y="-82.88" font-family="Helvetica,sans-Serif" font-size="10.00">nodes: Episode, Insight, Quote,</text>
<text xml:space="preserve" text-anchor="middle" x="340" y="-71.62" font-family="Helvetica,sans-Serif" font-size="10.00"> &#160;&#160;&#160;&#160;&#160;&#160;Topic, Speaker</text>
<text xml:space="preserve" text-anchor="middle" x="340" y="-60.38" font-family="Helvetica,sans-Serif" font-size="10.00">edges: HAS_INSIGHT, SUPPORTED_BY,</text>
<text xml:space="preserve" text-anchor="middle" x="340" y="-49.12" font-family="Helvetica,sans-Serif" font-size="10.00"> &#160;&#160;&#160;&#160;&#160;&#160;ABOUT, SPOKEN_BY</text>
</g>
<!-- handle_zero&#45;&gt;artifact -->
<g id="edge13" class="edge">
<title>handle_zero&#45;&gt;artifact</title>
<path fill="none" stroke="red" stroke-dasharray="5,2" d="M421.24,-352.34C394.09,-340.74 365.62,-323.18 349.25,-297.25 328.6,-264.54 323.5,-222.89 324.6,-185.36"/>
<polygon fill="red" stroke="red" points="328.09,-185.52 325.06,-175.37 321.1,-185.19 328.09,-185.52"/>
<text xml:space="preserve" text-anchor="middle" x="411.12" y="-255.07" font-family="Helvetica,sans-Serif" font-size="9.00">raise</text>
<text xml:space="preserve" text-anchor="middle" x="411.12" y="-245.32" font-family="Helvetica,sans-Serif" font-size="9.00">GILGroundingUnsatisfiedError</text>
</g>
<!-- stub_artifact&#45;&gt;artifact -->
<g id="edge19" class="edge">
<title>stub_artifact&#45;&gt;artifact</title>
<path fill="none" stroke="black" d="M212.59,-227.07C224.07,-214.52 238.65,-198.58 253.81,-182"/>
<polygon fill="black" stroke="black" points="256.11,-184.68 260.27,-174.94 250.94,-179.95 256.11,-184.68"/>
</g>
<!-- multi_insight&#45;&gt;artifact -->
<g id="edge18" class="edge">
<title>multi_insight&#45;&gt;artifact</title>
<path fill="none" stroke="black" d="M537.89,-210.14C522.64,-200.7 505.91,-190.36 488.84,-179.8"/>
<polygon fill="black" stroke="black" points="490.97,-177 480.62,-174.72 487.29,-182.95 490.97,-177"/>
</g>
<!-- timestamp_map&#45;&gt;multi_insight -->
<g id="edge16" class="edge">
<title>timestamp_map&#45;&gt;multi_insight</title>
<path fill="none" stroke="black" stroke-dasharray="5,2" d="M679.5,-860.37C693.41,-842.38 707,-818.53 707,-794 707,-794 707,-794 707,-372.62 707,-347.04 693.12,-324.18 675.7,-305.56"/>
<polygon fill="black" stroke="black" points="678.36,-303.27 668.83,-298.65 673.4,-308.21 678.36,-303.27"/>
</g>
<!-- speaker_map&#45;&gt;multi_insight -->
<g id="edge17" class="edge">
<title>speaker_map&#45;&gt;multi_insight</title>
<path fill="none" stroke="black" stroke-dasharray="5,2" d="M838.04,-865.68C814.61,-848.75 791,-824.2 791,-794 791,-794 791,-794 791,-372.62 791,-339.74 769.9,-315.63 741.98,-298.11"/>
<polygon fill="black" stroke="black" points="743.98,-295.23 733.58,-293.19 740.44,-301.27 743.98,-295.23"/>
</g>
</g>
</svg>
