<?xml version="1.0" encoding="UTF-8" standalone="no"?>
<!DOCTYPE svg PUBLIC "-//W3C//DTD SVG 1.1//EN"
 "http://www.w3.org/Graphics/SVG/1.1/DTD/svg11.dtd">
<!-- Generated by graphviz version 14.1.2 (20260124.0452)
 -->
<!-- Title: kg_pipeline Pages: 1 -->
<svg width="1026pt" height="1054pt"
 viewBox="0.00 0.00 1026.00 1054.00" xmlns="http://www.w3.org/2000/svg" xmlns:xlink="http://www.w3.org/1999/xlink">
<g id="graph0" class="graph" transform="scale(1 1) rotate(0) translate(4 1049.75)">
<title>kg_pipeline</title>
<polygon fill="white" stroke="none" points="-4,4 -4,-1049.75 1022,-1049.75 1022,4 -4,4"/>
<text xml:space="preserve" text-anchor="middle" x="509" y="-1028.45" font-family="Helvetica,sans-Serif" font-size="14.00">KG Extraction Pipeline: build_artifact()</text>
<g id="clust1" class="cluster">
<title>cluster_inputs</title>
<polygon fill="none" stroke="#999999" stroke-dasharray="5,2" points="8,-892.25 8,-1014.75 1010,-1014.75 1010,-892.25 8,-892.25"/>
<text xml:space="preserve" text-anchor="middle" x="509" y="-997.45" font-family="Helvetica,sans-Serif" font-size="14.00">Inputs</text>
</g>
<g id="clust2" class="cluster">
<title>cluster_provider</title>
<polygon fill="#f0f8ff" stroke="#cce5ff" points="320,-620.75 320,-712.75 606,-712.75 606,-620.75 320,-620.75"/>
<text xml:space="preserve" text-anchor="middle" x="463" y="-695.45" font-family="Helvetica,sans-Serif" font-size="14.00">Provider Extraction</text>
</g>
<g id="clust3" class="cluster">
<title>cluster_bullets</title>
<polygon fill="#f0fff0" stroke="#d4edda" points="556,-377.25 556,-593 890,-593 890,-377.25 556,-377.25"/>
<text xml:space="preserve" text-anchor="middle" x="723" y="-575.7" font-family="Helvetica,sans-Serif" font-size="14.00">Summary Bullets Extraction</text>
</g>
<!-- episode_id -->
<g id="node1" class="node">
<title>episode_id</title>
<path fill="#fff3cd" stroke="black" d="M516.13,-983.75C516.13,-983.75 411.07,-983.75 411.07,-983.75 405.07,-983.75 396.86,-978.17 394.64,-972.6 394.64,-972.6 370.31,-911.4 370.31,-911.4 368.09,-905.83 371.87,-900.25 377.87,-900.25 377.87,-900.25 482.93,-900.25 482.93,-900.25 488.93,-900.25 497.14,-905.83 499.36,-911.4 499.36,-911.4 523.69,-972.6 523.69,-972.6 525.91,-978.17 522.13,-983.75 516.13,-983.75"/>
<text xml:space="preserve" text-anchor="middle" x="447" y="-949.38" font-family="Helvetica,sans-Serif" font-size="10.00">episode_id</text>
<text xml:space="preserve" text-anchor="middle" x="447" y="-938.12" font-family="Helvetica,sans-Serif" font-size="10.00">transcript_text</text>
<text xml:space="preserve" text-anchor="middle" x="447" y="-926.88" font-family="Helvetica,sans-Serif" font-size="10.00">podcast_id</text>
</g>
<!-- resolve_source -->
<g id="node5" class="node">
<title>resolve_source</title>
<path fill="#d4edda" stroke="black" d="M540.5,-863.25C540.5,-863.25 353.5,-863.25 353.5,-863.25 347.5,-863.25 341.5,-857.25 341.5,-851.25 341.5,-851.25 341.5,-833.5 341.5,-833.5 341.5,-827.5 347.5,-821.5 353.5,-821.5 353.5,-821.5 540.5,-821.5 540.5,-821.5 546.5,-821.5 552.5,-827.5 552.5,-833.5 552.5,-833.5 552.5,-851.25 552.5,-851.25 552.5,-857.25 546.5,-863.25 540.5,-863.25"/>
<text xml:space="preserve" text-anchor="middle" x="447" y="-849.75" font-family="Helvetica,sans-Serif" font-size="10.00">_resolve_source(cfg)</text>
<text xml:space="preserve" text-anchor="middle" x="447" y="-838.5" font-family="Helvetica,sans-Serif" font-size="10.00">────────────────────</text>
<text xml:space="preserve" text-anchor="middle" x="447" y="-827.25" font-family="Helvetica,sans-Serif" font-size="10.00">stub | summary_bullets | provider</text>
</g>
<!-- episode_id&#45;&gt;resolve_source -->
<g id="edge1" class="edge">
<title>episode_id&#45;&gt;resolve_source</title>
<path fill="none" stroke="black" d="M447,-899.88C447,-891.58 447,-882.97 447,-875.05"/>
<polygon fill="black" stroke="black" points="450.5,-875.2 447,-865.2 443.5,-875.2 450.5,-875.2"/>
</g>
<!-- cfg -->
<g id="node2" class="node">
<title>cfg</title>
<path fill="#fff3cd" stroke="black" d="M335.88,-983.75C335.88,-983.75 96,-983.75 96,-983.75 90,-983.75 80.22,-979.09 76.43,-974.44 76.43,-974.44 23.69,-909.56 23.69,-909.56 19.9,-904.91 22.12,-900.25 28.12,-900.25 28.12,-900.25 268,-900.25 268,-900.25 274,-900.25 283.78,-904.91 287.57,-909.56 287.57,-909.56 340.31,-974.44 340.31,-974.44 344.1,-979.09 341.88,-983.75 335.88,-983.75"/>
<text xml:space="preserve" text-anchor="middle" x="182" y="-949.38" font-family="Helvetica,sans-Serif" font-size="10.00">cfg (Config)</text>
<text xml:space="preserve" text-anchor="middle" x="182" y="-938.12" font-family="Helvetica,sans-Serif" font-size="10.00">kg_extraction_source:</text>
<text xml:space="preserve" text-anchor="middle" x="182" y="-926.88" font-family="Helvetica,sans-Serif" font-size="10.00">stub | summary_bullets | provider</text>
</g>
<!-- cfg&#45;&gt;resolve_source -->
<g id="edge2" class="edge">
<title>cfg&#45;&gt;resolve_source</title>
<path fill="none" stroke="black" d="M283.32,-903.67C316.11,-891.59 351.61,-878.52 381.13,-867.64"/>
<polygon fill="black" stroke="black" points="382.13,-871 390.31,-864.26 379.71,-864.43 382.13,-871"/>
</g>
<!-- providers -->
<g id="node3" class="node">
<title>providers</title>
<path fill="#fff3cd" stroke="black" d="M789.78,-972.5C789.78,-972.5 610.51,-972.5 610.51,-972.5 604.51,-972.5 594.61,-967.94 590.7,-963.39 590.7,-963.39 554.03,-920.61 554.03,-920.61 550.13,-916.06 552.22,-911.5 558.22,-911.5 558.22,-911.5 737.49,-911.5 737.49,-911.5 743.49,-911.5 753.39,-916.06 757.3,-920.61 757.3,-920.61 793.97,-963.39 793.97,-963.39 797.87,-967.94 795.78,-972.5 789.78,-972.5"/>
<text xml:space="preserve" text-anchor="middle" x="674" y="-943.75" font-family="Helvetica,sans-Serif" font-size="10.00">kg_extraction_provider</text>
<text xml:space="preserve" text-anchor="middle" x="674" y="-932.5" font-family="Helvetica,sans-Serif" font-size="10.00">(summarization provider)</text>
</g>
<!-- pipeline_data -->
<g id="node4" class="node">
<title>pipeline_data</title>
<path fill="#fff3cd" stroke="black" d="M990.23,-983.75C990.23,-983.75 869.1,-983.75 869.1,-983.75 863.1,-983.75 854.65,-978.27 852.2,-972.8 852.2,-972.8 824.66,-911.2 824.66,-911.2 822.21,-905.73 825.77,-900.25 831.77,-900.25 831.77,-900.25 952.9,-900.25 952.9,-900.25 958.9,-900.25 967.35,-905.73 969.8,-911.2 969.8,-911.2 997.34,-972.8 997.34,-972.8 999.79,-978.27 996.23,-983.75 990.23,-983.75"/>
<text xml:space="preserve" text-anchor="middle" x="911" y="-949.38" font-family="Helvetica,sans-Serif" font-size="10.00">topic_labels</text>
<text xml:space="preserve" text-anchor="middle" x="911" y="-938.12" font-family="Helvetica,sans-Serif" font-size="10.00">detected_hosts</text>
<text xml:space="preserve" text-anchor="middle" x="911" y="-926.88" font-family="Helvetica,sans-Serif" font-size="10.00">detected_guests</text>
</g>
<!-- append_pipeline -->
<g id="node13" class="node">
<title>append_pipeline</title>
<path fill="#d4edda" stroke="black" d="M946.75,-266.5C946.75,-266.5 701.25,-266.5 701.25,-266.5 695.25,-266.5 689.25,-260.5 689.25,-254.5 689.25,-254.5 689.25,-200 689.25,-200 689.25,-194 695.25,-188 701.25,-188 701.25,-188 946.75,-188 946.75,-188 952.75,-188 958.75,-194 958.75,-200 958.75,-200 958.75,-254.5 958.75,-254.5 958.75,-260.5 952.75,-266.5 946.75,-266.5"/>
<text xml:space="preserve" text-anchor="middle" x="824" y="-253" font-family="Helvetica,sans-Serif" font-size="10.00">_append_pipeline_entities()</text>
<text xml:space="preserve" text-anchor="middle" x="824" y="-241.75" font-family="Helvetica,sans-Serif" font-size="10.00">──────────────────────────</text>
<text xml:space="preserve" text-anchor="middle" x="824" y="-230.5" font-family="Helvetica,sans-Serif" font-size="10.00">Entity nodes from speaker pipeline:</text>
<text xml:space="preserve" text-anchor="middle" x="824" y="-219.25" font-family="Helvetica,sans-Serif" font-size="10.00"> &#160;hosts → role: host, kind: person</text>
<text xml:space="preserve" text-anchor="middle" x="824" y="-206.5" font-family="Helvetica,sans-Serif" font-size="10.00"> &#160;guests → role: guest, kind: person</text>
<text xml:space="preserve" text-anchor="middle" x="824" y="-193.75" font-family="Helvetica,sans-Serif" font-size="10.00">Deduped against existing entities</text>
</g>
<!-- pipeline_data&#45;&gt;append_pipeline -->
<g id="edge15" class="edge">
<title>pipeline_data&#45;&gt;append_pipeline</title>
<path fill="none" stroke="black" d="M910.4,-900.15C910.18,-882.67 910,-862.02 910,-843.38 910,-843.38 910,-843.38 910,-329.25 910,-308.85 899.7,-290.47 886.23,-275.16"/>
<polygon fill="black" stroke="black" points="888.93,-272.92 879.51,-268.07 883.85,-277.74 888.93,-272.92"/>
</g>
<!-- source_decision -->
<g id="node6" class="node">
<title>source_decision</title>
<path fill="#fff3cd" stroke="black" d="M441.21,-782.28C441.21,-782.28 369.19,-768.72 369.19,-768.72 363.29,-767.61 363.29,-765.39 369.19,-764.28 369.19,-764.28 441.21,-750.72 441.21,-750.72 447.1,-749.61 458.9,-749.61 464.79,-750.72 464.79,-750.72 536.81,-764.28 536.81,-764.28 542.71,-765.39 542.71,-767.61 536.81,-768.72 536.81,-768.72 464.79,-782.28 464.79,-782.28 458.9,-783.39 447.1,-783.39 441.21,-782.28"/>
<text xml:space="preserve" text-anchor="middle" x="453" y="-762.62" font-family="Helvetica,sans-Serif" font-size="10.00">kg_extraction_source?</text>
</g>
<!-- resolve_source&#45;&gt;source_decision -->
<g id="edge3" class="edge">
<title>resolve_source&#45;&gt;source_decision</title>
<path fill="none" stroke="black" d="M448.64,-821.19C449.27,-813.41 450.01,-804.37 450.69,-795.95"/>
<polygon fill="black" stroke="black" points="454.16,-796.42 451.48,-786.17 447.19,-795.85 454.16,-796.42"/>
</g>
<!-- try_provider -->
<g id="node7" class="node">
<title>try_provider</title>
<path fill="#e8f4fd" stroke="black" d="M585.75,-681.75C585.75,-681.75 340.25,-681.75 340.25,-681.75 334.25,-681.75 328.25,-675.75 328.25,-669.75 328.25,-669.75 328.25,-640.75 328.25,-640.75 328.25,-634.75 334.25,-628.75 340.25,-628.75 340.25,-628.75 585.75,-628.75 585.75,-628.75 591.75,-628.75 597.75,-634.75 597.75,-640.75 597.75,-640.75 597.75,-669.75 597.75,-669.75 597.75,-675.75 591.75,-681.75 585.75,-681.75"/>
<text xml:space="preserve" text-anchor="middle" x="463" y="-668.25" font-family="Helvetica,sans-Serif" font-size="10.00">_try_provider_extraction()</text>
<text xml:space="preserve" text-anchor="middle" x="463" y="-657" font-family="Helvetica,sans-Serif" font-size="10.00">──────────────────────────</text>
<text xml:space="preserve" text-anchor="middle" x="463" y="-645.75" font-family="Helvetica,sans-Serif" font-size="10.00">Calls provider.extract_kg_graph()</text>
<text xml:space="preserve" text-anchor="middle" x="463" y="-634.5" font-family="Helvetica,sans-Serif" font-size="10.00">Returns {topics: [...], entities: [...]}</text>
</g>
<!-- source_decision&#45;&gt;try_provider -->
<g id="edge4" class="edge">
<title>source_decision&#45;&gt;try_provider</title>
<path fill="none" stroke="black" d="M454.56,-748.43C455.9,-733.79 457.88,-712.17 459.59,-693.55"/>
<polygon fill="black" stroke="black" points="463.07,-693.93 460.49,-683.65 456.1,-693.29 463.07,-693.93"/>
<text xml:space="preserve" text-anchor="middle" x="473.69" y="-721.95" font-family="Helvetica,sans-Serif" font-size="9.00">provider</text>
</g>
<!-- try_bullets -->
<g id="node8" class="node">
<title>try_bullets</title>
<path fill="#e8f4fd" stroke="black" d="M870.12,-562C870.12,-562 575.88,-562 575.88,-562 569.88,-562 563.88,-556 563.88,-550 563.88,-550 563.88,-521 563.88,-521 563.88,-515 569.88,-509 575.88,-509 575.88,-509 870.12,-509 870.12,-509 876.12,-509 882.12,-515 882.12,-521 882.12,-521 882.12,-550 882.12,-550 882.12,-556 876.12,-562 870.12,-562"/>
<text xml:space="preserve" text-anchor="middle" x="723" y="-548.5" font-family="Helvetica,sans-Serif" font-size="10.00">_try_bullet_derived_extraction()</text>
<text xml:space="preserve" text-anchor="middle" x="723" y="-537.25" font-family="Helvetica,sans-Serif" font-size="10.00">───────────────────────────────</text>
<text xml:space="preserve" text-anchor="middle" x="723" y="-526" font-family="Helvetica,sans-Serif" font-size="10.00">Calls provider.extract_kg_from_summary_bullets()</text>
<text xml:space="preserve" text-anchor="middle" x="723" y="-514.75" font-family="Helvetica,sans-Serif" font-size="10.00">Derives topics/entities from bullet text via LLM</text>
</g>
<!-- source_decision&#45;&gt;try_bullets -->
<g id="edge5" class="edge">
<title>source_decision&#45;&gt;try_bullets</title>
<path fill="none" stroke="black" d="M503.46,-757.53C536.47,-750.28 579.05,-736.89 610,-712.75 657.55,-675.66 690.93,-612.62 708.53,-572.85"/>
<polygon fill="black" stroke="black" points="711.74,-574.24 712.48,-563.67 705.31,-571.48 711.74,-574.24"/>
<text xml:space="preserve" text-anchor="middle" x="719.32" y="-656.45" font-family="Helvetica,sans-Serif" font-size="9.00">summary_bullets</text>
<text xml:space="preserve" text-anchor="middle" x="719.32" y="-646.7" font-family="Helvetica,sans-Serif" font-size="9.00">(+ bullet_labels)</text>
</g>
<!-- stub_path -->
<g id="node15" class="node">
<title>stub_path</title>
<path fill="#e2e3e5" stroke="black" d="M141.25,-435.38C141.25,-435.38 90.75,-435.38 90.75,-435.38 84.75,-435.38 78.75,-429.38 78.75,-423.38 78.75,-423.38 78.75,-411.38 78.75,-411.38 78.75,-405.38 84.75,-399.38 90.75,-399.38 90.75,-399.38 141.25,-399.38 141.25,-399.38 147.25,-399.38 153.25,-405.38 153.25,-411.38 153.25,-411.38 153.25,-423.38 153.25,-423.38 153.25,-429.38 147.25,-435.38 141.25,-435.38"/>
<text xml:space="preserve" text-anchor="middle" x="116" y="-419.12" font-family="Helvetica,sans-Serif" font-size="10.00">No extraction</text>
<text xml:space="preserve" text-anchor="middle" x="116" y="-407.88" font-family="Helvetica,sans-Serif" font-size="10.00">(stub mode)</text>
</g>
<!-- source_decision&#45;&gt;stub_path -->
<g id="edge6" class="edge">
<title>source_decision&#45;&gt;stub_path</title>
<path fill="none" stroke="black" d="M410.07,-756.14C381.21,-748.23 343.55,-734.61 316,-712.75 220.71,-637.14 153.7,-503.72 127.83,-446.13"/>
<polygon fill="black" stroke="black" points="131.06,-444.78 123.82,-437.05 124.66,-447.61 131.06,-444.78"/>
<text xml:space="preserve" text-anchor="middle" x="228.93" y="-602.2" font-family="Helvetica,sans-Serif" font-size="9.00">stub</text>
</g>
<!-- provider_check -->
<g id="node10" class="node">
<title>provider_check</title>
<path fill="#fff3cd" stroke="black" d="M453.17,-560.84C453.17,-560.84 410.83,-540.66 410.83,-540.66 405.42,-538.08 405.42,-532.92 410.83,-530.34 410.83,-530.34 453.17,-510.16 453.17,-510.16 458.58,-507.58 469.42,-507.58 474.83,-510.16 474.83,-510.16 517.17,-530.34 517.17,-530.34 522.58,-532.92 522.58,-538.08 517.17,-540.66 517.17,-540.66 474.83,-560.84 474.83,-560.84 469.42,-563.42 458.58,-563.42 453.17,-560.84"/>
<text xml:space="preserve" text-anchor="middle" x="464" y="-537.25" font-family="Helvetica,sans-Serif" font-size="10.00">LLM partial</text>
<text xml:space="preserve" text-anchor="middle" x="464" y="-526" font-family="Helvetica,sans-Serif" font-size="10.00">returned?</text>
</g>
<!-- try_provider&#45;&gt;provider_check -->
<g id="edge7" class="edge">
<title>try_provider&#45;&gt;provider_check</title>
<path fill="none" stroke="black" d="M463.22,-628.41C463.35,-613.45 463.51,-594.28 463.65,-577.32"/>
<polygon fill="black" stroke="black" points="467.15,-577.56 463.74,-567.53 460.15,-577.5 467.15,-577.56"/>
</g>
<!-- bullet_fallback -->
<g id="node9" class="node">
<title>bullet_fallback</title>
<path fill="#e2e3e5" stroke="black" d="M843.5,-449.5C843.5,-449.5 578.5,-449.5 578.5,-449.5 572.5,-449.5 566.5,-443.5 566.5,-437.5 566.5,-437.5 566.5,-397.25 566.5,-397.25 566.5,-391.25 572.5,-385.25 578.5,-385.25 578.5,-385.25 843.5,-385.25 843.5,-385.25 849.5,-385.25 855.5,-391.25 855.5,-397.25 855.5,-397.25 855.5,-437.5 855.5,-437.5 855.5,-443.5 849.5,-449.5 843.5,-449.5"/>
<text xml:space="preserve" text-anchor="middle" x="711" y="-436" font-family="Helvetica,sans-Serif" font-size="10.00">_append_topics_from_labels()</text>
<text xml:space="preserve" text-anchor="middle" x="711" y="-424.75" font-family="Helvetica,sans-Serif" font-size="10.00">────────────────────────────</text>
<text xml:space="preserve" text-anchor="middle" x="711" y="-413.5" font-family="Helvetica,sans-Serif" font-size="10.00">Legacy: use bullet text</text>
<text xml:space="preserve" text-anchor="middle" x="711" y="-402.25" font-family="Helvetica,sans-Serif" font-size="10.00">as Topic node labels</text>
<text xml:space="preserve" text-anchor="middle" x="711" y="-391" font-family="Helvetica,sans-Serif" font-size="10.00">(slug&#45;deduped)</text>
</g>
<!-- try_bullets&#45;&gt;bullet_fallback -->
<g id="edge9" class="edge">
<title>try_bullets&#45;&gt;bullet_fallback</title>
<path fill="none" stroke="black" stroke-dasharray="5,2" d="M720.34,-508.73C718.89,-494.75 717.07,-477.11 715.42,-461.13"/>
<polygon fill="black" stroke="black" points="718.92,-460.96 714.41,-451.37 711.96,-461.68 718.92,-460.96"/>
<text xml:space="preserve" text-anchor="middle" x="743.57" y="-478.45" font-family="Helvetica,sans-Serif" font-size="9.00">provider N/A</text>
<text xml:space="preserve" text-anchor="middle" x="743.57" y="-468.7" font-family="Helvetica,sans-Serif" font-size="9.00">or failed</text>
</g>
<!-- try_bullets&#45;&gt;provider_check -->
<g id="edge8" class="edge">
<title>try_bullets&#45;&gt;provider_check</title>
<path fill="none" stroke="black" d="M563.48,-535.5C555.76,-535.5 548.04,-535.5 540.32,-535.5"/>
<polygon fill="black" stroke="black" points="540.52,-532 530.52,-535.5 540.52,-539 540.52,-532"/>
</g>
<!-- merge_check -->
<g id="node12" class="node">
<title>merge_check</title>
<path fill="#fff3cd" stroke="black" d="M615.14,-346.41C615.14,-346.41 522.55,-332.09 522.55,-332.09 516.62,-331.17 516.62,-329.33 522.55,-328.41 522.55,-328.41 615.14,-314.09 615.14,-314.09 621.07,-313.17 632.93,-313.17 638.86,-314.09 638.86,-314.09 731.45,-328.41 731.45,-328.41 737.38,-329.33 737.38,-331.17 731.45,-332.09 731.45,-332.09 638.86,-346.41 638.86,-346.41 632.93,-347.33 621.07,-347.33 615.14,-346.41"/>
<text xml:space="preserve" text-anchor="middle" x="627" y="-326.38" font-family="Helvetica,sans-Serif" font-size="10.00">kg_merge_pipeline_entities?</text>
</g>
<!-- bullet_fallback&#45;&gt;merge_check -->
<g id="edge10" class="edge">
<title>bullet_fallback&#45;&gt;merge_check</title>
<path fill="none" stroke="black" d="M680.2,-385.16C670.16,-374.99 659.2,-363.88 649.85,-354.41"/>
<polygon fill="black" stroke="black" points="652.37,-351.98 642.86,-347.32 647.39,-356.9 652.37,-351.98"/>
</g>
<!-- provider_check&#45;&gt;bullet_fallback -->
<g id="edge12" class="edge">
<title>provider_check&#45;&gt;bullet_fallback</title>
<path fill="none" stroke="black" d="M495.53,-519.67C530.11,-503.42 586.89,-476.73 633.48,-454.82"/>
<polygon fill="black" stroke="black" points="634.93,-458.01 642.49,-450.58 631.95,-451.67 634.93,-458.01"/>
<text xml:space="preserve" text-anchor="middle" x="628.16" y="-473.57" font-family="Helvetica,sans-Serif" font-size="9.00">No (fallback)</text>
</g>
<!-- append_topics_entities -->
<g id="node11" class="node">
<title>append_topics_entities</title>
<path fill="#cce5ff" stroke="black" d="M536.38,-449.5C536.38,-449.5 183.63,-449.5 183.63,-449.5 177.62,-449.5 171.62,-443.5 171.62,-437.5 171.62,-437.5 171.62,-397.25 171.62,-397.25 171.62,-391.25 177.62,-385.25 183.62,-385.25 183.62,-385.25 536.38,-385.25 536.38,-385.25 542.38,-385.25 548.38,-391.25 548.38,-397.25 548.38,-397.25 548.38,-437.5 548.38,-437.5 548.38,-443.5 542.38,-449.5 536.38,-449.5"/>
<text xml:space="preserve" text-anchor="middle" x="360" y="-436" font-family="Helvetica,sans-Serif" font-size="10.00">_append_topics_and_entities_from_partial()</text>
<text xml:space="preserve" text-anchor="middle" x="360" y="-424.75" font-family="Helvetica,sans-Serif" font-size="10.00">─────────────────────────────────────</text>
<text xml:space="preserve" text-anchor="middle" x="360" y="-413.5" font-family="Helvetica,sans-Serif" font-size="10.00">Topic nodes (slug&#45;deduped, capped)</text>
<text xml:space="preserve" text-anchor="middle" x="360" y="-402.25" font-family="Helvetica,sans-Serif" font-size="10.00">Entity nodes (kind&#45;deduped, capped)</text>
<text xml:space="preserve" text-anchor="middle" x="360" y="-391" font-family="Helvetica,sans-Serif" font-size="10.00">MENTIONS edges</text>
</g>
<!-- provider_check&#45;&gt;append_topics_entities -->
<g id="edge11" class="edge">
<title>provider_check&#45;&gt;append_topics_entities</title>
<path fill="none" stroke="black" d="M445.17,-513.47C431.42,-498.12 412.37,-476.85 395.77,-458.32"/>
<polygon fill="black" stroke="black" points="398.39,-455.99 389.11,-450.88 393.18,-460.66 398.39,-455.99"/>
<text xml:space="preserve" text-anchor="middle" x="428.44" y="-473.57" font-family="Helvetica,sans-Serif" font-size="9.00">Yes</text>
</g>
<!-- append_topics_entities&#45;&gt;merge_check -->
<g id="edge13" class="edge">
<title>append_topics_entities&#45;&gt;merge_check</title>
<path fill="none" stroke="black" d="M459.04,-384.8C500.24,-371.66 546.14,-357.03 579.53,-346.38"/>
<polygon fill="black" stroke="black" points="580.45,-349.77 588.91,-343.39 578.32,-343.1 580.45,-349.77"/>
</g>
<!-- merge_check&#45;&gt;append_pipeline -->
<g id="edge16" class="edge">
<title>merge_check&#45;&gt;append_pipeline</title>
<path fill="none" stroke="black" d="M653.16,-315.84C675.17,-304.56 707.91,-287.77 738.85,-271.9"/>
<polygon fill="black" stroke="black" points="740.17,-275.16 747.48,-267.48 736.98,-268.93 740.17,-275.16"/>
<text xml:space="preserve" text-anchor="middle" x="738.83" y="-285.7" font-family="Helvetica,sans-Serif" font-size="9.00">Yes (default)</text>
</g>
<!-- artifact -->
<g id="node14" class="node">
<title>artifact</title>
<path fill="#d1ecf1" stroke="black" d="M855.86,-151C855.86,-151 515.79,-151 515.79,-151 509.79,-151 500.63,-145.9 497.47,-140.8 497.47,-140.8 416.46,-10.2 416.46,-10.2 413.3,-5.1 416.14,0 422.14,0 422.14,0 762.21,0 762.21,0 768.21,0 777.37,-5.1 780.53,-10.2 780.53,-10.2 861.54,-140.8 861.54,-140.8 864.7,-145.9 861.86,-151 855.86,-151"/>
<text xml:space="preserve" text-anchor="middle" x="639" y="-99.75" font-family="Helvetica,sans-Serif" font-size="10.00">KG Artifact (kg.json)</text>
<text xml:space="preserve" text-anchor="middle" x="639" y="-88.5" font-family="Helvetica,sans-Serif" font-size="10.00">─────────────────────</text>
<text xml:space="preserve" text-anchor="middle" x="639" y="-77.25" font-family="Helvetica,sans-Serif" font-size="10.00">schema_version: 1.1</text>
<text xml:space="preserve" text-anchor="middle" x="639" y="-66" font-family="Helvetica,sans-Serif" font-size="10.00">extraction: {model_version, extracted_at}</text>
<text xml:space="preserve" text-anchor="middle" x="639" y="-54.75" font-family="Helvetica,sans-Serif" font-size="10.00">nodes: Episode, Topic, Entity</text>
<text xml:space="preserve" text-anchor="middle" x="639" y="-43.5" font-family="Helvetica,sans-Serif" font-size="10.00">edges: MENTIONS</text>
</g>
<!-- merge_check&#45;&gt;artifact -->
<g id="edge17" class="edge">
<title>merge_check&#45;&gt;artifact</title>
<path fill="none" stroke="black" d="M627.82,-311.88C629.27,-281.47 632.34,-216.72 634.9,-162.81"/>
<polygon fill="black" stroke="black" points="638.39,-163.16 635.37,-153 631.4,-162.82 638.39,-163.16"/>
<text xml:space="preserve" text-anchor="middle" x="655.72" y="-228.45" font-family="Helvetica,sans-Serif" font-size="9.00">No</text>
<text xml:space="preserve" text-anchor="middle" x="655.72" y="-218.7" font-family="Helvetica,sans-Serif" font-size="9.00">(LLM&#45;only)</text>
</g>
<!-- append_pipeline&#45;&gt;artifact -->
<g id="edge18" class="edge">
<title>append_pipeline&#45;&gt;artifact</title>
<path fill="none" stroke="black" d="M776.36,-187.69C765.14,-178.6 752.75,-168.58 740.15,-158.38"/>
<polygon fill="black" stroke="black" points="742.56,-155.82 732.59,-152.25 738.16,-161.27 742.56,-155.82"/>
</g>
<!-- stub_path&#45;&gt;merge_check -->
<g id="edge14" class="edge">
<title>stub_path&#45;&gt;merge_check</title>
<path fill="none" stroke="black" d="M131.75,-399.15C140.19,-391.07 151.25,-382.17 163,-377.25 225.46,-351.1 404.46,-339.48 520.99,-334.57"/>
<polygon fill="black" stroke="black" points="521.06,-338.07 530.91,-334.16 520.77,-331.08 521.06,-338.07"/>
</g>
</g>
</svg>
