<?xml version="1.0" encoding="UTF-8" standalone="no"?>
<!DOCTYPE svg PUBLIC "-//W3C//DTD SVG 1.1//EN"
 "http://www.w3.org/Graphics/SVG/1.1/DTD/svg11.dtd">
<!-- Generated by graphviz version 14.1.2 (20260124.0452)
 -->
<!-- Title: G Pages: 1 -->
<svg width="1045pt" height="701pt"
 viewBox="0.00 0.00 1045.00 701.00" xmlns="http://www.w3.org/2000/svg" xmlns:xlink="http://www.w3.org/1999/xlink">
<g id="graph0" class="graph" transform="scale(1 1) rotate(0) translate(4 697.25)">
<title>G</title>
<polygon fill="white" stroke="none" points="-4,4 -4,-697.25 1041.25,-697.25 1041.25,4 -4,4"/>
<g id="clust2" class="cluster">
<title>cluster_312e5491</title>
<polygon fill="none" stroke="black" stroke-dasharray="1,5" points="61.12,-122.25 61.12,-685.25 1029.25,-685.25 1029.25,-122.25 61.12,-122.25"/>
<text xml:space="preserve" text-anchor="middle" x="545.19" y="-667.95" font-family="Times,serif" font-size="14.00">File: orchestration</text>
</g>
<!-- Legend -->
<g id="node1" class="node">
<title>Legend</title>
<polygon fill="none" stroke="black" points="1,-95 1,-113.5 265,-113.5 265,-95 1,-95"/>
<text xml:space="preserve" text-anchor="start" x="80.88" y="-99.2" font-family="Times,serif" font-size="14.00">Code2flow Legend</text>
<polygon fill="none" stroke="black" points="1,-1 1,-95 265,-95 265,-1 1,-1"/>
<polygon fill="none" stroke="black" points="3,-70.5 3,-93 213,-93 213,-70.5 3,-70.5"/>
<text xml:space="preserve" text-anchor="start" x="62.25" y="-76.7" font-family="Times,serif" font-size="14.00">Regular function</text>
<polygon fill="#cccccc" stroke="none" points="213,-70.5 213,-93 263,-93 263,-70.5 213,-70.5"/>
<polygon fill="none" stroke="black" points="213,-70.5 213,-93 263,-93 263,-70.5 213,-70.5"/>
<polygon fill="none" stroke="black" points="3,-48 3,-70.5 213,-70.5 213,-48 3,-48"/>
<text xml:space="preserve" text-anchor="start" x="14.25" y="-54.2" font-family="Times,serif" font-size="14.00">Trunk function (nothing calls this)</text>
<polygon fill="#966f33" stroke="none" points="213,-48 213,-70.5 263,-70.5 263,-48 213,-48"/>
<polygon fill="none" stroke="black" points="213,-48 213,-70.5 263,-70.5 263,-48 213,-48"/>
<polygon fill="none" stroke="black" points="3,-25.5 3,-48 213,-48 213,-25.5 3,-25.5"/>
<text xml:space="preserve" text-anchor="start" x="6" y="-31.7" font-family="Times,serif" font-size="14.00">Leaf function (this calls nothing else)</text>
<polygon fill="#6db33f" stroke="none" points="213,-25.5 213,-48 263,-48 263,-25.5 213,-25.5"/>
<polygon fill="none" stroke="black" points="213,-25.5 213,-48 263,-48 263,-25.5 213,-25.5"/>
<polygon fill="none" stroke="black" points="3,-3 3,-25.5 213,-25.5 213,-3 3,-3"/>
<text xml:space="preserve" text-anchor="start" x="72.38" y="-9.2" font-family="Times,serif" font-size="14.00">Function call</text>
<polygon fill="none" stroke="black" points="213,-3 213,-25.5 263,-25.5 263,-3 213,-3"/>
<text xml:space="preserve" text-anchor="start" x="230.88" y="-9.2" font-family="Times,serif" font-size="14.00">→</text>
<polygon fill="none" stroke="black" points="2,-2 2,-94 264,-94 264,-2 2,-2"/>
<polygon fill="none" stroke="black" points="0,0 0,-114.5 266,-114.5 266,0 0,0"/>
</g>
<!-- node_8869c3b8 -->
<g id="node2" class="node">
<title>node_8869c3b8</title>
<path fill="#6db33f" stroke="black" d="M788.88,-436.25C788.88,-436.25 616.88,-436.25 616.88,-436.25 610.88,-436.25 604.88,-430.25 604.88,-424.25 604.88,-424.25 604.88,-412.25 604.88,-412.25 604.88,-406.25 610.88,-400.25 616.88,-400.25 616.88,-400.25 788.88,-400.25 788.88,-400.25 794.88,-400.25 800.88,-406.25 800.88,-412.25 800.88,-412.25 800.88,-424.25 800.88,-424.25 800.88,-430.25 794.88,-436.25 788.88,-436.25"/>
<text xml:space="preserve" text-anchor="middle" x="702.88" y="-413.2" font-family="Times,serif" font-size="14.00">590: _both_providers_use_mps()</text>
</g>
<!-- node_d95d36cb -->
<g id="node3" class="node">
<title>node_d95d36cb</title>
<path fill="#6db33f" stroke="black" d="M493.88,-166.25C493.88,-166.25 358.62,-166.25 358.62,-166.25 352.62,-166.25 346.62,-160.25 346.62,-154.25 346.62,-154.25 346.62,-142.25 346.62,-142.25 346.62,-136.25 352.62,-130.25 358.62,-130.25 358.62,-130.25 493.88,-130.25 493.88,-130.25 499.88,-130.25 505.88,-136.25 505.88,-142.25 505.88,-142.25 505.88,-154.25 505.88,-154.25 505.88,-160.25 499.88,-166.25 493.88,-166.25"/>
<text xml:space="preserve" text-anchor="middle" x="426.25" y="-143.2" font-family="Times,serif" font-size="14.00">978: _cleanup_providers()</text>
</g>
<!-- node_4ecbcc32 -->
<g id="node4" class="node">
<title>node_4ecbcc32</title>
<path fill="#cccccc" stroke="black" d="M499.12,-220.25C499.12,-220.25 353.38,-220.25 353.38,-220.25 347.38,-220.25 341.38,-214.25 341.38,-208.25 341.38,-208.25 341.38,-196.25 341.38,-196.25 341.38,-190.25 347.38,-184.25 353.38,-184.25 353.38,-184.25 499.12,-184.25 499.12,-184.25 505.12,-184.25 511.12,-190.25 511.12,-196.25 511.12,-196.25 511.12,-208.25 511.12,-208.25 511.12,-214.25 505.12,-220.25 499.12,-220.25"/>
<text xml:space="preserve" text-anchor="middle" x="426.25" y="-197.2" font-family="Times,serif" font-size="14.00">219: _create_all_providers()</text>
</g>
<!-- node_19d79747 -->
<g id="node6" class="node">
<title>node_19d79747</title>
<path fill="#cccccc" stroke="black" d="M785.88,-166.25C785.88,-166.25 619.88,-166.25 619.88,-166.25 613.88,-166.25 607.88,-160.25 607.88,-154.25 607.88,-154.25 607.88,-142.25 607.88,-142.25 607.88,-136.25 613.88,-130.25 619.88,-130.25 619.88,-130.25 785.88,-130.25 785.88,-130.25 791.88,-130.25 797.88,-136.25 797.88,-142.25 797.88,-142.25 797.88,-154.25 797.88,-154.25 797.88,-160.25 791.88,-166.25 785.88,-166.25"/>
<text xml:space="preserve" text-anchor="middle" x="702.88" y="-143.2" font-family="Times,serif" font-size="14.00">122: _create_speaker_detector()</text>
</g>
<!-- node_4ecbcc32&#45;&gt;node_19d79747 -->
<g id="edge1" class="edge">
<title>node_4ecbcc32&#45;&gt;node_19d79747</title>
<path fill="none" stroke="#56b4e9" stroke-width="2" d="M511.34,-193.25C515.65,-193.25 518.25,-193.25 518.25,-193.25 518.25,-193.25 518.25,-148.25 518.25,-148.25 518.25,-148.25 594.56,-148.25 594.56,-148.25"/>
<polygon fill="#56b4e9" stroke="#56b4e9" stroke-width="2" points="594.56,-151.75 604.56,-148.25 594.56,-144.75 594.56,-151.75"/>
</g>
<!-- node_85a5e9c3 -->
<g id="node7" class="node">
<title>node_85a5e9c3</title>
<path fill="#cccccc" stroke="black" d="M807.25,-220.25C807.25,-220.25 598.5,-220.25 598.5,-220.25 592.5,-220.25 586.5,-214.25 586.5,-208.25 586.5,-208.25 586.5,-196.25 586.5,-196.25 586.5,-190.25 592.5,-184.25 598.5,-184.25 598.5,-184.25 807.25,-184.25 807.25,-184.25 813.25,-184.25 819.25,-190.25 819.25,-196.25 819.25,-196.25 819.25,-208.25 819.25,-208.25 819.25,-214.25 813.25,-220.25 807.25,-220.25"/>
<text xml:space="preserve" text-anchor="middle" x="702.88" y="-197.2" font-family="Times,serif" font-size="14.00">164: _create_summarization_provider()</text>
</g>
<!-- node_4ecbcc32&#45;&gt;node_85a5e9c3 -->
<g id="edge2" class="edge">
<title>node_4ecbcc32&#45;&gt;node_85a5e9c3</title>
<path fill="none" stroke="#56b4e9" stroke-width="2" d="M511.5,-202.25C511.5,-202.25 573.08,-202.25 573.08,-202.25"/>
<polygon fill="#56b4e9" stroke="#56b4e9" stroke-width="2" points="573.08,-205.75 583.08,-202.25 573.08,-198.75 573.08,-205.75"/>
</g>
<!-- node_c59dfa2b -->
<g id="node8" class="node">
<title>node_c59dfa2b</title>
<path fill="#cccccc" stroke="black" d="M797.12,-274.25C797.12,-274.25 608.62,-274.25 608.62,-274.25 602.62,-274.25 596.62,-268.25 596.62,-262.25 596.62,-262.25 596.62,-250.25 596.62,-250.25 596.62,-244.25 602.62,-238.25 608.62,-238.25 608.62,-238.25 797.12,-238.25 797.12,-238.25 803.12,-238.25 809.12,-244.25 809.12,-250.25 809.12,-250.25 809.12,-262.25 809.12,-262.25 809.12,-268.25 803.12,-274.25 797.12,-274.25"/>
<text xml:space="preserve" text-anchor="middle" x="702.88" y="-251.2" font-family="Times,serif" font-size="14.00">88: _create_transcription_provider()</text>
</g>
<!-- node_4ecbcc32&#45;&gt;node_c59dfa2b -->
<g id="edge3" class="edge">
<title>node_4ecbcc32&#45;&gt;node_c59dfa2b</title>
<path fill="none" stroke="#56b4e9" stroke-width="2" d="M511.48,-211.25C519.81,-211.25 525.25,-211.25 525.25,-211.25 525.25,-211.25 525.25,-256.25 525.25,-256.25 525.25,-256.25 583.19,-256.25 583.19,-256.25"/>
<polygon fill="#56b4e9" stroke="#56b4e9" stroke-width="2" points="583.19,-259.75 593.19,-256.25 583.19,-252.75 583.19,-259.75"/>
</g>
<!-- node_1125b348 -->
<g id="node5" class="node">
<title>node_1125b348</title>
<path fill="#6db33f" stroke="black" d="M499.5,-274.25C499.5,-274.25 353,-274.25 353,-274.25 347,-274.25 341,-268.25 341,-262.25 341,-262.25 341,-250.25 341,-250.25 341,-244.25 347,-238.25 353,-238.25 353,-238.25 499.5,-238.25 499.5,-238.25 505.5,-238.25 511.5,-244.25 511.5,-250.25 511.5,-250.25 511.5,-262.25 511.5,-262.25 511.5,-268.25 505.5,-274.25 499.5,-274.25"/>
<text xml:space="preserve" text-anchor="middle" x="426.25" y="-251.2" font-family="Times,serif" font-size="14.00">904: _create_run_manifest()</text>
</g>
<!-- node_db13f745 -->
<g id="node11" class="node">
<title>node_db13f745</title>
<path fill="#6db33f" stroke="black" d="M1009.25,-220.25C1009.25,-220.25 867.25,-220.25 867.25,-220.25 861.25,-220.25 855.25,-214.25 855.25,-208.25 855.25,-208.25 855.25,-196.25 855.25,-196.25 855.25,-190.25 861.25,-184.25 867.25,-184.25 867.25,-184.25 1009.25,-184.25 1009.25,-184.25 1015.25,-184.25 1021.25,-190.25 1021.25,-196.25 1021.25,-196.25 1021.25,-208.25 1021.25,-208.25 1021.25,-214.25 1015.25,-220.25 1009.25,-220.25"/>
<text xml:space="preserve" text-anchor="middle" x="938.25" y="-197.2" font-family="Times,serif" font-size="14.00">64: _get_factory_function()</text>
</g>
<!-- node_19d79747&#45;&gt;node_db13f745 -->
<g id="edge4" class="edge">
<title>node_19d79747&#45;&gt;node_db13f745</title>
<path fill="none" stroke="#cc79a7" stroke-width="2" d="M798.27,-148.25C863.52,-148.25 938.25,-148.25 938.25,-148.25 938.25,-148.25 938.25,-170.94 938.25,-170.94"/>
<polygon fill="#cc79a7" stroke="#cc79a7" stroke-width="2" points="934.75,-170.94 938.25,-180.94 941.75,-170.94 934.75,-170.94"/>
</g>
<!-- node_85a5e9c3&#45;&gt;node_db13f745 -->
<g id="edge5" class="edge">
<title>node_85a5e9c3&#45;&gt;node_db13f745</title>
<path fill="none" stroke="#009e73" stroke-width="2" d="M819.53,-202.25C819.53,-202.25 841.78,-202.25 841.78,-202.25"/>
<polygon fill="#009e73" stroke="#009e73" stroke-width="2" points="841.78,-205.75 851.78,-202.25 841.78,-198.75 841.78,-205.75"/>
</g>
<!-- node_c59dfa2b&#45;&gt;node_db13f745 -->
<g id="edge6" class="edge">
<title>node_c59dfa2b&#45;&gt;node_db13f745</title>
<path fill="none" stroke="#009e73" stroke-width="2" d="M809.54,-256.25C871.82,-256.25 938.25,-256.25 938.25,-256.25 938.25,-256.25 938.25,-233.56 938.25,-233.56"/>
<polygon fill="#009e73" stroke="#009e73" stroke-width="2" points="941.75,-233.56 938.25,-223.56 934.75,-233.56 941.75,-233.56"/>
</g>
<!-- node_82159a3e -->
<g id="node9" class="node">
<title>node_82159a3e</title>
<path fill="#6db33f" stroke="black" d="M520.88,-328.25C520.88,-328.25 331.62,-328.25 331.62,-328.25 325.62,-328.25 319.62,-322.25 319.62,-316.25 319.62,-316.25 319.62,-304.25 319.62,-304.25 319.62,-298.25 325.62,-292.25 331.62,-292.25 331.62,-292.25 520.88,-292.25 520.88,-292.25 526.88,-292.25 532.88,-298.25 532.88,-304.25 532.88,-304.25 532.88,-316.25 532.88,-316.25 532.88,-322.25 526.88,-328.25 520.88,-328.25"/>
<text xml:space="preserve" text-anchor="middle" x="426.25" y="-305.2" font-family="Times,serif" font-size="14.00">778: _fetch_and_prepare_episodes()</text>
</g>
<!-- node_61eddd8b -->
<g id="node10" class="node">
<title>node_61eddd8b</title>
<path fill="#cccccc" stroke="black" d="M492.75,-382.25C492.75,-382.25 359.75,-382.25 359.75,-382.25 353.75,-382.25 347.75,-376.25 347.75,-370.25 347.75,-370.25 347.75,-358.25 347.75,-358.25 347.75,-352.25 353.75,-346.25 359.75,-346.25 359.75,-346.25 492.75,-346.25 492.75,-346.25 498.75,-346.25 504.75,-352.25 504.75,-358.25 504.75,-358.25 504.75,-370.25 504.75,-370.25 504.75,-376.25 498.75,-382.25 492.75,-382.25"/>
<text xml:space="preserve" text-anchor="middle" x="426.25" y="-359.2" font-family="Times,serif" font-size="14.00">1025: _finalize_pipeline()</text>
</g>
<!-- node_6c50a6f6 -->
<g id="node13" class="node">
<title>node_6c50a6f6</title>
<path fill="#6db33f" stroke="black" d="M774.25,-382.25C774.25,-382.25 631.5,-382.25 631.5,-382.25 625.5,-382.25 619.5,-376.25 619.5,-370.25 619.5,-370.25 619.5,-358.25 619.5,-358.25 619.5,-352.25 625.5,-346.25 631.5,-346.25 631.5,-346.25 774.25,-346.25 774.25,-346.25 780.25,-346.25 786.25,-352.25 786.25,-358.25 786.25,-358.25 786.25,-370.25 786.25,-370.25 786.25,-376.25 780.25,-382.25 774.25,-382.25"/>
<text xml:space="preserve" text-anchor="middle" x="702.88" y="-359.2" font-family="Times,serif" font-size="14.00">374: _log_episode_results()</text>
</g>
<!-- node_61eddd8b&#45;&gt;node_6c50a6f6 -->
<g id="edge7" class="edge">
<title>node_61eddd8b&#45;&gt;node_6c50a6f6</title>
<path fill="none" stroke="#009e73" stroke-width="2" d="M505.15,-364.25C505.15,-364.25 606.01,-364.25 606.01,-364.25"/>
<polygon fill="#009e73" stroke="#009e73" stroke-width="2" points="606.01,-367.75 616.01,-364.25 606.01,-360.75 606.01,-367.75"/>
</g>
<!-- node_5edfb07b -->
<g id="node12" class="node">
<title>node_5edfb07b</title>
<path fill="#6db33f" stroke="black" d="M790,-517.25C790,-517.25 615.75,-517.25 615.75,-517.25 609.75,-517.25 603.75,-511.25 603.75,-505.25 603.75,-505.25 603.75,-493.25 603.75,-493.25 603.75,-487.25 609.75,-481.25 615.75,-481.25 615.75,-481.25 790,-481.25 790,-481.25 796,-481.25 802,-487.25 802,-493.25 802,-493.25 802,-505.25 802,-505.25 802,-511.25 796,-517.25 790,-517.25"/>
<text xml:space="preserve" text-anchor="middle" x="702.88" y="-494.2" font-family="Times,serif" font-size="14.00">417: _log_effective_parallelism()</text>
</g>
<!-- node_31764a4f -->
<g id="node14" class="node">
<title>node_31764a4f</title>
<path fill="#6db33f" stroke="black" d="M787,-571.25C787,-571.25 618.75,-571.25 618.75,-571.25 612.75,-571.25 606.75,-565.25 606.75,-559.25 606.75,-559.25 606.75,-547.25 606.75,-547.25 606.75,-541.25 612.75,-535.25 618.75,-535.25 618.75,-535.25 787,-535.25 787,-535.25 793,-535.25 799,-541.25 799,-547.25 799,-547.25 799,-559.25 799,-559.25 799,-565.25 793,-571.25 787,-571.25"/>
<text xml:space="preserve" text-anchor="middle" x="702.88" y="-548.2" font-family="Times,serif" font-size="14.00">240: _log_provider_ownership()</text>
</g>
<!-- node_a1d6769d -->
<g id="node15" class="node">
<title>node_a1d6769d</title>
<path fill="#cccccc" stroke="black" d="M538.5,-436.25C538.5,-436.25 314,-436.25 314,-436.25 308,-436.25 302,-430.25 302,-424.25 302,-424.25 302,-412.25 302,-412.25 302,-406.25 308,-400.25 314,-400.25 314,-400.25 538.5,-400.25 538.5,-400.25 544.5,-400.25 550.5,-406.25 550.5,-412.25 550.5,-412.25 550.5,-424.25 550.5,-424.25 550.5,-430.25 544.5,-436.25 538.5,-436.25"/>
<text xml:space="preserve" text-anchor="middle" x="426.25" y="-413.2" font-family="Times,serif" font-size="14.00">1218: _process_episodes_with_threading()</text>
</g>
<!-- node_a1d6769d&#45;&gt;node_8869c3b8 -->
<g id="edge8" class="edge">
<title>node_a1d6769d&#45;&gt;node_8869c3b8</title>
<path fill="none" stroke="#0072b2" stroke-width="2" d="M550.81,-418.25C550.81,-418.25 591.68,-418.25 591.68,-418.25"/>
<polygon fill="#0072b2" stroke="#0072b2" stroke-width="2" points="591.68,-421.75 601.68,-418.25 591.68,-414.75 591.68,-421.75"/>
</g>
<!-- node_bfb6faf9 -->
<g id="node16" class="node">
<title>node_bfb6faf9</title>
<path fill="#6db33f" stroke="black" d="M497.62,-490.25C497.62,-490.25 354.88,-490.25 354.88,-490.25 348.88,-490.25 342.88,-484.25 342.88,-478.25 342.88,-478.25 342.88,-466.25 342.88,-466.25 342.88,-460.25 348.88,-454.25 354.88,-454.25 354.88,-454.25 497.62,-454.25 497.62,-454.25 503.62,-454.25 509.62,-460.25 509.62,-466.25 509.62,-466.25 509.62,-478.25 509.62,-478.25 509.62,-484.25 503.62,-490.25 497.62,-490.25"/>
<text xml:space="preserve" text-anchor="middle" x="426.25" y="-467.2" font-family="Times,serif" font-size="14.00">749: _setup_jsonl_emitter()</text>
</g>
<!-- node_e205b08d -->
<g id="node17" class="node">
<title>node_e205b08d</title>
<path fill="#cccccc" stroke="black" d="M519,-544.25C519,-544.25 333.5,-544.25 333.5,-544.25 327.5,-544.25 321.5,-538.25 321.5,-532.25 321.5,-532.25 321.5,-520.25 321.5,-520.25 321.5,-514.25 327.5,-508.25 333.5,-508.25 333.5,-508.25 519,-508.25 519,-508.25 525,-508.25 531,-514.25 531,-520.25 531,-520.25 531,-532.25 531,-532.25 531,-538.25 525,-544.25 519,-544.25"/>
<text xml:space="preserve" text-anchor="middle" x="426.25" y="-521.2" font-family="Times,serif" font-size="14.00">852: _setup_logging_and_devices()</text>
</g>
<!-- node_e205b08d&#45;&gt;node_5edfb07b -->
<g id="edge9" class="edge">
<title>node_e205b08d&#45;&gt;node_5edfb07b</title>
<path fill="none" stroke="#0072b2" stroke-width="2" d="M531.22,-512.75C531.22,-512.75 590.42,-512.75 590.42,-512.75"/>
<polygon fill="#0072b2" stroke="#0072b2" stroke-width="2" points="590.42,-516.25 600.42,-512.75 590.42,-509.25 590.42,-516.25"/>
</g>
<!-- node_e205b08d&#45;&gt;node_31764a4f -->
<g id="edge10" class="edge">
<title>node_e205b08d&#45;&gt;node_31764a4f</title>
<path fill="none" stroke="#0072b2" stroke-width="2" d="M531.22,-539.75C531.22,-539.75 593.59,-539.75 593.59,-539.75"/>
<polygon fill="#0072b2" stroke="#0072b2" stroke-width="2" points="593.59,-543.25 603.59,-539.75 593.59,-536.25 593.59,-543.25"/>
</g>
<!-- node_fc271dde -->
<g id="node18" class="node">
<title>node_fc271dde</title>
<path fill="#6db33f" stroke="black" d="M521.25,-598.25C521.25,-598.25 331.25,-598.25 331.25,-598.25 325.25,-598.25 319.25,-592.25 319.25,-586.25 319.25,-586.25 319.25,-574.25 319.25,-574.25 319.25,-568.25 325.25,-562.25 331.25,-562.25 331.25,-562.25 521.25,-562.25 521.25,-562.25 527.25,-562.25 533.25,-568.25 533.25,-574.25 533.25,-574.25 533.25,-586.25 533.25,-586.25 533.25,-592.25 527.25,-598.25 521.25,-598.25"/>
<text xml:space="preserve" text-anchor="middle" x="426.25" y="-575.2" font-family="Times,serif" font-size="14.00">722: _setup_pipeline_environment()</text>
</g>
<!-- node_7226c872 -->
<g id="node19" class="node">
<title>node_7226c872</title>
<path fill="#6db33f" stroke="black" d="M512.25,-652.25C512.25,-652.25 340.25,-652.25 340.25,-652.25 334.25,-652.25 328.25,-646.25 328.25,-640.25 328.25,-640.25 328.25,-628.25 328.25,-628.25 328.25,-622.25 334.25,-616.25 340.25,-616.25 340.25,-616.25 512.25,-616.25 512.25,-616.25 518.25,-616.25 524.25,-622.25 524.25,-628.25 524.25,-628.25 524.25,-640.25 524.25,-640.25 524.25,-646.25 518.25,-652.25 512.25,-652.25"/>
<text xml:space="preserve" text-anchor="middle" x="426.25" y="-629.2" font-family="Times,serif" font-size="14.00">937: _setup_pipeline_resources()</text>
</g>
<!-- node_11095657 -->
<g id="node20" class="node">
<title>node_11095657</title>
<path fill="#966f33" stroke="black" d="M184.88,-409.25C184.88,-409.25 81.12,-409.25 81.12,-409.25 75.12,-409.25 69.12,-403.25 69.12,-397.25 69.12,-397.25 69.12,-385.25 69.12,-385.25 69.12,-379.25 75.12,-373.25 81.12,-373.25 81.12,-373.25 184.88,-373.25 184.88,-373.25 190.88,-373.25 196.88,-379.25 196.88,-385.25 196.88,-385.25 196.88,-397.25 196.88,-397.25 196.88,-403.25 190.88,-409.25 184.88,-409.25"/>
<text xml:space="preserve" text-anchor="middle" x="133" y="-386.2" font-family="Times,serif" font-size="14.00">1542: run_pipeline()</text>
</g>
<!-- node_11095657&#45;&gt;node_d95d36cb -->
<g id="edge11" class="edge">
<title>node_11095657&#45;&gt;node_d95d36cb</title>
<path fill="none" stroke="#cc79a7" stroke-width="2" d="M101.25,-372.99C101.25,-316.47 101.25,-148.25 101.25,-148.25 101.25,-148.25 333.3,-148.25 333.3,-148.25"/>
<polygon fill="#cc79a7" stroke="#cc79a7" stroke-width="2" points="333.3,-151.75 343.3,-148.25 333.3,-144.75 333.3,-151.75"/>
</g>
<!-- node_11095657&#45;&gt;node_4ecbcc32 -->
<g id="edge12" class="edge">
<title>node_11095657&#45;&gt;node_4ecbcc32</title>
<path fill="none" stroke="#cc79a7" stroke-width="2" d="M133.25,-372.78C133.25,-325.23 133.25,-202.25 133.25,-202.25 133.25,-202.25 328.08,-202.25 328.08,-202.25"/>
<polygon fill="#cc79a7" stroke="#cc79a7" stroke-width="2" points="328.08,-205.75 338.08,-202.25 328.08,-198.75 328.08,-205.75"/>
</g>
<!-- node_11095657&#45;&gt;node_1125b348 -->
<g id="edge13" class="edge">
<title>node_11095657&#45;&gt;node_1125b348</title>
<path fill="none" stroke="#cc79a7" stroke-width="2" d="M165.25,-372.76C165.25,-335.79 165.25,-256.25 165.25,-256.25 165.25,-256.25 327.76,-256.25 327.76,-256.25"/>
<polygon fill="#cc79a7" stroke="#cc79a7" stroke-width="2" points="327.76,-259.75 337.76,-256.25 327.76,-252.75 327.76,-259.75"/>
</g>
<!-- node_11095657&#45;&gt;node_82159a3e -->
<g id="edge14" class="edge">
<title>node_11095657&#45;&gt;node_82159a3e</title>
<path fill="none" stroke="#cc79a7" stroke-width="2" d="M197.19,-376.25C255.76,-376.25 333.25,-376.25 333.25,-376.25 333.25,-376.25 333.25,-341.66 333.25,-341.66"/>
<polygon fill="#cc79a7" stroke="#cc79a7" stroke-width="2" points="336.75,-341.66 333.25,-331.66 329.75,-341.66 336.75,-341.66"/>
</g>
<!-- node_11095657&#45;&gt;node_61eddd8b -->
<g id="edge15" class="edge">
<title>node_11095657&#45;&gt;node_61eddd8b</title>
<path fill="none" stroke="#cc79a7" stroke-width="2" d="M197.35,-379.25C197.35,-379.25 334.39,-379.25 334.39,-379.25"/>
<polygon fill="#cc79a7" stroke="#cc79a7" stroke-width="2" points="334.39,-382.75 344.39,-379.25 334.39,-375.75 334.39,-382.75"/>
</g>
<!-- node_11095657&#45;&gt;node_a1d6769d -->
<g id="edge16" class="edge">
<title>node_11095657&#45;&gt;node_a1d6769d</title>
<path fill="none" stroke="#cc79a7" stroke-width="2" d="M197.35,-404.75C197.35,-404.75 288.48,-404.75 288.48,-404.75"/>
<polygon fill="#cc79a7" stroke="#cc79a7" stroke-width="2" points="288.48,-408.25 298.48,-404.75 288.48,-401.25 288.48,-408.25"/>
</g>
<!-- node_11095657&#45;&gt;node_bfb6faf9 -->
<g id="edge17" class="edge">
<title>node_11095657&#45;&gt;node_bfb6faf9</title>
<path fill="none" stroke="#cc79a7" stroke-width="2" d="M171.25,-409.63C171.25,-433.53 171.25,-472.25 171.25,-472.25 171.25,-472.25 329.37,-472.25 329.37,-472.25"/>
<polygon fill="#cc79a7" stroke="#cc79a7" stroke-width="2" points="329.37,-475.75 339.37,-472.25 329.37,-468.75 329.37,-475.75"/>
</g>
<!-- node_11095657&#45;&gt;node_e205b08d -->
<g id="edge18" class="edge">
<title>node_11095657&#45;&gt;node_e205b08d</title>
<path fill="none" stroke="#cc79a7" stroke-width="2" d="M146.25,-409.74C146.25,-446.71 146.25,-526.25 146.25,-526.25 146.25,-526.25 308.16,-526.25 308.16,-526.25"/>
<polygon fill="#cc79a7" stroke="#cc79a7" stroke-width="2" points="308.16,-529.75 318.16,-526.25 308.16,-522.75 308.16,-529.75"/>
</g>
<!-- node_11095657&#45;&gt;node_fc271dde -->
<g id="edge19" class="edge">
<title>node_11095657&#45;&gt;node_fc271dde</title>
<path fill="none" stroke="#cc79a7" stroke-width="2" d="M120.25,-409.72C120.25,-457.27 120.25,-580.25 120.25,-580.25 120.25,-580.25 305.77,-580.25 305.77,-580.25"/>
<polygon fill="#cc79a7" stroke="#cc79a7" stroke-width="2" points="305.77,-583.75 315.77,-580.25 305.77,-576.75 305.77,-583.75"/>
</g>
<!-- node_11095657&#45;&gt;node_7226c872 -->
<g id="edge20" class="edge">
<title>node_11095657&#45;&gt;node_7226c872</title>
<path fill="none" stroke="#cc79a7" stroke-width="2" d="M94.25,-409.51C94.25,-466.03 94.25,-634.25 94.25,-634.25 94.25,-634.25 314.96,-634.25 314.96,-634.25"/>
<polygon fill="#cc79a7" stroke="#cc79a7" stroke-width="2" points="314.96,-637.75 324.96,-634.25 314.96,-630.75 314.96,-637.75"/>
</g>
</g>
</svg>
