<?xml version="1.0" encoding="UTF-8" standalone="no"?>
<!DOCTYPE svg PUBLIC "-//W3C//DTD SVG 1.1//EN"
 "http://www.w3.org/Graphics/SVG/1.1/DTD/svg11.dtd">
<!-- Generated by graphviz version 14.1.2 (20260124.0452)
 -->
<!-- Title: G Pages: 1 -->
<svg width="866pt" height="622pt"
 viewBox="0.00 0.00 866.00 622.00" xmlns="http://www.w3.org/2000/svg" xmlns:xlink="http://www.w3.org/1999/xlink">
<g id="graph0" class="graph" transform="scale(1 1) rotate(0) translate(4 618)">
<title>G</title><style>.edge>path:hover{stroke-width:8}</style>
<polygon fill="white" stroke="none" points="-4,4 -4,-618 861.88,-618 861.88,4 -4,4"/>
<!-- anthropic -->
<g id="node1" class="node">
<title>anthropic</title><style>.edge>path:hover{stroke-width:8}</style>
<polygon fill="#d92626" stroke="black" points="55.75,-217 52.75,-221 31.75,-221 28.75,-217 0,-217 0,-181 55.75,-181 55.75,-217"/>
<text xml:space="preserve" text-anchor="middle" x="27.88" y="-195.12" font-family="Helvetica,sans-Serif" font-size="10.00" fill="#ffffff">anthropic</text>
</g>
<!-- podcast_scraper -->
<g id="node14" class="node">
<title>podcast_scraper</title><style>.edge>path:hover{stroke-width:8}</style>
<polygon fill="blue" stroke="black" points="661.88,-36 658.88,-40 637.88,-40 634.88,-36 573.88,-36 573.88,0 661.88,0 661.88,-36"/>
<text xml:space="preserve" text-anchor="middle" x="617.88" y="-14.12" font-family="Helvetica,sans-Serif" font-size="10.00" fill="white">podcast_scraper</text>
</g>
<!-- anthropic&#45;&gt;podcast_scraper -->
<g id="edge1" class="edge">
<title>anthropic&#45;&gt;podcast_scraper</title><style>.edge>path:hover{stroke-width:8}</style>
<path fill="none" stroke="black" d="M617.88,-72C620.93,-64.43 621.87,-55.75 621.79,-47.63"/>
<polygon fill="#d92626" stroke="black" points="625.3,-47.6 621.17,-37.84 618.31,-48.04 625.3,-47.6"/>
<path fill="none" stroke="black" d="M55.84,-184.18C58.85,-182.99 61.9,-181.9 64.88,-181 138.09,-158.94 354.19,-185.26 404.88,-128"/>
<path fill="none" stroke="black" d="M404.88,-126C469.54,-52.96 581.32,-163.44 617.88,-73"/>
</g>
<!-- defusedxml -->
<g id="node2" class="node">
<title>defusedxml</title><style>.edge>path:hover{stroke-width:8}</style>
<polygon fill="#b8593d" stroke="black" points="140,-217 137,-221 116,-221 113,-217 73.75,-217 73.75,-181 140,-181 140,-217"/>
<text xml:space="preserve" text-anchor="middle" x="106.88" y="-195.12" font-family="Helvetica,sans-Serif" font-size="10.00" fill="#ffffff">defusedxml</text>
</g>
<!-- defusedxml&#45;&gt;podcast_scraper -->
<g id="edge2" class="edge">
<title>defusedxml&#45;&gt;podcast_scraper</title><style>.edge>path:hover{stroke-width:8}</style>
<path fill="none" stroke="black" d="M140.15,-183.9C143.08,-182.85 146.01,-181.87 148.88,-181 260.07,-147.29 327.86,-215 404.88,-128"/>
</g>
<!-- dotenv -->
<g id="node3" class="node">
<title>dotenv</title><style>.edge>path:hover{stroke-width:8}</style>
<polygon fill="#c28047" stroke="black" points="211.88,-217 208.88,-221 187.88,-221 184.88,-217 157.88,-217 157.88,-181 211.88,-181 211.88,-217"/>
<text xml:space="preserve" text-anchor="middle" x="184.88" y="-195.12" font-family="Helvetica,sans-Serif" font-size="10.00" fill="#000000">dotenv</text>
</g>
<!-- dotenv&#45;&gt;podcast_scraper -->
<g id="edge3" class="edge">
<title>dotenv&#45;&gt;podcast_scraper</title><style>.edge>path:hover{stroke-width:8}</style>
<path fill="none" stroke="black" d="M212.07,-186.26C216.64,-184.42 221.37,-182.6 225.88,-181 304.08,-153.29 349.88,-190.12 404.88,-128"/>
</g>
<!-- faiss -->
<g id="node4" class="node">
<title>faiss</title><style>.edge>path:hover{stroke-width:8}</style>
<polygon fill="#b8923d" stroke="black" points="173.88,-361 170.88,-365 149.88,-365 146.88,-361 119.88,-361 119.88,-325 173.88,-325 173.88,-361"/>
<text xml:space="preserve" text-anchor="middle" x="146.88" y="-339.12" font-family="Helvetica,sans-Serif" font-size="10.00" fill="#000000">faiss</text>
</g>
<!-- faiss&#45;&gt;podcast_scraper -->
<g id="edge4" class="edge">
<title>faiss&#45;&gt;podcast_scraper</title><style>.edge>path:hover{stroke-width:8}</style>
<path fill="none" stroke="black" d="M174.32,-327.93C202.03,-312.77 240.66,-288.6 239.88,-272"/>
<path fill="none" stroke="black" d="M239.88,-270C238.41,-238.92 224.26,-226.91 239.88,-200"/>
</g>
<!-- httpx -->
<g id="node5" class="node">
<title>httpx</title><style>.edge>path:hover{stroke-width:8}</style>
<polygon fill="#cec33b" stroke="black" points="493.88,-289 490.88,-293 469.88,-293 466.88,-289 439.88,-289 439.88,-253 493.88,-253 493.88,-289"/>
<text xml:space="preserve" text-anchor="middle" x="466.88" y="-267.12" font-family="Helvetica,sans-Serif" font-size="10.00" fill="#000000">httpx</text>
</g>
<!-- openai -->
<g id="node12" class="node">
<title>openai</title><style>.edge>path:hover{stroke-width:8}</style>
<polygon fill="#06ef83" stroke="black" points="321.88,-217 318.88,-221 297.88,-221 294.88,-217 267.88,-217 267.88,-181 321.88,-181 321.88,-217"/>
<text xml:space="preserve" text-anchor="middle" x="294.88" y="-195.12" font-family="Helvetica,sans-Serif" font-size="10.00" fill="#000000">openai</text>
</g>
<!-- httpx&#45;&gt;openai -->
<g id="edge5" class="edge">
<title>httpx&#45;&gt;openai</title><style>.edge>path:hover{stroke-width:8}</style>
<path fill="none" stroke="black" d="M439.55,-258.61C434.99,-256.73 430.3,-254.8 425.88,-253 385.98,-236.75 375.77,-233.25 335.88,-217 334.77,-216.55 333.65,-216.09 332.51,-215.63"/>
<polygon fill="#cec33b" stroke="black" points="334.18,-212.53 323.6,-211.96 331.52,-219 334.18,-212.53"/>
</g>
<!-- httpx&#45;&gt;podcast_scraper -->
<g id="edge6" class="edge">
<title>httpx&#45;&gt;podcast_scraper</title><style>.edge>path:hover{stroke-width:8}</style>
<path fill="none" stroke="black" d="M439.7,-259.05C413.55,-247.89 376.85,-230.38 368.88,-217 347.03,-180.35 376.59,-159.95 404.88,-128"/>
</g>
<!-- huggingface_hub -->
<g id="node6" class="node">
<title>huggingface_hub</title><style>.edge>path:hover{stroke-width:8}</style>
<polygon fill="#c6e619" stroke="black" points="534.62,-614 531.62,-618 510.62,-618 507.62,-614 445.12,-614 445.12,-578 534.62,-578 534.62,-614"/>
<text xml:space="preserve" text-anchor="middle" x="489.88" y="-592.12" font-family="Helvetica,sans-Serif" font-size="10.00" fill="#000000">huggingface_hub</text>
</g>
<!-- huggingface_hub&#45;&gt;podcast_scraper -->
<g id="edge7" class="edge">
<title>huggingface_hub&#45;&gt;podcast_scraper</title><style>.edge>path:hover{stroke-width:8}</style>
<path fill="none" stroke="black" d="M475.88,-414C467.45,-384.05 480.85,-374.71 475.88,-344"/>
</g>
<!-- sentence_transformers -->
<g id="node19" class="node">
<title>sentence_transformers</title><style>.edge>path:hover{stroke-width:8}</style>
<polygon fill="blue" stroke="black" points="383.75,-289 380.75,-293 359.75,-293 356.75,-289 268,-289 268,-253 383.75,-253 383.75,-289"/>
<text xml:space="preserve" text-anchor="middle" x="325.88" y="-267.12" font-family="Helvetica,sans-Serif" font-size="10.00" fill="white">sentence_transformers</text>
</g>
<!-- huggingface_hub&#45;&gt;sentence_transformers -->
<g id="edge8" class="edge">
<title>huggingface_hub&#45;&gt;sentence_transformers</title><style>.edge>path:hover{stroke-width:8}</style>
<path fill="none" stroke="black" d="M475.88,-414C462.34,-365.89 404.8,-391.02 387.88,-344"/>
<path fill="none" stroke="black" d="M475.88,-486C467.13,-456.14 484.3,-445.95 475.88,-416"/>
</g>
<!-- transformers -->
<g id="node23" class="node">
<title>transformers</title><style>.edge>path:hover{stroke-width:8}</style>
<polygon fill="blue" stroke="black" points="448.25,-433 445.25,-437 424.25,-437 421.25,-433 377.5,-433 377.5,-397 448.25,-397 448.25,-433"/>
<text xml:space="preserve" text-anchor="middle" x="412.88" y="-411.12" font-family="Helvetica,sans-Serif" font-size="10.00" fill="white">transformers</text>
</g>
<!-- huggingface_hub&#45;&gt;transformers -->
<g id="edge9" class="edge">
<title>huggingface_hub&#45;&gt;transformers</title><style>.edge>path:hover{stroke-width:8}</style>
<path fill="none" stroke="black" d="M475.88,-486C472.14,-468.15 459.7,-452.56 446.84,-440.65"/>
<polygon fill="#c6e619" stroke="black" points="449.42,-438.26 439.57,-434.37 444.85,-443.55 449.42,-438.26"/>
<path fill="none" stroke="black" d="M488.44,-577.82C486.48,-556.56 482.43,-519.36 475.88,-488"/>
</g>
<!-- jinja2 -->
<g id="node7" class="node">
<title>jinja2</title><style>.edge>path:hover{stroke-width:8}</style>
<polygon fill="#90b653" stroke="black" points="431.88,-217 428.88,-221 407.88,-221 404.88,-217 377.88,-217 377.88,-181 431.88,-181 431.88,-217"/>
<text xml:space="preserve" text-anchor="middle" x="404.88" y="-195.12" font-family="Helvetica,sans-Serif" font-size="10.00" fill="#000000">jinja2</text>
</g>
<!-- jinja2&#45;&gt;podcast_scraper -->
<g id="edge10" class="edge">
<title>jinja2&#45;&gt;podcast_scraper</title><style>.edge>path:hover{stroke-width:8}</style>
<path fill="none" stroke="black" d="M399.12,-180.8C395.06,-165.08 392.31,-142.2 404.88,-128"/>
</g>
<!-- jiwer -->
<g id="node8" class="node">
<title>jiwer</title><style>.edge>path:hover{stroke-width:8}</style>
<polygon fill="#79b653" stroke="black" points="503.88,-217 500.88,-221 479.88,-221 476.88,-217 449.88,-217 449.88,-181 503.88,-181 503.88,-217"/>
<text xml:space="preserve" text-anchor="middle" x="476.88" y="-195.12" font-family="Helvetica,sans-Serif" font-size="10.00" fill="#000000">jiwer</text>
</g>
<!-- jiwer&#45;&gt;podcast_scraper -->
<g id="edge11" class="edge">
<title>jiwer&#45;&gt;podcast_scraper</title><style>.edge>path:hover{stroke-width:8}</style>
<path fill="none" stroke="black" d="M450.65,-180.58C426.45,-163.49 395.57,-138.51 404.88,-128"/>
</g>
<!-- jsonschema -->
<g id="node9" class="node">
<title>jsonschema</title><style>.edge>path:hover{stroke-width:8}</style>
<polygon fill="#41d926" stroke="black" points="590.12,-217 587.12,-221 566.12,-221 563.12,-217 521.62,-217 521.62,-181 590.12,-181 590.12,-217"/>
<text xml:space="preserve" text-anchor="middle" x="555.88" y="-195.12" font-family="Helvetica,sans-Serif" font-size="10.00" fill="#000000">jsonschema</text>
</g>
<!-- jsonschema&#45;&gt;podcast_scraper -->
<g id="edge12" class="edge">
<title>jsonschema&#45;&gt;podcast_scraper</title><style>.edge>path:hover{stroke-width:8}</style>
<path fill="none" stroke="black" d="M521.18,-183.81C475.28,-164.78 400.61,-132.81 404.88,-128"/>
</g>
<!-- nltk -->
<g id="node10" class="node">
<title>nltk</title><style>.edge>path:hover{stroke-width:8}</style>
<polygon fill="blue" stroke="black" points="99.88,-433 96.88,-437 75.88,-437 72.88,-433 45.88,-433 45.88,-397 99.88,-397 99.88,-433"/>
<text xml:space="preserve" text-anchor="middle" x="72.88" y="-411.12" font-family="Helvetica,sans-Serif" font-size="10.00" fill="white">nltk</text>
</g>
<!-- nltk&#45;&gt;podcast_scraper -->
<g id="edge13" class="edge">
<title>nltk&#45;&gt;podcast_scraper</title><style>.edge>path:hover{stroke-width:8}</style>
<path fill="none" stroke="black" d="M62.84,-396.7C55.9,-382.51 48.75,-361.92 53.88,-344"/>
<path fill="none" stroke="black" d="M239.88,-198C245.57,-188.21 249.15,-186.82 258.88,-181 318.12,-145.56 359.57,-180.08 404.88,-128"/>
<path fill="none" stroke="black" d="M53.88,-342C68.43,-291.15 89.72,-283.58 132.88,-253 176.17,-222.31 213.18,-245.87 239.88,-200"/>
</g>
<!-- rouge_score -->
<g id="node18" class="node">
<title>rouge_score</title><style>.edge>path:hover{stroke-width:8}</style>
<polygon fill="#4751c2" stroke="black" points="211.5,-289 208.5,-293 187.5,-293 184.5,-289 142.25,-289 142.25,-253 211.5,-253 211.5,-289"/>
<text xml:space="preserve" text-anchor="middle" x="176.88" y="-267.12" font-family="Helvetica,sans-Serif" font-size="10.00" fill="#ffffff">rouge_score</text>
</g>
<!-- nltk&#45;&gt;rouge_score -->
<g id="edge14" class="edge">
<title>nltk&#45;&gt;rouge_score</title><style>.edge>path:hover{stroke-width:8}</style>
<path fill="none" stroke="black" d="M53.88,-342C63.45,-308.55 100.07,-290.69 130.88,-281.4"/>
<polygon fill="blue" stroke="black" points="131.74,-284.8 140.45,-278.76 129.88,-278.05 131.74,-284.8"/>
</g>
<!-- numpy -->
<g id="node11" class="node">
<title>numpy</title><style>.edge>path:hover{stroke-width:8}</style>
<polygon fill="#06f951" stroke="black" points="239.88,-505 236.88,-509 215.88,-509 212.88,-505 185.88,-505 185.88,-469 239.88,-469 239.88,-505"/>
<text xml:space="preserve" text-anchor="middle" x="212.88" y="-483.12" font-family="Helvetica,sans-Serif" font-size="10.00" fill="#000000">numpy</text>
</g>
<!-- numpy&#45;&gt;faiss -->
<g id="edge15" class="edge">
<title>numpy&#45;&gt;faiss</title><style>.edge>path:hover{stroke-width:8}</style>
<path fill="none" stroke="black" d="M165.88,-414C160.04,-400.87 155.63,-385.54 152.54,-372.58"/>
<polygon fill="#06f951" stroke="black" points="155.99,-371.95 150.39,-362.96 149.15,-373.48 155.99,-371.95"/>
</g>
<!-- numpy&#45;&gt;nltk -->
<g id="edge16" class="edge">
<title>numpy&#45;&gt;nltk</title><style>.edge>path:hover{stroke-width:8}</style>
<path fill="none" stroke="black" d="M185.55,-472.34C164.06,-461.59 133.9,-446.51 110.19,-434.66"/>
<polygon fill="#06f951" stroke="black" points="112,-431.65 101.49,-430.31 108.86,-437.91 112,-431.65"/>
</g>
<!-- numpy&#45;&gt;podcast_scraper -->
<g id="edge17" class="edge">
<title>numpy&#45;&gt;podcast_scraper</title><style>.edge>path:hover{stroke-width:8}</style>
<path fill="none" stroke="black" d="M165.88,-414C152.62,-380.98 241.55,-307.54 239.88,-272"/>
</g>
<!-- numpy&#45;&gt;rouge_score -->
<g id="edge18" class="edge">
<title>numpy&#45;&gt;rouge_score</title><style>.edge>path:hover{stroke-width:8}</style>
<path fill="none" stroke="black" d="M165.88,-414C152.09,-382.98 124.16,-392.24 110.88,-361 104.62,-346.28 103.96,-339.43 110.88,-325 116.32,-313.64 125.53,-303.94 135.36,-296.07"/>
<polygon fill="#06f951" stroke="black" points="137.28,-299 143.26,-290.25 133.13,-293.36 137.28,-299"/>
<path fill="none" stroke="black" d="M198.27,-468.76C187.62,-455.26 173.73,-435.56 165.88,-416"/>
</g>
<!-- numpy&#45;&gt;sentence_transformers -->
<g id="edge19" class="edge">
<title>numpy&#45;&gt;sentence_transformers</title><style>.edge>path:hover{stroke-width:8}</style>
<path fill="none" stroke="black" d="M236.64,-468.56C285.25,-432.66 391.22,-353.06 387.88,-344"/>
<path fill="none" stroke="black" d="M387.88,-342C381.71,-324.87 369.05,-309.32 356.77,-297.25"/>
<polygon fill="#06f951" stroke="black" points="359.23,-294.75 349.52,-290.5 354.46,-299.88 359.23,-294.75"/>
</g>
<!-- torch -->
<g id="node21" class="node">
<title>torch</title><style>.edge>path:hover{stroke-width:8}</style>
<polygon fill="#9506ef" stroke="black" points="266.88,-433 263.88,-437 242.88,-437 239.88,-433 212.88,-433 212.88,-397 266.88,-397 266.88,-433"/>
<text xml:space="preserve" text-anchor="middle" x="239.88" y="-411.12" font-family="Helvetica,sans-Serif" font-size="10.00" fill="#ffffff">torch</text>
</g>
<!-- numpy&#45;&gt;torch -->
<g id="edge20" class="edge">
<title>numpy&#45;&gt;torch</title><style>.edge>path:hover{stroke-width:8}</style>
<path fill="none" stroke="black" d="M219.55,-468.7C222.46,-461.15 225.94,-452.12 229.2,-443.68"/>
<polygon fill="#06f951" stroke="black" points="232.4,-445.11 232.73,-434.52 225.87,-442.59 232.4,-445.11"/>
</g>
<!-- openai&#45;&gt;podcast_scraper -->
<g id="edge21" class="edge">
<title>openai&#45;&gt;podcast_scraper</title><style>.edge>path:hover{stroke-width:8}</style>
<path fill="none" stroke="black" d="M322.34,-185.95C346.66,-174.13 381.77,-154.1 404.88,-128"/>
</g>
<!-- platformdirs -->
<g id="node13" class="node">
<title>platformdirs</title><style>.edge>path:hover{stroke-width:8}</style>
<polygon fill="#40c0a2" stroke="black" points="675.38,-217 672.38,-221 651.38,-221 648.38,-217 608.38,-217 608.38,-181 675.38,-181 675.38,-217"/>
<text xml:space="preserve" text-anchor="middle" x="641.88" y="-195.12" font-family="Helvetica,sans-Serif" font-size="10.00" fill="#000000">platformdirs</text>
</g>
<!-- platformdirs&#45;&gt;podcast_scraper -->
<g id="edge22" class="edge">
<title>platformdirs&#45;&gt;podcast_scraper</title><style>.edge>path:hover{stroke-width:8}</style>
<path fill="none" stroke="black" d="M608.2,-184.28C605.07,-183.13 601.92,-182.01 598.88,-181 514.08,-152.75 345.63,-194.93 404.88,-128"/>
</g>
<!-- pydantic -->
<g id="node15" class="node">
<title>pydantic</title><style>.edge>path:hover{stroke-width:8}</style>
<polygon fill="#06b9ef" stroke="black" points="675.88,-289 672.88,-293 651.88,-293 648.88,-289 621.88,-289 621.88,-253 675.88,-253 675.88,-289"/>
<text xml:space="preserve" text-anchor="middle" x="648.88" y="-267.12" font-family="Helvetica,sans-Serif" font-size="10.00" fill="#000000">pydantic</text>
</g>
<!-- pydantic&#45;&gt;podcast_scraper -->
<g id="edge23" class="edge">
<title>pydantic&#45;&gt;podcast_scraper</title><style>.edge>path:hover{stroke-width:8}</style>
<path fill="none" stroke="black" d="M676.06,-253.67C694.76,-240.2 714.46,-220.1 703.88,-200"/>
<path fill="none" stroke="black" d="M703.88,-198C640.27,-77.25 314.41,-230.19 404.88,-128"/>
</g>
<!-- requests -->
<g id="node16" class="node">
<title>requests</title><style>.edge>path:hover{stroke-width:8}</style>
<polygon fill="blue" stroke="black" points="785.88,-217 782.88,-221 761.88,-221 758.88,-217 731.88,-217 731.88,-181 785.88,-181 785.88,-217"/>
<text xml:space="preserve" text-anchor="middle" x="758.88" y="-195.12" font-family="Helvetica,sans-Serif" font-size="10.00" fill="white">requests</text>
</g>
<!-- requests&#45;&gt;podcast_scraper -->
<g id="edge24" class="edge">
<title>requests&#45;&gt;podcast_scraper</title><style>.edge>path:hover{stroke-width:8}</style>
<path fill="none" stroke="black" d="M731.39,-185.61C726.93,-183.89 722.32,-182.28 717.88,-181 650.08,-161.48 358.11,-180.82 404.88,-128"/>
</g>
<!-- rich -->
<g id="node17" class="node">
<title>rich</title><style>.edge>path:hover{stroke-width:8}</style>
<polygon fill="blue" stroke="black" points="644.88,-145 641.88,-149 620.88,-149 617.88,-145 590.88,-145 590.88,-109 644.88,-109 644.88,-145"/>
<text xml:space="preserve" text-anchor="middle" x="617.88" y="-123.12" font-family="Helvetica,sans-Serif" font-size="10.00" fill="white">rich</text>
</g>
<!-- rich&#45;&gt;podcast_scraper -->
<g id="edge25" class="edge">
<title>rich&#45;&gt;podcast_scraper</title><style>.edge>path:hover{stroke-width:8}</style>
<path fill="none" stroke="black" d="M614.67,-108.67C613.47,-98 613.32,-84.26 617.88,-73"/>
</g>
<!-- rouge_score&#45;&gt;podcast_scraper -->
<g id="edge26" class="edge">
<title>rouge_score&#45;&gt;podcast_scraper</title><style>.edge>path:hover{stroke-width:8}</style>
<path fill="none" stroke="black" d="M196.3,-252.67C210.11,-239.42 228.22,-220.08 239.88,-200"/>
</g>
<!-- sentence_transformers&#45;&gt;podcast_scraper -->
<g id="edge27" class="edge">
<title>sentence_transformers&#45;&gt;podcast_scraper</title><style>.edge>path:hover{stroke-width:8}</style>
<path fill="none" stroke="black" d="M276.79,-252.52C250.92,-240.31 226.98,-222.23 239.88,-200"/>
</g>
<!-- spacy -->
<g id="node20" class="node">
<title>spacy</title><style>.edge>path:hover{stroke-width:8}</style>
<polygon fill="#7140c0" stroke="black" points="785.88,-289 782.88,-293 761.88,-293 758.88,-289 731.88,-289 731.88,-253 785.88,-253 785.88,-289"/>
<text xml:space="preserve" text-anchor="middle" x="758.88" y="-267.12" font-family="Helvetica,sans-Serif" font-size="10.00" fill="#ffffff">spacy</text>
</g>
<!-- spacy&#45;&gt;podcast_scraper -->
<g id="edge28" class="edge">
<title>spacy&#45;&gt;podcast_scraper</title><style>.edge>path:hover{stroke-width:8}</style>
<path fill="none" stroke="black" d="M784.47,-252.79C806.96,-236.61 835.47,-212.99 830.88,-200"/>
<path fill="none" stroke="black" d="M830.88,-198C821.73,-172.13 607.59,-98.44 617.88,-73"/>
</g>
<!-- torch&#45;&gt;podcast_scraper -->
<g id="edge29" class="edge">
<title>torch&#45;&gt;podcast_scraper</title><style>.edge>path:hover{stroke-width:8}</style>
<path fill="none" stroke="black" d="M239.88,-342C248.15,-312.01 241.34,-303.08 239.88,-272"/>
<path fill="none" stroke="black" d="M237.35,-396.68C235.85,-382.3 235.06,-361.46 239.88,-344"/>
</g>
<!-- torch&#45;&gt;sentence_transformers -->
<g id="edge30" class="edge">
<title>torch&#45;&gt;sentence_transformers</title><style>.edge>path:hover{stroke-width:8}</style>
<path fill="none" stroke="black" d="M239.88,-342C245.36,-322.11 261.32,-306.61 278.03,-295.31"/>
<polygon fill="#9506ef" stroke="black" points="279.44,-298.55 286.04,-290.26 275.72,-292.63 279.44,-298.55"/>
</g>
<!-- whisper -->
<g id="node25" class="node">
<title>whisper</title><style>.edge>path:hover{stroke-width:8}</style>
<polygon fill="#c43175" stroke="black" points="321.88,-361 318.88,-365 297.88,-365 294.88,-361 267.88,-361 267.88,-325 321.88,-325 321.88,-361"/>
<text xml:space="preserve" text-anchor="middle" x="294.88" y="-339.12" font-family="Helvetica,sans-Serif" font-size="10.00" fill="#ffffff">whisper</text>
</g>
<!-- torch&#45;&gt;whisper -->
<g id="edge31" class="edge">
<title>torch&#45;&gt;whisper</title><style>.edge>path:hover{stroke-width:8}</style>
<path fill="none" stroke="black" d="M253.47,-396.7C259.8,-388.64 267.46,-378.89 274.46,-369.98"/>
<polygon fill="#9506ef" stroke="black" points="277.07,-372.32 280.5,-362.29 271.57,-368 277.07,-372.32"/>
</g>
<!-- tqdm -->
<g id="node22" class="node">
<title>tqdm</title><style>.edge>path:hover{stroke-width:8}</style>
<polygon fill="#c02fdb" stroke="black" points="426.88,-614 423.88,-618 402.88,-618 399.88,-614 372.88,-614 372.88,-578 426.88,-578 426.88,-614"/>
<text xml:space="preserve" text-anchor="middle" x="399.88" y="-592.12" font-family="Helvetica,sans-Serif" font-size="10.00" fill="#ffffff">tqdm</text>
</g>
<!-- tqdm&#45;&gt;podcast_scraper -->
<g id="edge32" class="edge">
<title>tqdm&#45;&gt;podcast_scraper</title><style>.edge>path:hover{stroke-width:8}</style>
<path fill="none" stroke="black" d="M349.88,-414C334.17,-376.73 355.63,-356.98 330.88,-325 302.23,-287.99 241.87,-318.76 239.88,-272"/>
</g>
<!-- tqdm&#45;&gt;sentence_transformers -->
<g id="edge33" class="edge">
<title>tqdm&#45;&gt;sentence_transformers</title><style>.edge>path:hover{stroke-width:8}</style>
<path fill="none" stroke="black" d="M349.88,-414C336.13,-381.38 399.86,-377.31 387.88,-344"/>
</g>
<!-- tqdm&#45;&gt;transformers -->
<g id="edge34" class="edge">
<title>tqdm&#45;&gt;transformers</title><style>.edge>path:hover{stroke-width:8}</style>
<path fill="none" stroke="black" d="M412.88,-486C410.08,-472.66 409.74,-457.57 410.23,-444.83"/>
<polygon fill="#c02fdb" stroke="black" points="413.72,-445.16 410.82,-434.97 406.73,-444.75 413.72,-445.16"/>
</g>
<!-- tqdm&#45;&gt;whisper -->
<g id="edge35" class="edge">
<title>tqdm&#45;&gt;whisper</title><style>.edge>path:hover{stroke-width:8}</style>
<path fill="none" stroke="black" d="M412.88,-486C404.31,-445.03 366.12,-454.57 349.88,-416"/>
<path fill="none" stroke="black" d="M349.88,-414C343.02,-397.72 331.33,-382.03 320.48,-369.65"/>
<polygon fill="#c02fdb" stroke="black" points="323.16,-367.39 313.83,-362.37 317.99,-372.11 323.16,-367.39"/>
<path fill="none" stroke="black" d="M405.39,-577.8C411.43,-556.54 419.43,-519.32 412.88,-488"/>
</g>
<!-- transformers&#45;&gt;podcast_scraper -->
<g id="edge36" class="edge">
<title>transformers&#45;&gt;podcast_scraper</title><style>.edge>path:hover{stroke-width:8}</style>
<path fill="none" stroke="black" d="M443.72,-396.75C461.36,-384.35 479.35,-365.96 475.88,-344"/>
<path fill="none" stroke="black" d="M475.88,-342C474.82,-335.32 398.67,-256.48 392.88,-253 331.2,-215.92 203.76,-262.25 239.88,-200"/>
</g>
<!-- transformers&#45;&gt;sentence_transformers -->
<g id="edge37" class="edge">
<title>transformers&#45;&gt;sentence_transformers</title><style>.edge>path:hover{stroke-width:8}</style>
<path fill="none" stroke="black" d="M406.81,-396.7C401.81,-382.51 394.49,-361.92 387.88,-344"/>
</g>
<!-- urllib3 -->
<g id="node24" class="node">
<title>urllib3</title><style>.edge>path:hover{stroke-width:8}</style>
<polygon fill="#df0b9e" stroke="black" points="730.88,-433 727.88,-437 706.88,-437 703.88,-433 676.88,-433 676.88,-397 730.88,-397 730.88,-433"/>
<text xml:space="preserve" text-anchor="middle" x="703.88" y="-411.12" font-family="Helvetica,sans-Serif" font-size="10.00" fill="#ffffff">urllib3</text>
</g>
<!-- urllib3&#45;&gt;podcast_scraper -->
<g id="edge38" class="edge">
<title>urllib3&#45;&gt;podcast_scraper</title><style>.edge>path:hover{stroke-width:8}</style>
<path fill="none" stroke="black" d="M703.88,-270C709.52,-239.41 718.37,-227.53 703.88,-200"/>
<path fill="none" stroke="black" d="M701.88,-396.77C699.21,-369.86 695.69,-316.37 703.88,-272"/>
</g>
<!-- urllib3&#45;&gt;requests -->
<g id="edge39" class="edge">
<title>urllib3&#45;&gt;requests</title><style>.edge>path:hover{stroke-width:8}</style>
<path fill="none" stroke="black" d="M703.88,-270C707.04,-252.83 718.12,-237.19 729.51,-225.07"/>
<polygon fill="#df0b9e" stroke="black" points="731.66,-227.86 736.28,-218.33 726.72,-222.9 731.66,-227.86"/>
</g>
<!-- whisper&#45;&gt;podcast_scraper -->
<g id="edge40" class="edge">
<title>whisper&#45;&gt;podcast_scraper</title><style>.edge>path:hover{stroke-width:8}</style>
<path fill="none" stroke="black" d="M271.23,-324.67C256.78,-311.98 240.88,-293.3 239.88,-272"/>
</g>
<!-- yaml -->
<g id="node26" class="node">
<title>yaml</title><style>.edge>path:hover{stroke-width:8}</style>
<polygon fill="#f91046" stroke="black" points="857.88,-289 854.88,-293 833.88,-293 830.88,-289 803.88,-289 803.88,-253 857.88,-253 857.88,-289"/>
<text xml:space="preserve" text-anchor="middle" x="830.88" y="-267.12" font-family="Helvetica,sans-Serif" font-size="10.00" fill="#ffffff">yaml</text>
</g>
<!-- yaml&#45;&gt;podcast_scraper -->
<g id="edge41" class="edge">
<title>yaml&#45;&gt;podcast_scraper</title><style>.edge>path:hover{stroke-width:8}</style>
<path fill="none" stroke="black" d="M833.7,-252.59C835.39,-238.16 836.27,-217.28 830.88,-200"/>
</g>
</g>
</svg>
