<?xml version="1.0" encoding="UTF-8" standalone="no"?>
<!DOCTYPE svg PUBLIC "-//W3C//DTD SVG 1.1//EN"
 "http://www.w3.org/Graphics/SVG/1.1/DTD/svg11.dtd">
<!-- Generated by graphviz version 14.1.2 (20260124.0452)
 -->
<!-- Title: G Pages: 1 -->
<svg width="3283pt" height="292pt"
 viewBox="0.00 0.00 3283.00 292.00" xmlns="http://www.w3.org/2000/svg" xmlns:xlink="http://www.w3.org/1999/xlink">
<g id="graph0" class="graph" transform="scale(1 1) rotate(0) translate(4 288)">
<title>G</title>
<polygon fill="white" stroke="none" points="-4,4 -4,-288 3279,-288 3279,4 -4,4"/>
<g id="clust1" class="cluster">
<title>cluster_G</title>
<path fill="#808080" fill-opacity="0.094118" stroke="black" d="M20,-8C20,-8 3255,-8 3255,-8 3261,-8 3267,-14 3267,-20 3267,-20 3267,-264 3267,-264 3267,-270 3261,-276 3255,-276 3255,-276 20,-276 20,-276 14,-276 8,-270 8,-264 8,-264 8,-20 8,-20 8,-14 14,-8 20,-8"/>
</g>
<!-- podcast_scraper__workflow__orchestration -->
<g id="node1" class="node">
<title>podcast_scraper__workflow__orchestration</title>
<ellipse fill="#ffffff" fill-opacity="0.698039" stroke="black" cx="381" cy="-106" rx="158.32" ry="18"/>
<text xml:space="preserve" text-anchor="middle" x="381" y="-100.95" font-family="Times,serif" font-size="14.00" fill="#000000">podcast_scraper.workflow.orchestration</text>
</g>
<!-- podcast_scraper__workflow__orchestration__create_speaker_detector -->
<g id="node33" class="node">
<title>podcast_scraper__workflow__orchestration__create_speaker_detector</title>
<ellipse fill="#ffffff" fill-opacity="0.698039" stroke="black" cx="1344" cy="-34" rx="99.97" ry="18"/>
<text xml:space="preserve" text-anchor="middle" x="1344" y="-28.95" font-family="Times,serif" font-size="14.00" fill="#000000">create_speaker_detector</text>
</g>
<!-- podcast_scraper__workflow__orchestration&#45;&gt;podcast_scraper__workflow__orchestration__create_speaker_detector -->
<g id="edge1" class="edge">
<title>podcast_scraper__workflow__orchestration&#45;&gt;podcast_scraper__workflow__orchestration__create_speaker_detector</title>
<path fill="none" stroke="#000000" d="M493.23,-92.99C511.53,-91.2 530.28,-89.46 548,-88 799.21,-67.23 862.53,-69.29 1114,-52 1155.9,-49.12 1202.08,-45.75 1241.99,-42.77"/>
<polygon fill="#000000" stroke="#000000" points="1242.13,-46.27 1251.84,-42.03 1241.6,-39.28 1242.13,-46.27"/>
</g>
<!-- podcast_scraper__workflow__orchestration__create_transcription_provider -->
<g id="node34" class="node">
<title>podcast_scraper__workflow__orchestration__create_transcription_provider</title>
<ellipse fill="#ffffff" fill-opacity="0.698039" stroke="black" cx="967" cy="-34" rx="119.93" ry="18"/>
<text xml:space="preserve" text-anchor="middle" x="967" y="-28.95" font-family="Times,serif" font-size="14.00" fill="#000000">create_transcription_provider</text>
</g>
<!-- podcast_scraper__workflow__orchestration&#45;&gt;podcast_scraper__workflow__orchestration__create_transcription_provider -->
<g id="edge2" class="edge">
<title>podcast_scraper__workflow__orchestration&#45;&gt;podcast_scraper__workflow__orchestration__create_transcription_provider</title>
<path fill="none" stroke="#000000" d="M487.46,-92.28C594.43,-79.5 758.19,-59.94 863.94,-47.31"/>
<polygon fill="#000000" stroke="#000000" points="864.25,-50.8 873.76,-46.14 863.42,-43.85 864.25,-50.8"/>
</g>
<!-- podcast_scraper__workflow__orchestration__extract_episode_description -->
<g id="node35" class="node">
<title>podcast_scraper__workflow__orchestration__extract_episode_description</title>
<ellipse fill="#ffffff" fill-opacity="0.698039" stroke="black" cx="636" cy="-34" rx="114.3" ry="18"/>
<text xml:space="preserve" text-anchor="middle" x="636" y="-28.95" font-family="Times,serif" font-size="14.00" fill="#000000">extract_episode_description</text>
</g>
<!-- podcast_scraper__workflow__orchestration&#45;&gt;podcast_scraper__workflow__orchestration__extract_episode_description -->
<g id="edge3" class="edge">
<title>podcast_scraper__workflow__orchestration&#45;&gt;podcast_scraper__workflow__orchestration__extract_episode_description</title>
<path fill="none" stroke="#000000" d="M439.82,-88.85C478.68,-78.19 529.66,-64.19 569.91,-53.14"/>
<polygon fill="#000000" stroke="#000000" points="570.79,-56.53 579.5,-50.51 568.93,-49.78 570.79,-56.53"/>
</g>
<!-- podcast_scraper__workflow__orchestration__process_episode_download -->
<g id="node36" class="node">
<title>podcast_scraper__workflow__orchestration__process_episode_download</title>
<ellipse fill="#ffffff" fill-opacity="0.698039" stroke="black" cx="128" cy="-34" rx="112.26" ry="18"/>
<text xml:space="preserve" text-anchor="middle" x="128" y="-28.95" font-family="Times,serif" font-size="14.00" fill="#000000">process_episode_download</text>
</g>
<!-- podcast_scraper__workflow__orchestration&#45;&gt;podcast_scraper__workflow__orchestration__process_episode_download -->
<g id="edge4" class="edge">
<title>podcast_scraper__workflow__orchestration&#45;&gt;podcast_scraper__workflow__orchestration__process_episode_download</title>
<path fill="none" stroke="#000000" d="M322.64,-88.85C284.09,-78.19 233.51,-64.19 193.57,-53.14"/>
<polygon fill="#000000" stroke="#000000" points="194.63,-49.81 184.06,-50.51 192.77,-56.55 194.63,-49.81"/>
</g>
<!-- podcast_scraper__workflow__orchestration__transcribe_media_to_text -->
<g id="node38" class="node">
<title>podcast_scraper__workflow__orchestration__transcribe_media_to_text</title>
<ellipse fill="#ffffff" fill-opacity="0.698039" stroke="black" cx="381" cy="-34" rx="105.09" ry="18"/>
<text xml:space="preserve" text-anchor="middle" x="381" y="-28.95" font-family="Times,serif" font-size="14.00" fill="#000000">transcribe_media_to_text</text>
</g>
<!-- podcast_scraper__workflow__orchestration&#45;&gt;podcast_scraper__workflow__orchestration__transcribe_media_to_text -->
<g id="edge5" class="edge">
<title>podcast_scraper__workflow__orchestration&#45;&gt;podcast_scraper__workflow__orchestration__transcribe_media_to_text</title>
<path fill="none" stroke="#000000" d="M381,-87.7C381,-80.41 381,-71.73 381,-63.54"/>
<polygon fill="#000000" stroke="#000000" points="384.5,-63.62 381,-53.62 377.5,-63.62 384.5,-63.62"/>
</g>
<!-- podcast_scraper__workflow__orchestration___FeedMetadata -->
<g id="node2" class="node">
<title>podcast_scraper__workflow__orchestration___FeedMetadata</title>
<ellipse fill="#ffffff" fill-opacity="0.698039" stroke="black" cx="84" cy="-250" rx="68.24" ry="18"/>
<text xml:space="preserve" text-anchor="middle" x="84" y="-244.95" font-family="Times,serif" font-size="14.00" fill="#000000">_FeedMetadata</text>
</g>
<!-- podcast_scraper__workflow__orchestration___HostDetectionResult -->
<g id="node3" class="node">
<title>podcast_scraper__workflow__orchestration___HostDetectionResult</title>
<ellipse fill="#ffffff" fill-opacity="0.698039" stroke="black" cx="263" cy="-250" rx="92.3" ry="18"/>
<text xml:space="preserve" text-anchor="middle" x="263" y="-244.95" font-family="Times,serif" font-size="14.00" fill="#000000">_HostDetectionResult</text>
</g>
<!-- podcast_scraper__workflow__orchestration___ProcessingJob -->
<g id="node4" class="node">
<title>podcast_scraper__workflow__orchestration___ProcessingJob</title>
<ellipse fill="#ffffff" fill-opacity="0.698039" stroke="black" cx="284" cy="-178" rx="68.24" ry="18"/>
<text xml:space="preserve" text-anchor="middle" x="284" y="-172.95" font-family="Times,serif" font-size="14.00" fill="#000000">_ProcessingJob</text>
</g>
<!-- podcast_scraper__workflow__orchestration___ProcessingResources -->
<g id="node5" class="node">
<title>podcast_scraper__workflow__orchestration___ProcessingResources</title>
<ellipse fill="#ffffff" fill-opacity="0.698039" stroke="black" cx="467" cy="-250" rx="93.32" ry="18"/>
<text xml:space="preserve" text-anchor="middle" x="467" y="-244.95" font-family="Times,serif" font-size="14.00" fill="#000000">_ProcessingResources</text>
</g>
<!-- podcast_scraper__workflow__orchestration___ProcessingResources&#45;&gt;podcast_scraper__workflow__orchestration___ProcessingJob -->
<g id="edge6" class="edge">
<title>podcast_scraper__workflow__orchestration___ProcessingResources&#45;&gt;podcast_scraper__workflow__orchestration___ProcessingJob</title>
<path fill="none" stroke="#000000" d="M426.39,-233.46C398.53,-222.81 361.46,-208.63 332.12,-197.41"/>
<polygon fill="#000000" stroke="#000000" points="333.7,-194.26 323.11,-193.96 331.2,-200.8 333.7,-194.26"/>
</g>
<!-- podcast_scraper__workflow__orchestration___TranscriptionResources -->
<g id="node6" class="node">
<title>podcast_scraper__workflow__orchestration___TranscriptionResources</title>
<ellipse fill="#ffffff" fill-opacity="0.698039" stroke="black" cx="687" cy="-250" rx="103.04" ry="18"/>
<text xml:space="preserve" text-anchor="middle" x="687" y="-244.95" font-family="Times,serif" font-size="14.00" fill="#000000">_TranscriptionResources</text>
</g>
<!-- podcast_scraper__workflow__orchestration___both_providers_use_mps -->
<g id="node7" class="node">
<title>podcast_scraper__workflow__orchestration___both_providers_use_mps</title>
<ellipse fill="#ffffff" fill-opacity="0.698039" stroke="black" cx="666" cy="-106" rx="108.67" ry="18"/>
<text xml:space="preserve" text-anchor="middle" x="666" y="-100.95" font-family="Times,serif" font-size="14.00" fill="#000000">_both_providers_use_mps</text>
</g>
<!-- podcast_scraper__workflow__orchestration___cleanup_providers -->
<g id="node8" class="node">
<title>podcast_scraper__workflow__orchestration___cleanup_providers</title>
<ellipse fill="#ffffff" fill-opacity="0.698039" stroke="black" cx="1697" cy="-178" rx="83.6" ry="18"/>
<text xml:space="preserve" text-anchor="middle" x="1697" y="-172.95" font-family="Times,serif" font-size="14.00" fill="#000000">_cleanup_providers</text>
</g>
<!-- podcast_scraper__workflow__orchestration___create_all_providers -->
<g id="node9" class="node">
<title>podcast_scraper__workflow__orchestration___create_all_providers</title>
<ellipse fill="#ffffff" fill-opacity="0.698039" stroke="black" cx="1889" cy="-178" rx="90.76" ry="18"/>
<text xml:space="preserve" text-anchor="middle" x="1889" y="-172.95" font-family="Times,serif" font-size="14.00" fill="#000000">_create_all_providers</text>
</g>
<!-- podcast_scraper__workflow__orchestration___create_speaker_detector -->
<g id="node11" class="node">
<title>podcast_scraper__workflow__orchestration___create_speaker_detector</title>
<ellipse fill="#ffffff" fill-opacity="0.698039" stroke="black" cx="1633" cy="-106" rx="104.58" ry="18"/>
<text xml:space="preserve" text-anchor="middle" x="1633" y="-100.95" font-family="Times,serif" font-size="14.00" fill="#000000">_create_speaker_detector</text>
</g>
<!-- podcast_scraper__workflow__orchestration___create_all_providers&#45;&gt;podcast_scraper__workflow__orchestration___create_speaker_detector -->
<g id="edge7" class="edge">
<title>podcast_scraper__workflow__orchestration___create_all_providers&#45;&gt;podcast_scraper__workflow__orchestration___create_speaker_detector</title>
<path fill="none" stroke="#000000" d="M1837.19,-162.83C1797.01,-151.85 1741.07,-136.55 1697.9,-124.75"/>
<polygon fill="#000000" stroke="#000000" points="1698.96,-121.41 1688.39,-122.15 1697.12,-128.16 1698.96,-121.41"/>
</g>
<!-- podcast_scraper__workflow__orchestration___create_summarization_provider -->
<g id="node12" class="node">
<title>podcast_scraper__workflow__orchestration___create_summarization_provider</title>
<ellipse fill="#ffffff" fill-opacity="0.698039" stroke="black" cx="1889" cy="-106" rx="133.75" ry="18"/>
<text xml:space="preserve" text-anchor="middle" x="1889" y="-100.95" font-family="Times,serif" font-size="14.00" fill="#000000">_create_summarization_provider</text>
</g>
<!-- podcast_scraper__workflow__orchestration___create_all_providers&#45;&gt;podcast_scraper__workflow__orchestration___create_summarization_provider -->
<g id="edge8" class="edge">
<title>podcast_scraper__workflow__orchestration___create_all_providers&#45;&gt;podcast_scraper__workflow__orchestration___create_summarization_provider</title>
<path fill="none" stroke="#000000" d="M1889,-159.7C1889,-152.41 1889,-143.73 1889,-135.54"/>
<polygon fill="#000000" stroke="#000000" points="1892.5,-135.62 1889,-125.62 1885.5,-135.62 1892.5,-135.62"/>
</g>
<!-- podcast_scraper__workflow__orchestration___create_transcription_provider -->
<g id="node13" class="node">
<title>podcast_scraper__workflow__orchestration___create_transcription_provider</title>
<ellipse fill="#ffffff" fill-opacity="0.698039" stroke="black" cx="1386" cy="-106" rx="124.54" ry="18"/>
<text xml:space="preserve" text-anchor="middle" x="1386" y="-100.95" font-family="Times,serif" font-size="14.00" fill="#000000">_create_transcription_provider</text>
</g>
<!-- podcast_scraper__workflow__orchestration___create_all_providers&#45;&gt;podcast_scraper__workflow__orchestration___create_transcription_provider -->
<g id="edge9" class="edge">
<title>podcast_scraper__workflow__orchestration___create_all_providers&#45;&gt;podcast_scraper__workflow__orchestration___create_transcription_provider</title>
<path fill="none" stroke="#000000" d="M1823.03,-165.3C1812.01,-163.45 1800.69,-161.62 1790,-160 1760.8,-155.58 1597.75,-134.37 1487.92,-120.16"/>
<polygon fill="#000000" stroke="#000000" points="1488.67,-116.72 1478.3,-118.91 1487.77,-123.67 1488.67,-116.72"/>
</g>
<!-- podcast_scraper__workflow__orchestration___create_run_manifest -->
<g id="node10" class="node">
<title>podcast_scraper__workflow__orchestration___create_run_manifest</title>
<ellipse fill="#ffffff" fill-opacity="0.698039" stroke="black" cx="2089" cy="-178" rx="91.27" ry="18"/>
<text xml:space="preserve" text-anchor="middle" x="2089" y="-172.95" font-family="Times,serif" font-size="14.00" fill="#000000">_create_run_manifest</text>
</g>
<!-- podcast_scraper__workflow__orchestration___get_factory_function -->
<g id="node21" class="node">
<title>podcast_scraper__workflow__orchestration___get_factory_function</title>
<ellipse fill="#ffffff" fill-opacity="0.698039" stroke="black" cx="1633" cy="-34" rx="92.81" ry="18"/>
<text xml:space="preserve" text-anchor="middle" x="1633" y="-28.95" font-family="Times,serif" font-size="14.00" fill="#000000">_get_factory_function</text>
</g>
<!-- podcast_scraper__workflow__orchestration___create_speaker_detector&#45;&gt;podcast_scraper__workflow__orchestration___get_factory_function -->
<g id="edge10" class="edge">
<title>podcast_scraper__workflow__orchestration___create_speaker_detector&#45;&gt;podcast_scraper__workflow__orchestration___get_factory_function</title>
<path fill="none" stroke="#000000" d="M1633,-87.7C1633,-80.41 1633,-71.73 1633,-63.54"/>
<polygon fill="#000000" stroke="#000000" points="1636.5,-63.62 1633,-53.62 1629.5,-63.62 1636.5,-63.62"/>
</g>
<!-- podcast_scraper__workflow__orchestration___create_speaker_detector&#45;&gt;podcast_scraper__workflow__orchestration__create_speaker_detector -->
<g id="edge11" class="edge">
<title>podcast_scraper__workflow__orchestration___create_speaker_detector&#45;&gt;podcast_scraper__workflow__orchestration__create_speaker_detector</title>
<path fill="none" stroke="#000000" d="M1574.17,-90.75C1527.47,-79.44 1462.09,-63.6 1412.94,-51.7"/>
<polygon fill="#000000" stroke="#000000" points="1413.78,-48.3 1403.23,-49.35 1412.13,-55.1 1413.78,-48.3"/>
</g>
<!-- podcast_scraper__workflow__orchestration___create_summarization_provider&#45;&gt;podcast_scraper__workflow__orchestration___get_factory_function -->
<g id="edge12" class="edge">
<title>podcast_scraper__workflow__orchestration___create_summarization_provider&#45;&gt;podcast_scraper__workflow__orchestration___get_factory_function</title>
<path fill="none" stroke="#000000" d="M1831.55,-89.29C1791.31,-78.29 1737.54,-63.58 1696.1,-52.26"/>
<polygon fill="#000000" stroke="#000000" points="1697.07,-48.89 1686.5,-49.63 1695.22,-55.64 1697.07,-48.89"/>
</g>
<!-- podcast_scraper__workflow__orchestration___create_transcription_provider&#45;&gt;podcast_scraper__workflow__orchestration___get_factory_function -->
<g id="edge13" class="edge">
<title>podcast_scraper__workflow__orchestration___create_transcription_provider&#45;&gt;podcast_scraper__workflow__orchestration___get_factory_function</title>
<path fill="none" stroke="#000000" d="M1440.82,-89.46C1479.4,-78.53 1531.1,-63.88 1571.16,-52.53"/>
<polygon fill="#000000" stroke="#000000" points="1572,-55.92 1580.67,-49.83 1570.09,-49.19 1572,-55.92"/>
</g>
<!-- podcast_scraper__workflow__orchestration___create_transcription_provider&#45;&gt;podcast_scraper__workflow__orchestration__create_transcription_provider -->
<g id="edge14" class="edge">
<title>podcast_scraper__workflow__orchestration___create_transcription_provider&#45;&gt;podcast_scraper__workflow__orchestration__create_transcription_provider</title>
<path fill="none" stroke="#000000" d="M1306.7,-91.75C1235.27,-79.82 1130.4,-62.3 1056.11,-49.89"/>
<polygon fill="#000000" stroke="#000000" points="1056.85,-46.46 1046.41,-48.27 1055.69,-53.37 1056.85,-46.46"/>
</g>
<!-- podcast_scraper__workflow__orchestration___fetch_and_prepare_episodes -->
<g id="node14" class="node">
<title>podcast_scraper__workflow__orchestration___fetch_and_prepare_episodes</title>
<ellipse fill="#ffffff" fill-opacity="0.698039" stroke="black" cx="2319" cy="-178" rx="120.45" ry="18"/>
<text xml:space="preserve" text-anchor="middle" x="2319" y="-172.95" font-family="Times,serif" font-size="14.00" fill="#000000">_fetch_and_prepare_episodes</text>
</g>
<!-- podcast_scraper__workflow__orchestration___finalize_emit_and_save -->
<g id="node15" class="node">
<title>podcast_scraper__workflow__orchestration___finalize_emit_and_save</title>
<ellipse fill="#ffffff" fill-opacity="0.698039" stroke="black" cx="2946" cy="-106" rx="103.56" ry="18"/>
<text xml:space="preserve" text-anchor="middle" x="2946" y="-100.95" font-family="Times,serif" font-size="14.00" fill="#000000">_finalize_emit_and_save</text>
</g>
<!-- podcast_scraper__workflow__orchestration___finalize_metrics_path -->
<g id="node16" class="node">
<title>podcast_scraper__workflow__orchestration___finalize_metrics_path</title>
<ellipse fill="#ffffff" fill-opacity="0.698039" stroke="black" cx="3163" cy="-106" rx="95.88" ry="18"/>
<text xml:space="preserve" text-anchor="middle" x="3163" y="-100.95" font-family="Times,serif" font-size="14.00" fill="#000000">_finalize_metrics_path</text>
</g>
<!-- podcast_scraper__workflow__orchestration___finalize_ml_cleanup -->
<g id="node17" class="node">
<title>podcast_scraper__workflow__orchestration___finalize_ml_cleanup</title>
<ellipse fill="#ffffff" fill-opacity="0.698039" stroke="black" cx="2132" cy="-106" rx="91.27" ry="18"/>
<text xml:space="preserve" text-anchor="middle" x="2132" y="-100.95" font-family="Times,serif" font-size="14.00" fill="#000000">_finalize_ml_cleanup</text>
</g>
<!-- podcast_scraper__workflow__orchestration___finalize_pipeline -->
<g id="node18" class="node">
<title>podcast_scraper__workflow__orchestration___finalize_pipeline</title>
<ellipse fill="#ffffff" fill-opacity="0.698039" stroke="black" cx="2535" cy="-178" rx="77.45" ry="18"/>
<text xml:space="preserve" text-anchor="middle" x="2535" y="-172.95" font-family="Times,serif" font-size="14.00" fill="#000000">_finalize_pipeline</text>
</g>
<!-- podcast_scraper__workflow__orchestration___finalize_pipeline&#45;&gt;podcast_scraper__workflow__orchestration___finalize_emit_and_save -->
<g id="edge15" class="edge">
<title>podcast_scraper__workflow__orchestration___finalize_pipeline&#45;&gt;podcast_scraper__workflow__orchestration___finalize_emit_and_save</title>
<path fill="none" stroke="#000000" d="M2596.09,-166.6C2666.89,-154.54 2783.93,-134.6 2862.95,-121.15"/>
<polygon fill="#000000" stroke="#000000" points="2863.07,-124.67 2872.34,-119.54 2861.9,-117.77 2863.07,-124.67"/>
</g>
<!-- podcast_scraper__workflow__orchestration___finalize_pipeline&#45;&gt;podcast_scraper__workflow__orchestration___finalize_metrics_path -->
<g id="edge16" class="edge">
<title>podcast_scraper__workflow__orchestration___finalize_pipeline&#45;&gt;podcast_scraper__workflow__orchestration___finalize_metrics_path</title>
<path fill="none" stroke="#000000" d="M2607.21,-171.1C2708.41,-162.52 2898.1,-145.27 3059,-124 3066.7,-122.98 3074.72,-121.83 3082.72,-120.63"/>
<polygon fill="#000000" stroke="#000000" points="3083.15,-124.1 3092.5,-119.12 3082.09,-117.18 3083.15,-124.1"/>
</g>
<!-- podcast_scraper__workflow__orchestration___finalize_pipeline&#45;&gt;podcast_scraper__workflow__orchestration___finalize_ml_cleanup -->
<g id="edge17" class="edge">
<title>podcast_scraper__workflow__orchestration___finalize_pipeline&#45;&gt;podcast_scraper__workflow__orchestration___finalize_ml_cleanup</title>
<path fill="none" stroke="#000000" d="M2477.48,-165.53C2467.65,-163.63 2457.54,-161.73 2448,-160 2352.23,-142.67 2327.97,-140.16 2232,-124 2225.11,-122.84 2217.94,-121.63 2210.76,-120.41"/>
<polygon fill="#000000" stroke="#000000" points="2211.44,-116.98 2201,-118.76 2210.27,-123.88 2211.44,-116.98"/>
</g>
<!-- podcast_scraper__workflow__orchestration___finalize_run_index -->
<g id="node19" class="node">
<title>podcast_scraper__workflow__orchestration___finalize_run_index</title>
<ellipse fill="#ffffff" fill-opacity="0.698039" stroke="black" cx="2326" cy="-106" rx="85.13" ry="18"/>
<text xml:space="preserve" text-anchor="middle" x="2326" y="-100.95" font-family="Times,serif" font-size="14.00" fill="#000000">_finalize_run_index</text>
</g>
<!-- podcast_scraper__workflow__orchestration___finalize_pipeline&#45;&gt;podcast_scraper__workflow__orchestration___finalize_run_index -->
<g id="edge18" class="edge">
<title>podcast_scraper__workflow__orchestration___finalize_pipeline&#45;&gt;podcast_scraper__workflow__orchestration___finalize_run_index</title>
<path fill="none" stroke="#000000" d="M2491.95,-162.58C2459.82,-151.82 2415.66,-137.03 2380.98,-125.41"/>
<polygon fill="#000000" stroke="#000000" points="2382.1,-122.1 2371.51,-122.24 2379.88,-128.74 2382.1,-122.1"/>
</g>
<!-- podcast_scraper__workflow__orchestration___finalize_run_summary -->
<g id="node20" class="node">
<title>podcast_scraper__workflow__orchestration___finalize_run_summary</title>
<ellipse fill="#ffffff" fill-opacity="0.698039" stroke="black" cx="2529" cy="-106" rx="99.97" ry="18"/>
<text xml:space="preserve" text-anchor="middle" x="2529" y="-100.95" font-family="Times,serif" font-size="14.00" fill="#000000">_finalize_run_summary</text>
</g>
<!-- podcast_scraper__workflow__orchestration___finalize_pipeline&#45;&gt;podcast_scraper__workflow__orchestration___finalize_run_summary -->
<g id="edge19" class="edge">
<title>podcast_scraper__workflow__orchestration___finalize_pipeline&#45;&gt;podcast_scraper__workflow__orchestration___finalize_run_summary</title>
<path fill="none" stroke="#000000" d="M2533.52,-159.7C2532.89,-152.41 2532.15,-143.73 2531.45,-135.54"/>
<polygon fill="#000000" stroke="#000000" points="2534.94,-135.28 2530.6,-125.61 2527.96,-135.87 2534.94,-135.28"/>
</g>
<!-- podcast_scraper__workflow__orchestration___log_episode_results -->
<g id="node24" class="node">
<title>podcast_scraper__workflow__orchestration___log_episode_results</title>
<ellipse fill="#ffffff" fill-opacity="0.698039" stroke="black" cx="2736" cy="-106" rx="88.71" ry="18"/>
<text xml:space="preserve" text-anchor="middle" x="2736" y="-100.95" font-family="Times,serif" font-size="14.00" fill="#000000">_log_episode_results</text>
</g>
<!-- podcast_scraper__workflow__orchestration___finalize_pipeline&#45;&gt;podcast_scraper__workflow__orchestration___log_episode_results -->
<g id="edge20" class="edge">
<title>podcast_scraper__workflow__orchestration___finalize_pipeline&#45;&gt;podcast_scraper__workflow__orchestration___log_episode_results</title>
<path fill="none" stroke="#000000" d="M2576.65,-162.5C2607.12,-151.88 2648.75,-137.39 2681.81,-125.87"/>
<polygon fill="#000000" stroke="#000000" points="2682.95,-129.18 2691.24,-122.59 2680.65,-122.57 2682.95,-129.18"/>
</g>
<!-- podcast_scraper__workflow__orchestration___log_effective_parallelism -->
<g id="node22" class="node">
<title>podcast_scraper__workflow__orchestration___log_effective_parallelism</title>
<ellipse fill="#ffffff" fill-opacity="0.698039" stroke="black" cx="903" cy="-106" rx="110.21" ry="18"/>
<text xml:space="preserve" text-anchor="middle" x="903" y="-100.95" font-family="Times,serif" font-size="14.00" fill="#000000">_log_effective_parallelism</text>
</g>
<!-- podcast_scraper__workflow__orchestration___log_episode_metrics -->
<g id="node23" class="node">
<title>podcast_scraper__workflow__orchestration___log_episode_metrics</title>
<ellipse fill="#ffffff" fill-opacity="0.698039" stroke="black" cx="989" cy="-250" rx="92.3" ry="18"/>
<text xml:space="preserve" text-anchor="middle" x="989" y="-244.95" font-family="Times,serif" font-size="14.00" fill="#000000">_log_episode_metrics</text>
</g>
<!-- podcast_scraper__workflow__orchestration___log_provider_ownership -->
<g id="node25" class="node">
<title>podcast_scraper__workflow__orchestration___log_provider_ownership</title>
<ellipse fill="#ffffff" fill-opacity="0.698039" stroke="black" cx="1137" cy="-106" rx="106.11" ry="18"/>
<text xml:space="preserve" text-anchor="middle" x="1137" y="-100.95" font-family="Times,serif" font-size="14.00" fill="#000000">_log_provider_ownership</text>
</g>
<!-- podcast_scraper__workflow__orchestration___preload_ml_models_if_needed -->
<g id="node26" class="node">
<title>podcast_scraper__workflow__orchestration___preload_ml_models_if_needed</title>
<ellipse fill="#ffffff" fill-opacity="0.698039" stroke="black" cx="1275" cy="-250" rx="130.68" ry="18"/>
<text xml:space="preserve" text-anchor="middle" x="1275" y="-244.95" font-family="Times,serif" font-size="14.00" fill="#000000">_preload_ml_models_if_needed</text>
</g>
<!-- podcast_scraper__workflow__orchestration___preload_ml_models_if_needed&#45;&gt;podcast_scraper__workflow__orchestration___preload_ml_models_if_needed -->
<g id="edge21" class="edge">
<title>podcast_scraper__workflow__orchestration___preload_ml_models_if_needed&#45;&gt;podcast_scraper__workflow__orchestration___preload_ml_models_if_needed</title>
<path fill="none" stroke="#000000" d="M1364.64,-263.48C1397.13,-263.81 1423.68,-259.32 1423.68,-250 1423.68,-241.81 1403.17,-237.35 1376.14,-236.61"/>
<polygon fill="#000000" stroke="#000000" points="1376.18,-233.11 1366.15,-236.53 1376.12,-240.11 1376.18,-233.11"/>
</g>
<!-- podcast_scraper__workflow__orchestration___process_episodes_with_threading -->
<g id="node27" class="node">
<title>podcast_scraper__workflow__orchestration___process_episodes_with_threading</title>
<ellipse fill="#ffffff" fill-opacity="0.698039" stroke="black" cx="510" cy="-178" rx="139.89" ry="18"/>
<text xml:space="preserve" text-anchor="middle" x="510" y="-172.95" font-family="Times,serif" font-size="14.00" fill="#000000">_process_episodes_with_threading</text>
</g>
<!-- podcast_scraper__workflow__orchestration___process_episodes_with_threading&#45;&gt;podcast_scraper__workflow__orchestration___both_providers_use_mps -->
<g id="edge22" class="edge">
<title>podcast_scraper__workflow__orchestration___process_episodes_with_threading&#45;&gt;podcast_scraper__workflow__orchestration___both_providers_use_mps</title>
<path fill="none" stroke="#000000" d="M547.37,-160.23C568.94,-150.55 596.27,-138.29 619.26,-127.97"/>
<polygon fill="#000000" stroke="#000000" points="620.41,-131.3 628.1,-124.01 617.54,-124.91 620.41,-131.3"/>
</g>
<!-- podcast_scraper__workflow__orchestration___setup_jsonl_emitter -->
<g id="node28" class="node">
<title>podcast_scraper__workflow__orchestration___setup_jsonl_emitter</title>
<ellipse fill="#ffffff" fill-opacity="0.698039" stroke="black" cx="757" cy="-178" rx="88.71" ry="18"/>
<text xml:space="preserve" text-anchor="middle" x="757" y="-172.95" font-family="Times,serif" font-size="14.00" fill="#000000">_setup_jsonl_emitter</text>
</g>
<!-- podcast_scraper__workflow__orchestration___setup_logging_and_devices -->
<g id="node29" class="node">
<title>podcast_scraper__workflow__orchestration___setup_logging_and_devices</title>
<ellipse fill="#ffffff" fill-opacity="0.698039" stroke="black" cx="982" cy="-178" rx="117.89" ry="18"/>
<text xml:space="preserve" text-anchor="middle" x="982" y="-172.95" font-family="Times,serif" font-size="14.00" fill="#000000">_setup_logging_and_devices</text>
</g>
<!-- podcast_scraper__workflow__orchestration___setup_logging_and_devices&#45;&gt;podcast_scraper__workflow__orchestration___log_effective_parallelism -->
<g id="edge23" class="edge">
<title>podcast_scraper__workflow__orchestration___setup_logging_and_devices&#45;&gt;podcast_scraper__workflow__orchestration___log_effective_parallelism</title>
<path fill="none" stroke="#000000" d="M962.88,-160.05C953.24,-151.52 941.39,-141.01 930.77,-131.61"/>
<polygon fill="#000000" stroke="#000000" points="933.16,-129.05 923.35,-125.04 928.52,-134.29 933.16,-129.05"/>
</g>
<!-- podcast_scraper__workflow__orchestration___setup_logging_and_devices&#45;&gt;podcast_scraper__workflow__orchestration___log_provider_ownership -->
<g id="edge24" class="edge">
<title>podcast_scraper__workflow__orchestration___setup_logging_and_devices&#45;&gt;podcast_scraper__workflow__orchestration___log_provider_ownership</title>
<path fill="none" stroke="#000000" d="M1018.34,-160.59C1039.91,-150.85 1067.48,-138.4 1090.61,-127.95"/>
<polygon fill="#000000" stroke="#000000" points="1091.83,-131.24 1099.51,-123.93 1088.95,-124.86 1091.83,-131.24"/>
</g>
<!-- podcast_scraper__workflow__orchestration___setup_pipeline_environment -->
<g id="node30" class="node">
<title>podcast_scraper__workflow__orchestration___setup_pipeline_environment</title>
<ellipse fill="#ffffff" fill-opacity="0.698039" stroke="black" cx="1239" cy="-178" rx="120.96" ry="18"/>
<text xml:space="preserve" text-anchor="middle" x="1239" y="-172.95" font-family="Times,serif" font-size="14.00" fill="#000000">_setup_pipeline_environment</text>
</g>
<!-- podcast_scraper__workflow__orchestration___setup_pipeline_resources -->
<g id="node31" class="node">
<title>podcast_scraper__workflow__orchestration___setup_pipeline_resources</title>
<ellipse fill="#ffffff" fill-opacity="0.698039" stroke="black" cx="1487" cy="-178" rx="108.67" ry="18"/>
<text xml:space="preserve" text-anchor="middle" x="1487" y="-172.95" font-family="Times,serif" font-size="14.00" fill="#000000">_setup_pipeline_resources</text>
</g>
<!-- podcast_scraper__workflow__orchestration__apply_log_level -->
<g id="node32" class="node">
<title>podcast_scraper__workflow__orchestration__apply_log_level</title>
<ellipse fill="#ffffff" fill-opacity="0.698039" stroke="black" cx="1534" cy="-250" rx="70.29" ry="18"/>
<text xml:space="preserve" text-anchor="middle" x="1534" y="-244.95" font-family="Times,serif" font-size="14.00" fill="#000000">apply_log_level</text>
</g>
<!-- podcast_scraper__workflow__orchestration__create_speaker_detector&#45;&gt;podcast_scraper__workflow__orchestration__create_speaker_detector -->
<g id="edge25" class="edge">
<title>podcast_scraper__workflow__orchestration__create_speaker_detector&#45;&gt;podcast_scraper__workflow__orchestration__create_speaker_detector</title>
<path fill="none" stroke="#000000" d="M1412.78,-47.44C1439.61,-48.08 1461.97,-43.6 1461.97,-34 1461.97,-25.79 1445.61,-21.32 1424.08,-20.6"/>
<polygon fill="#000000" stroke="#000000" points="1424.3,-17.1 1414.29,-20.57 1424.28,-24.1 1424.3,-17.1"/>
</g>
<!-- podcast_scraper__workflow__orchestration__create_transcription_provider&#45;&gt;podcast_scraper__workflow__orchestration__create_transcription_provider -->
<g id="edge26" class="edge">
<title>podcast_scraper__workflow__orchestration__create_transcription_provider&#45;&gt;podcast_scraper__workflow__orchestration__create_transcription_provider</title>
<path fill="none" stroke="#000000" d="M1049.47,-47.48C1079.93,-47.88 1104.93,-43.39 1104.93,-34 1104.93,-25.82 1085.96,-21.36 1060.94,-20.61"/>
<polygon fill="#000000" stroke="#000000" points="1061.01,-17.11 1050.99,-20.54 1060.96,-24.11 1061.01,-17.11"/>
</g>
<!-- podcast_scraper__workflow__orchestration__extract_episode_description&#45;&gt;podcast_scraper__workflow__orchestration__extract_episode_description -->
<g id="edge27" class="edge">
<title>podcast_scraper__workflow__orchestration__extract_episode_description&#45;&gt;podcast_scraper__workflow__orchestration__extract_episode_description</title>
<path fill="none" stroke="#000000" d="M714.45,-47.47C743.96,-47.95 768.3,-43.46 768.3,-34 768.3,-25.8 749.99,-21.33 725.89,-20.61"/>
<polygon fill="#000000" stroke="#000000" points="725.99,-17.11 715.96,-20.54 725.94,-24.11 725.99,-17.11"/>
</g>
<!-- podcast_scraper__workflow__orchestration__process_episode_download&#45;&gt;podcast_scraper__workflow__orchestration__process_episode_download -->
<g id="edge28" class="edge">
<title>podcast_scraper__workflow__orchestration__process_episode_download&#45;&gt;podcast_scraper__workflow__orchestration__process_episode_download</title>
<path fill="none" stroke="#000000" d="M205.24,-47.47C234.29,-47.95 258.26,-43.46 258.26,-34 258.26,-25.8 240.23,-21.33 216.5,-20.61"/>
<polygon fill="#000000" stroke="#000000" points="216.77,-17.11 206.75,-20.54 216.73,-24.11 216.77,-17.11"/>
</g>
<!-- podcast_scraper__workflow__orchestration__run_pipeline -->
<g id="node37" class="node">
<title>podcast_scraper__workflow__orchestration__run_pipeline</title>
<ellipse fill="#ffffff" fill-opacity="0.698039" stroke="black" cx="1691" cy="-250" rx="57.49" ry="18"/>
<text xml:space="preserve" text-anchor="middle" x="1691" y="-244.95" font-family="Times,serif" font-size="14.00" fill="#000000">run_pipeline</text>
</g>
<!-- podcast_scraper__workflow__orchestration__run_pipeline&#45;&gt;podcast_scraper__workflow__orchestration___cleanup_providers -->
<g id="edge29" class="edge">
<title>podcast_scraper__workflow__orchestration__run_pipeline&#45;&gt;podcast_scraper__workflow__orchestration___cleanup_providers</title>
<path fill="none" stroke="#000000" d="M1692.48,-231.7C1693.11,-224.41 1693.85,-215.73 1694.55,-207.54"/>
<polygon fill="#000000" stroke="#000000" points="1698.04,-207.87 1695.4,-197.61 1691.06,-207.28 1698.04,-207.87"/>
</g>
<!-- podcast_scraper__workflow__orchestration__run_pipeline&#45;&gt;podcast_scraper__workflow__orchestration___create_all_providers -->
<g id="edge30" class="edge">
<title>podcast_scraper__workflow__orchestration__run_pipeline&#45;&gt;podcast_scraper__workflow__orchestration___create_all_providers</title>
<path fill="none" stroke="#000000" d="M1728.24,-235.83C1758.47,-225.15 1801.48,-209.94 1835.4,-197.95"/>
<polygon fill="#000000" stroke="#000000" points="1836.38,-201.31 1844.65,-194.68 1834.05,-194.71 1836.38,-201.31"/>
</g>
<!-- podcast_scraper__workflow__orchestration__run_pipeline&#45;&gt;podcast_scraper__workflow__orchestration___create_run_manifest -->
<g id="edge31" class="edge">
<title>podcast_scraper__workflow__orchestration__run_pipeline&#45;&gt;podcast_scraper__workflow__orchestration___create_run_manifest</title>
<path fill="none" stroke="#000000" d="M1740.2,-240.35C1808.14,-228.4 1931.35,-206.73 2011.66,-192.6"/>
<polygon fill="#000000" stroke="#000000" points="2011.97,-196.1 2021.21,-190.92 2010.75,-189.21 2011.97,-196.1"/>
</g>
<!-- podcast_scraper__workflow__orchestration__run_pipeline&#45;&gt;podcast_scraper__workflow__orchestration___fetch_and_prepare_episodes -->
<g id="edge32" class="edge">
<title>podcast_scraper__workflow__orchestration__run_pipeline&#45;&gt;podcast_scraper__workflow__orchestration___fetch_and_prepare_episodes</title>
<path fill="none" stroke="#000000" d="M1745.21,-243.66C1836.75,-234.55 2027.76,-215.12 2189,-196 2199.13,-194.8 2209.69,-193.5 2220.22,-192.17"/>
<polygon fill="#000000" stroke="#000000" points="2220.65,-195.64 2230.12,-190.91 2219.76,-188.7 2220.65,-195.64"/>
</g>
<!-- podcast_scraper__workflow__orchestration__run_pipeline&#45;&gt;podcast_scraper__workflow__orchestration___finalize_pipeline -->
<g id="edge33" class="edge">
<title>podcast_scraper__workflow__orchestration__run_pipeline&#45;&gt;podcast_scraper__workflow__orchestration___finalize_pipeline</title>
<path fill="none" stroke="#000000" d="M1748.22,-247.4C1874.83,-243.33 2188.09,-230.36 2448,-196 2454.71,-195.11 2461.68,-194.03 2468.62,-192.84"/>
<polygon fill="#000000" stroke="#000000" points="2468.75,-196.37 2477.98,-191.17 2467.52,-189.48 2468.75,-196.37"/>
</g>
<!-- podcast_scraper__workflow__orchestration__run_pipeline&#45;&gt;podcast_scraper__workflow__orchestration___process_episodes_with_threading -->
<g id="edge34" class="edge">
<title>podcast_scraper__workflow__orchestration__run_pipeline&#45;&gt;podcast_scraper__workflow__orchestration___process_episodes_with_threading</title>
<path fill="none" stroke="#000000" d="M1647.1,-238.01C1636.04,-235.63 1624.14,-233.41 1613,-232 1192.07,-178.61 1082.09,-228.07 659,-196 646.02,-195.02 632.43,-193.77 618.95,-192.4"/>
<polygon fill="#000000" stroke="#000000" points="619.5,-188.93 609.19,-191.38 618.77,-195.9 619.5,-188.93"/>
</g>
<!-- podcast_scraper__workflow__orchestration__run_pipeline&#45;&gt;podcast_scraper__workflow__orchestration___setup_jsonl_emitter -->
<g id="edge35" class="edge">
<title>podcast_scraper__workflow__orchestration__run_pipeline&#45;&gt;podcast_scraper__workflow__orchestration___setup_jsonl_emitter</title>
<path fill="none" stroke="#000000" d="M1647.09,-238.08C1636.03,-235.71 1624.13,-233.47 1613,-232 1278.62,-187.94 1190.24,-232.89 855,-196 847.24,-195.15 839.17,-194.06 831.13,-192.86"/>
<polygon fill="#000000" stroke="#000000" points="831.75,-189.41 821.33,-191.32 830.67,-196.33 831.75,-189.41"/>
</g>
<!-- podcast_scraper__workflow__orchestration__run_pipeline&#45;&gt;podcast_scraper__workflow__orchestration___setup_logging_and_devices -->
<g id="edge36" class="edge">
<title>podcast_scraper__workflow__orchestration__run_pipeline&#45;&gt;podcast_scraper__workflow__orchestration___setup_logging_and_devices</title>
<path fill="none" stroke="#000000" d="M1646.65,-238.18C1635.71,-235.83 1623.97,-233.58 1613,-232 1390.72,-200.01 1332.4,-218.91 1109,-196 1098.65,-194.94 1087.85,-193.7 1077.1,-192.38"/>
<polygon fill="#000000" stroke="#000000" points="1077.8,-188.94 1067.44,-191.17 1076.93,-195.89 1077.8,-188.94"/>
</g>
<!-- podcast_scraper__workflow__orchestration__run_pipeline&#45;&gt;podcast_scraper__workflow__orchestration___setup_pipeline_environment -->
<g id="edge37" class="edge">
<title>podcast_scraper__workflow__orchestration__run_pipeline&#45;&gt;podcast_scraper__workflow__orchestration___setup_pipeline_environment</title>
<path fill="none" stroke="#000000" d="M1645.74,-238.54C1635.04,-236.24 1623.64,-233.91 1613,-232 1561.88,-222.82 1430.84,-204.71 1338.35,-192.24"/>
<polygon fill="#000000" stroke="#000000" points="1338.87,-188.77 1328.49,-190.91 1337.93,-195.71 1338.87,-188.77"/>
</g>
<!-- podcast_scraper__workflow__orchestration__run_pipeline&#45;&gt;podcast_scraper__workflow__orchestration___setup_pipeline_resources -->
<g id="edge38" class="edge">
<title>podcast_scraper__workflow__orchestration__run_pipeline&#45;&gt;podcast_scraper__workflow__orchestration___setup_pipeline_resources</title>
<path fill="none" stroke="#000000" d="M1653.11,-236C1622.3,-225.43 1578.38,-210.36 1543.44,-198.37"/>
<polygon fill="#000000" stroke="#000000" points="1544.93,-195.18 1534.34,-195.24 1542.66,-201.8 1544.93,-195.18"/>
</g>
<!-- podcast_scraper__workflow__orchestration__transcribe_media_to_text&#45;&gt;podcast_scraper__workflow__orchestration__transcribe_media_to_text -->
<g id="edge39" class="edge">
<title>podcast_scraper__workflow__orchestration__transcribe_media_to_text&#45;&gt;podcast_scraper__workflow__orchestration__transcribe_media_to_text</title>
<path fill="none" stroke="#000000" d="M453.37,-47.45C481.1,-48.01 504.09,-43.53 504.09,-34 504.09,-25.81 487.11,-21.35 464.74,-20.61"/>
<polygon fill="#000000" stroke="#000000" points="464.91,-17.11 454.89,-20.55 464.87,-24.11 464.91,-17.11"/>
</g>
</g>
</svg>
