<?xml version="1.0" encoding="UTF-8" standalone="no"?>
<!DOCTYPE svg PUBLIC "-//W3C//DTD SVG 1.1//EN"
 "http://www.w3.org/Graphics/SVG/1.1/DTD/svg11.dtd">
<!-- Generated by graphviz version 14.1.2 (20260124.0452)
 -->
<!-- Title: G Pages: 1 -->
<svg width="713pt" height="217pt"
 viewBox="0.00 0.00 713.00 217.00" xmlns="http://www.w3.org/2000/svg" xmlns:xlink="http://www.w3.org/1999/xlink">
<g id="graph0" class="graph" transform="scale(1 1) rotate(0) translate(4 213.25)">
<title>G</title>
<polygon fill="white" stroke="none" points="-4,4 -4,-213.25 709,-213.25 709,4 -4,4"/>
<g id="clust2" class="cluster">
<title>cluster_b2811c89</title>
<polygon fill="none" stroke="black" stroke-dasharray="1,5" points="84,-124.25 84,-201.25 697,-201.25 697,-124.25 84,-124.25"/>
<text xml:space="preserve" text-anchor="middle" x="390.5" y="-183.95" font-family="Times,serif" font-size="14.00">File: service</text>
</g>
<!-- Legend -->
<g id="node1" class="node">
<title>Legend</title>
<polygon fill="none" stroke="black" points="1,-95 1,-113.5 265,-113.5 265,-95 1,-95"/>
<text xml:space="preserve" text-anchor="start" x="80.88" y="-99.2" font-family="Times,serif" font-size="14.00">Code2flow Legend</text>
<polygon fill="none" stroke="black" points="1,-1 1,-95 265,-95 265,-1 1,-1"/>
<polygon fill="none" stroke="black" points="3,-70.5 3,-93 213,-93 213,-70.5 3,-70.5"/>
<text xml:space="preserve" text-anchor="start" x="62.25" y="-76.7" font-family="Times,serif" font-size="14.00">Regular function</text>
<polygon fill="#cccccc" stroke="none" points="213,-70.5 213,-93 263,-93 263,-70.5 213,-70.5"/>
<polygon fill="none" stroke="black" points="213,-70.5 213,-93 263,-93 263,-70.5 213,-70.5"/>
<polygon fill="none" stroke="black" points="3,-48 3,-70.5 213,-70.5 213,-48 3,-48"/>
<text xml:space="preserve" text-anchor="start" x="14.25" y="-54.2" font-family="Times,serif" font-size="14.00">Trunk function (nothing calls this)</text>
<polygon fill="#966f33" stroke="none" points="213,-48 213,-70.5 263,-70.5 263,-48 213,-48"/>
<polygon fill="none" stroke="black" points="213,-48 213,-70.5 263,-70.5 263,-48 213,-48"/>
<polygon fill="none" stroke="black" points="3,-25.5 3,-48 213,-48 213,-25.5 3,-25.5"/>
<text xml:space="preserve" text-anchor="start" x="6" y="-31.7" font-family="Times,serif" font-size="14.00">Leaf function (this calls nothing else)</text>
<polygon fill="#6db33f" stroke="none" points="213,-25.5 213,-48 263,-48 263,-25.5 213,-25.5"/>
<polygon fill="none" stroke="black" points="213,-25.5 213,-48 263,-48 263,-25.5 213,-25.5"/>
<polygon fill="none" stroke="black" points="3,-3 3,-25.5 213,-25.5 213,-3 3,-3"/>
<text xml:space="preserve" text-anchor="start" x="72.38" y="-9.2" font-family="Times,serif" font-size="14.00">Function call</text>
<polygon fill="none" stroke="black" points="213,-3 213,-25.5 263,-25.5 263,-3 213,-3"/>
<text xml:space="preserve" text-anchor="start" x="230.88" y="-9.2" font-family="Times,serif" font-size="14.00">→</text>
<polygon fill="none" stroke="black" points="2,-2 2,-94 264,-94 264,-2 2,-2"/>
<polygon fill="none" stroke="black" points="0,0 0,-114.5 266,-114.5 266,0 0,0"/>
</g>
<!-- node_b93e3976 -->
<g id="node2" class="node">
<title>node_b93e3976</title>
<path fill="#966f33" stroke="black" d="M162,-168.25C162,-168.25 104,-168.25 104,-168.25 98,-168.25 92,-162.25 92,-156.25 92,-156.25 92,-144.25 92,-144.25 92,-138.25 98,-132.25 104,-132.25 104,-132.25 162,-132.25 162,-132.25 168,-132.25 174,-138.25 174,-144.25 174,-144.25 174,-156.25 174,-156.25 174,-162.25 168,-168.25 162,-168.25"/>
<text xml:space="preserve" text-anchor="middle" x="133" y="-145.2" font-family="Times,serif" font-size="14.00">0: (global)()</text>
</g>
<!-- node_b2f12849 -->
<g id="node3" class="node">
<title>node_b2f12849</title>
<path fill="#cccccc" stroke="black" d="M370.5,-168.25C370.5,-168.25 314,-168.25 314,-168.25 308,-168.25 302,-162.25 302,-156.25 302,-156.25 302,-144.25 302,-144.25 302,-138.25 308,-132.25 314,-132.25 314,-132.25 370.5,-132.25 370.5,-132.25 376.5,-132.25 382.5,-138.25 382.5,-144.25 382.5,-144.25 382.5,-156.25 382.5,-156.25 382.5,-162.25 376.5,-168.25 370.5,-168.25"/>
<text xml:space="preserve" text-anchor="middle" x="342.25" y="-145.2" font-family="Times,serif" font-size="14.00">159: main()</text>
</g>
<!-- node_b93e3976&#45;&gt;node_b2f12849 -->
<g id="edge1" class="edge">
<title>node_b93e3976&#45;&gt;node_b2f12849</title>
<path fill="none" stroke="#d55e00" stroke-width="2" d="M174.34,-150.25C174.34,-150.25 288.68,-150.25 288.68,-150.25"/>
<polygon fill="#d55e00" stroke="#d55e00" stroke-width="2" points="288.68,-153.75 298.68,-150.25 288.68,-146.75 288.68,-153.75"/>
</g>
<!-- node_a435beb7 -->
<g id="node5" class="node">
<title>node_a435beb7</title>
<path fill="#cccccc" stroke="black" d="M577,-168.25C577,-168.25 430.5,-168.25 430.5,-168.25 424.5,-168.25 418.5,-162.25 418.5,-156.25 418.5,-156.25 418.5,-144.25 418.5,-144.25 418.5,-138.25 424.5,-132.25 430.5,-132.25 430.5,-132.25 577,-132.25 577,-132.25 583,-132.25 589,-138.25 589,-144.25 589,-144.25 589,-156.25 589,-156.25 589,-162.25 583,-168.25 577,-168.25"/>
<text xml:space="preserve" text-anchor="middle" x="503.75" y="-145.2" font-family="Times,serif" font-size="14.00">112: run_from_config_file()</text>
</g>
<!-- node_b2f12849&#45;&gt;node_a435beb7 -->
<g id="edge2" class="edge">
<title>node_b2f12849&#45;&gt;node_a435beb7</title>
<path fill="none" stroke="#e69f00" stroke-width="2" d="M382.59,-150.25C382.59,-150.25 405.17,-150.25 405.17,-150.25"/>
<polygon fill="#e69f00" stroke="#e69f00" stroke-width="2" points="405.17,-153.75 415.17,-150.25 405.17,-146.75 405.17,-153.75"/>
</g>
<!-- node_92768996 -->
<g id="node4" class="node">
<title>node_92768996</title>
<path fill="#6db33f" stroke="black" d="M677,-168.25C677,-168.25 637,-168.25 637,-168.25 631,-168.25 625,-162.25 625,-156.25 625,-156.25 625,-144.25 625,-144.25 625,-138.25 631,-132.25 637,-132.25 637,-132.25 677,-132.25 677,-132.25 683,-132.25 689,-138.25 689,-144.25 689,-144.25 689,-156.25 689,-156.25 689,-162.25 683,-168.25 677,-168.25"/>
<text xml:space="preserve" text-anchor="middle" x="657" y="-145.2" font-family="Times,serif" font-size="14.00">63: run()</text>
</g>
<!-- node_a435beb7&#45;&gt;node_92768996 -->
<g id="edge3" class="edge">
<title>node_a435beb7&#45;&gt;node_92768996</title>
<path fill="none" stroke="#cc79a7" stroke-width="2" d="M589.34,-150.25C589.34,-150.25 611.78,-150.25 611.78,-150.25"/>
<polygon fill="#cc79a7" stroke="#cc79a7" stroke-width="2" points="611.78,-153.75 621.78,-150.25 611.78,-146.75 611.78,-153.75"/>
</g>
</g>
</svg>
