<?xml version="1.0" encoding="UTF-8" standalone="no"?>
<!DOCTYPE svg PUBLIC "-//W3C//DTD SVG 1.1//EN"
 "http://www.w3.org/Graphics/SVG/1.1/DTD/svg11.dtd">
<!-- Generated by graphviz version 14.1.2 (20260124.0452)
 -->
<!-- Title: G Pages: 1 -->
<svg width="4155pt" height="292pt"
 viewBox="0.00 0.00 4155.00 292.00" xmlns="http://www.w3.org/2000/svg" xmlns:xlink="http://www.w3.org/1999/xlink">
<g id="graph0" class="graph" transform="scale(1 1) rotate(0) translate(4 288)">
<title>G</title>
<polygon fill="white" stroke="none" points="-4,4 -4,-288 4151,-288 4151,4 -4,4"/>
<g id="clust1" class="cluster">
<title>cluster_G</title>
<path fill="#808080" fill-opacity="0.094118" stroke="black" d="M20,-8C20,-8 4127,-8 4127,-8 4133,-8 4139,-14 4139,-20 4139,-20 4139,-264 4139,-264 4139,-270 4133,-276 4127,-276 4127,-276 20,-276 20,-276 14,-276 8,-270 8,-264 8,-264 8,-20 8,-20 8,-14 14,-8 20,-8"/>
</g>
<!-- podcast_scraper__workflow__orchestration -->
<g id="node1" class="node">
<title>podcast_scraper__workflow__orchestration</title>
<ellipse fill="#ffffff" fill-opacity="0.698039" stroke="black" cx="174" cy="-250" rx="158.32" ry="18"/>
<text xml:space="preserve" text-anchor="middle" x="174" y="-244.95" font-family="Times,serif" font-size="14.00" fill="#000000">podcast_scraper.workflow.orchestration</text>
</g>
<!-- podcast_scraper__workflow__orchestration___FeedMetadata -->
<g id="node2" class="node">
<title>podcast_scraper__workflow__orchestration___FeedMetadata</title>
<ellipse fill="#ffffff" fill-opacity="0.698039" stroke="black" cx="419" cy="-250" rx="68.24" ry="18"/>
<text xml:space="preserve" text-anchor="middle" x="419" y="-244.95" font-family="Times,serif" font-size="14.00" fill="#000000">_FeedMetadata</text>
</g>
<!-- podcast_scraper__workflow__orchestration___HostDetectionResult -->
<g id="node3" class="node">
<title>podcast_scraper__workflow__orchestration___HostDetectionResult</title>
<ellipse fill="#ffffff" fill-opacity="0.698039" stroke="black" cx="598" cy="-250" rx="92.3" ry="18"/>
<text xml:space="preserve" text-anchor="middle" x="598" y="-244.95" font-family="Times,serif" font-size="14.00" fill="#000000">_HostDetectionResult</text>
</g>
<!-- podcast_scraper__workflow__orchestration___ProcessingJob -->
<g id="node4" class="node">
<title>podcast_scraper__workflow__orchestration___ProcessingJob</title>
<ellipse fill="#ffffff" fill-opacity="0.698039" stroke="black" cx="777" cy="-250" rx="68.24" ry="18"/>
<text xml:space="preserve" text-anchor="middle" x="777" y="-244.95" font-family="Times,serif" font-size="14.00" fill="#000000">_ProcessingJob</text>
</g>
<!-- podcast_scraper__workflow__orchestration___ProcessingResources -->
<g id="node5" class="node">
<title>podcast_scraper__workflow__orchestration___ProcessingResources</title>
<ellipse fill="#ffffff" fill-opacity="0.698039" stroke="black" cx="957" cy="-250" rx="93.32" ry="18"/>
<text xml:space="preserve" text-anchor="middle" x="957" y="-244.95" font-family="Times,serif" font-size="14.00" fill="#000000">_ProcessingResources</text>
</g>
<!-- podcast_scraper__workflow__orchestration___TranscriptionResources -->
<g id="node6" class="node">
<title>podcast_scraper__workflow__orchestration___TranscriptionResources</title>
<ellipse fill="#ffffff" fill-opacity="0.698039" stroke="black" cx="1171" cy="-250" rx="103.04" ry="18"/>
<text xml:space="preserve" text-anchor="middle" x="1171" y="-244.95" font-family="Times,serif" font-size="14.00" fill="#000000">_TranscriptionResources</text>
</g>
<!-- podcast_scraper__workflow__orchestration___both_providers_use_mps -->
<g id="node7" class="node">
<title>podcast_scraper__workflow__orchestration___both_providers_use_mps</title>
<ellipse fill="#ffffff" fill-opacity="0.698039" stroke="black" cx="3045" cy="-106" rx="108.67" ry="18"/>
<text xml:space="preserve" text-anchor="middle" x="3045" y="-100.95" font-family="Times,serif" font-size="14.00" fill="#000000">_both_providers_use_mps</text>
</g>
<!-- podcast_scraper__workflow__orchestration___cleanup_providers -->
<g id="node8" class="node">
<title>podcast_scraper__workflow__orchestration___cleanup_providers</title>
<ellipse fill="#ffffff" fill-opacity="0.698039" stroke="black" cx="1972" cy="-178" rx="83.6" ry="18"/>
<text xml:space="preserve" text-anchor="middle" x="1972" y="-172.95" font-family="Times,serif" font-size="14.00" fill="#000000">_cleanup_providers</text>
</g>
<!-- podcast_scraper__workflow__orchestration___create_all_providers -->
<g id="node9" class="node">
<title>podcast_scraper__workflow__orchestration___create_all_providers</title>
<ellipse fill="#ffffff" fill-opacity="0.698039" stroke="black" cx="2164" cy="-178" rx="90.76" ry="18"/>
<text xml:space="preserve" text-anchor="middle" x="2164" y="-172.95" font-family="Times,serif" font-size="14.00" fill="#000000">_create_all_providers</text>
</g>
<!-- podcast_scraper__workflow__orchestration___create_speaker_detector -->
<g id="node11" class="node">
<title>podcast_scraper__workflow__orchestration___create_speaker_detector</title>
<ellipse fill="#ffffff" fill-opacity="0.698039" stroke="black" cx="1908" cy="-106" rx="104.58" ry="18"/>
<text xml:space="preserve" text-anchor="middle" x="1908" y="-100.95" font-family="Times,serif" font-size="14.00" fill="#000000">_create_speaker_detector</text>
</g>
<!-- podcast_scraper__workflow__orchestration___create_all_providers&#45;&gt;podcast_scraper__workflow__orchestration___create_speaker_detector -->
<g id="edge5" class="edge">
<title>podcast_scraper__workflow__orchestration___create_all_providers&#45;&gt;podcast_scraper__workflow__orchestration___create_speaker_detector</title>
<path fill="none" stroke="#000000" d="M2112.19,-162.83C2072.01,-151.85 2016.07,-136.55 1972.9,-124.75"/>
<polygon fill="#000000" stroke="#000000" points="1973.96,-121.41 1963.39,-122.15 1972.12,-128.16 1973.96,-121.41"/>
</g>
<!-- podcast_scraper__workflow__orchestration___create_summarization_provider -->
<g id="node12" class="node">
<title>podcast_scraper__workflow__orchestration___create_summarization_provider</title>
<ellipse fill="#ffffff" fill-opacity="0.698039" stroke="black" cx="2164" cy="-106" rx="133.75" ry="18"/>
<text xml:space="preserve" text-anchor="middle" x="2164" y="-100.95" font-family="Times,serif" font-size="14.00" fill="#000000">_create_summarization_provider</text>
</g>
<!-- podcast_scraper__workflow__orchestration___create_all_providers&#45;&gt;podcast_scraper__workflow__orchestration___create_summarization_provider -->
<g id="edge6" class="edge">
<title>podcast_scraper__workflow__orchestration___create_all_providers&#45;&gt;podcast_scraper__workflow__orchestration___create_summarization_provider</title>
<path fill="none" stroke="#000000" d="M2164,-159.7C2164,-152.41 2164,-143.73 2164,-135.54"/>
<polygon fill="#000000" stroke="#000000" points="2167.5,-135.62 2164,-125.62 2160.5,-135.62 2167.5,-135.62"/>
</g>
<!-- podcast_scraper__workflow__orchestration___create_transcription_provider -->
<g id="node13" class="node">
<title>podcast_scraper__workflow__orchestration___create_transcription_provider</title>
<ellipse fill="#ffffff" fill-opacity="0.698039" stroke="black" cx="2440" cy="-106" rx="124.54" ry="18"/>
<text xml:space="preserve" text-anchor="middle" x="2440" y="-100.95" font-family="Times,serif" font-size="14.00" fill="#000000">_create_transcription_provider</text>
</g>
<!-- podcast_scraper__workflow__orchestration___create_all_providers&#45;&gt;podcast_scraper__workflow__orchestration___create_transcription_provider -->
<g id="edge7" class="edge">
<title>podcast_scraper__workflow__orchestration___create_all_providers&#45;&gt;podcast_scraper__workflow__orchestration___create_transcription_provider</title>
<path fill="none" stroke="#000000" d="M2218.53,-163.17C2261.72,-152.21 2322.4,-136.83 2369.32,-124.93"/>
<polygon fill="#000000" stroke="#000000" points="2370.02,-128.36 2378.85,-122.51 2368.3,-121.57 2370.02,-128.36"/>
</g>
<!-- podcast_scraper__workflow__orchestration___create_run_manifest -->
<g id="node10" class="node">
<title>podcast_scraper__workflow__orchestration___create_run_manifest</title>
<ellipse fill="#ffffff" fill-opacity="0.698039" stroke="black" cx="2364" cy="-178" rx="91.27" ry="18"/>
<text xml:space="preserve" text-anchor="middle" x="2364" y="-172.95" font-family="Times,serif" font-size="14.00" fill="#000000">_create_run_manifest</text>
</g>
<!-- podcast_scraper__workflow__orchestration___get_factory_function -->
<g id="node16" class="node">
<title>podcast_scraper__workflow__orchestration___get_factory_function</title>
<ellipse fill="#ffffff" fill-opacity="0.698039" stroke="black" cx="2164" cy="-34" rx="92.81" ry="18"/>
<text xml:space="preserve" text-anchor="middle" x="2164" y="-28.95" font-family="Times,serif" font-size="14.00" fill="#000000">_get_factory_function</text>
</g>
<!-- podcast_scraper__workflow__orchestration___create_speaker_detector&#45;&gt;podcast_scraper__workflow__orchestration___get_factory_function -->
<g id="edge3" class="edge">
<title>podcast_scraper__workflow__orchestration___create_speaker_detector&#45;&gt;podcast_scraper__workflow__orchestration___get_factory_function</title>
<path fill="none" stroke="#000000" d="M1961.98,-90.24C2002.51,-79.16 2058.13,-63.95 2100.75,-52.29"/>
<polygon fill="#000000" stroke="#000000" points="2101.66,-55.67 2110.39,-49.66 2099.82,-48.92 2101.66,-55.67"/>
</g>
<!-- podcast_scraper__workflow__orchestration___create_summarization_provider&#45;&gt;podcast_scraper__workflow__orchestration___get_factory_function -->
<g id="edge4" class="edge">
<title>podcast_scraper__workflow__orchestration___create_summarization_provider&#45;&gt;podcast_scraper__workflow__orchestration___get_factory_function</title>
<path fill="none" stroke="#000000" d="M2164,-87.7C2164,-80.41 2164,-71.73 2164,-63.54"/>
<polygon fill="#000000" stroke="#000000" points="2167.5,-63.62 2164,-53.62 2160.5,-63.62 2167.5,-63.62"/>
</g>
<!-- podcast_scraper__workflow__orchestration___create_transcription_provider&#45;&gt;podcast_scraper__workflow__orchestration___get_factory_function -->
<g id="edge2" class="edge">
<title>podcast_scraper__workflow__orchestration___create_transcription_provider&#45;&gt;podcast_scraper__workflow__orchestration___get_factory_function</title>
<path fill="none" stroke="#000000" d="M2380.11,-89.81C2335.73,-78.56 2275.28,-63.22 2229.6,-51.64"/>
<polygon fill="#000000" stroke="#000000" points="2230.64,-48.29 2220.09,-49.22 2228.92,-55.08 2230.64,-48.29"/>
</g>
<!-- podcast_scraper__workflow__orchestration___fetch_and_prepare_episodes -->
<g id="node14" class="node">
<title>podcast_scraper__workflow__orchestration___fetch_and_prepare_episodes</title>
<ellipse fill="#ffffff" fill-opacity="0.698039" stroke="black" cx="2594" cy="-178" rx="120.45" ry="18"/>
<text xml:space="preserve" text-anchor="middle" x="2594" y="-172.95" font-family="Times,serif" font-size="14.00" fill="#000000">_fetch_and_prepare_episodes</text>
</g>
<!-- podcast_scraper__workflow__orchestration___finalize_pipeline -->
<g id="node15" class="node">
<title>podcast_scraper__workflow__orchestration___finalize_pipeline</title>
<ellipse fill="#ffffff" fill-opacity="0.698039" stroke="black" cx="2810" cy="-178" rx="77.45" ry="18"/>
<text xml:space="preserve" text-anchor="middle" x="2810" y="-172.95" font-family="Times,serif" font-size="14.00" fill="#000000">_finalize_pipeline</text>
</g>
<!-- podcast_scraper__workflow__orchestration___log_episode_results -->
<g id="node19" class="node">
<title>podcast_scraper__workflow__orchestration___log_episode_results</title>
<ellipse fill="#ffffff" fill-opacity="0.698039" stroke="black" cx="2810" cy="-106" rx="88.71" ry="18"/>
<text xml:space="preserve" text-anchor="middle" x="2810" y="-100.95" font-family="Times,serif" font-size="14.00" fill="#000000">_log_episode_results</text>
</g>
<!-- podcast_scraper__workflow__orchestration___finalize_pipeline&#45;&gt;podcast_scraper__workflow__orchestration___log_episode_results -->
<g id="edge14" class="edge">
<title>podcast_scraper__workflow__orchestration___finalize_pipeline&#45;&gt;podcast_scraper__workflow__orchestration___log_episode_results</title>
<path fill="none" stroke="#000000" d="M2810,-159.7C2810,-152.41 2810,-143.73 2810,-135.54"/>
<polygon fill="#000000" stroke="#000000" points="2813.5,-135.62 2810,-125.62 2806.5,-135.62 2813.5,-135.62"/>
</g>
<!-- podcast_scraper__workflow__orchestration___log_effective_parallelism -->
<g id="node17" class="node">
<title>podcast_scraper__workflow__orchestration___log_effective_parallelism</title>
<ellipse fill="#ffffff" fill-opacity="0.698039" stroke="black" cx="3400" cy="-106" rx="110.21" ry="18"/>
<text xml:space="preserve" text-anchor="middle" x="3400" y="-100.95" font-family="Times,serif" font-size="14.00" fill="#000000">_log_effective_parallelism</text>
</g>
<!-- podcast_scraper__workflow__orchestration___log_episode_metrics -->
<g id="node18" class="node">
<title>podcast_scraper__workflow__orchestration___log_episode_metrics</title>
<ellipse fill="#ffffff" fill-opacity="0.698039" stroke="black" cx="1384" cy="-250" rx="92.3" ry="18"/>
<text xml:space="preserve" text-anchor="middle" x="1384" y="-244.95" font-family="Times,serif" font-size="14.00" fill="#000000">_log_episode_metrics</text>
</g>
<!-- podcast_scraper__workflow__orchestration___log_provider_ownership -->
<g id="node20" class="node">
<title>podcast_scraper__workflow__orchestration___log_provider_ownership</title>
<ellipse fill="#ffffff" fill-opacity="0.698039" stroke="black" cx="3634" cy="-106" rx="106.11" ry="18"/>
<text xml:space="preserve" text-anchor="middle" x="3634" y="-100.95" font-family="Times,serif" font-size="14.00" fill="#000000">_log_provider_ownership</text>
</g>
<!-- podcast_scraper__workflow__orchestration___preload_ml_models_if_needed -->
<g id="node21" class="node">
<title>podcast_scraper__workflow__orchestration___preload_ml_models_if_needed</title>
<ellipse fill="#ffffff" fill-opacity="0.698039" stroke="black" cx="1625" cy="-250" rx="130.68" ry="18"/>
<text xml:space="preserve" text-anchor="middle" x="1625" y="-244.95" font-family="Times,serif" font-size="14.00" fill="#000000">_preload_ml_models_if_needed</text>
</g>
<!-- podcast_scraper__workflow__orchestration___preload_ml_models_if_needed&#45;&gt;podcast_scraper__workflow__orchestration___preload_ml_models_if_needed -->
<g id="edge15" class="edge">
<title>podcast_scraper__workflow__orchestration___preload_ml_models_if_needed&#45;&gt;podcast_scraper__workflow__orchestration___preload_ml_models_if_needed</title>
<path fill="none" stroke="#000000" d="M1714.64,-263.48C1747.13,-263.81 1773.68,-259.32 1773.68,-250 1773.68,-241.81 1753.17,-237.35 1726.14,-236.61"/>
<polygon fill="#000000" stroke="#000000" points="1726.18,-233.11 1716.15,-236.53 1726.12,-240.11 1726.18,-233.11"/>
</g>
<!-- podcast_scraper__workflow__orchestration___process_episodes_with_threading -->
<g id="node22" class="node">
<title>podcast_scraper__workflow__orchestration___process_episodes_with_threading</title>
<ellipse fill="#ffffff" fill-opacity="0.698039" stroke="black" cx="3045" cy="-178" rx="139.89" ry="18"/>
<text xml:space="preserve" text-anchor="middle" x="3045" y="-172.95" font-family="Times,serif" font-size="14.00" fill="#000000">_process_episodes_with_threading</text>
</g>
<!-- podcast_scraper__workflow__orchestration___process_episodes_with_threading&#45;&gt;podcast_scraper__workflow__orchestration___both_providers_use_mps -->
<g id="edge16" class="edge">
<title>podcast_scraper__workflow__orchestration___process_episodes_with_threading&#45;&gt;podcast_scraper__workflow__orchestration___both_providers_use_mps</title>
<path fill="none" stroke="#000000" d="M3045,-159.7C3045,-152.41 3045,-143.73 3045,-135.54"/>
<polygon fill="#000000" stroke="#000000" points="3048.5,-135.62 3045,-125.62 3041.5,-135.62 3048.5,-135.62"/>
</g>
<!-- podcast_scraper__workflow__orchestration___setup_jsonl_emitter -->
<g id="node23" class="node">
<title>podcast_scraper__workflow__orchestration___setup_jsonl_emitter</title>
<ellipse fill="#ffffff" fill-opacity="0.698039" stroke="black" cx="3292" cy="-178" rx="88.71" ry="18"/>
<text xml:space="preserve" text-anchor="middle" x="3292" y="-172.95" font-family="Times,serif" font-size="14.00" fill="#000000">_setup_jsonl_emitter</text>
</g>
<!-- podcast_scraper__workflow__orchestration___setup_logging_and_devices -->
<g id="node24" class="node">
<title>podcast_scraper__workflow__orchestration___setup_logging_and_devices</title>
<ellipse fill="#ffffff" fill-opacity="0.698039" stroke="black" cx="3517" cy="-178" rx="117.89" ry="18"/>
<text xml:space="preserve" text-anchor="middle" x="3517" y="-172.95" font-family="Times,serif" font-size="14.00" fill="#000000">_setup_logging_and_devices</text>
</g>
<!-- podcast_scraper__workflow__orchestration___setup_logging_and_devices&#45;&gt;podcast_scraper__workflow__orchestration___log_effective_parallelism -->
<g id="edge13" class="edge">
<title>podcast_scraper__workflow__orchestration___setup_logging_and_devices&#45;&gt;podcast_scraper__workflow__orchestration___log_effective_parallelism</title>
<path fill="none" stroke="#000000" d="M3488.68,-160.05C3473.3,-150.85 3454.09,-139.36 3437.49,-129.43"/>
<polygon fill="#000000" stroke="#000000" points="3439.74,-126.7 3429.36,-124.57 3436.14,-132.7 3439.74,-126.7"/>
</g>
<!-- podcast_scraper__workflow__orchestration___setup_logging_and_devices&#45;&gt;podcast_scraper__workflow__orchestration___log_provider_ownership -->
<g id="edge12" class="edge">
<title>podcast_scraper__workflow__orchestration___setup_logging_and_devices&#45;&gt;podcast_scraper__workflow__orchestration___log_provider_ownership</title>
<path fill="none" stroke="#000000" d="M3545.32,-160.05C3560.7,-150.85 3579.91,-139.36 3596.51,-129.43"/>
<polygon fill="#000000" stroke="#000000" points="3597.86,-132.7 3604.64,-124.57 3594.26,-126.7 3597.86,-132.7"/>
</g>
<!-- podcast_scraper__workflow__orchestration___setup_pipeline_environment -->
<g id="node25" class="node">
<title>podcast_scraper__workflow__orchestration___setup_pipeline_environment</title>
<ellipse fill="#ffffff" fill-opacity="0.698039" stroke="black" cx="3774" cy="-178" rx="120.96" ry="18"/>
<text xml:space="preserve" text-anchor="middle" x="3774" y="-172.95" font-family="Times,serif" font-size="14.00" fill="#000000">_setup_pipeline_environment</text>
</g>
<!-- podcast_scraper__workflow__orchestration___setup_pipeline_resources -->
<g id="node26" class="node">
<title>podcast_scraper__workflow__orchestration___setup_pipeline_resources</title>
<ellipse fill="#ffffff" fill-opacity="0.698039" stroke="black" cx="4022" cy="-178" rx="108.67" ry="18"/>
<text xml:space="preserve" text-anchor="middle" x="4022" y="-172.95" font-family="Times,serif" font-size="14.00" fill="#000000">_setup_pipeline_resources</text>
</g>
<!-- podcast_scraper__workflow__orchestration__apply_log_level -->
<g id="node27" class="node">
<title>podcast_scraper__workflow__orchestration__apply_log_level</title>
<ellipse fill="#ffffff" fill-opacity="0.698039" stroke="black" cx="1862" cy="-250" rx="70.29" ry="18"/>
<text xml:space="preserve" text-anchor="middle" x="1862" y="-244.95" font-family="Times,serif" font-size="14.00" fill="#000000">apply_log_level</text>
</g>
<!-- podcast_scraper__workflow__orchestration__create_speaker_detector -->
<g id="node28" class="node">
<title>podcast_scraper__workflow__orchestration__create_speaker_detector</title>
<ellipse fill="#ffffff" fill-opacity="0.698039" stroke="black" cx="2050" cy="-250" rx="99.97" ry="18"/>
<text xml:space="preserve" text-anchor="middle" x="2050" y="-244.95" font-family="Times,serif" font-size="14.00" fill="#000000">create_speaker_detector</text>
</g>
<!-- podcast_scraper__workflow__orchestration__create_speaker_detector&#45;&gt;podcast_scraper__workflow__orchestration__create_speaker_detector -->
<g id="edge8" class="edge">
<title>podcast_scraper__workflow__orchestration__create_speaker_detector&#45;&gt;podcast_scraper__workflow__orchestration__create_speaker_detector</title>
<path fill="none" stroke="#000000" d="M2118.78,-263.44C2145.61,-264.08 2167.97,-259.6 2167.97,-250 2167.97,-241.79 2151.61,-237.32 2130.08,-236.6"/>
<polygon fill="#000000" stroke="#000000" points="2130.3,-233.1 2120.29,-236.57 2130.28,-240.1 2130.3,-233.1"/>
</g>
<!-- podcast_scraper__workflow__orchestration__create_transcription_provider -->
<g id="node29" class="node">
<title>podcast_scraper__workflow__orchestration__create_transcription_provider</title>
<ellipse fill="#ffffff" fill-opacity="0.698039" stroke="black" cx="2306" cy="-250" rx="119.93" ry="18"/>
<text xml:space="preserve" text-anchor="middle" x="2306" y="-244.95" font-family="Times,serif" font-size="14.00" fill="#000000">create_transcription_provider</text>
</g>
<!-- podcast_scraper__workflow__orchestration__create_transcription_provider&#45;&gt;podcast_scraper__workflow__orchestration__create_transcription_provider -->
<g id="edge9" class="edge">
<title>podcast_scraper__workflow__orchestration__create_transcription_provider&#45;&gt;podcast_scraper__workflow__orchestration__create_transcription_provider</title>
<path fill="none" stroke="#000000" d="M2388.47,-263.48C2418.93,-263.88 2443.93,-259.39 2443.93,-250 2443.93,-241.82 2424.96,-237.36 2399.94,-236.61"/>
<polygon fill="#000000" stroke="#000000" points="2400.01,-233.11 2389.99,-236.54 2399.96,-240.11 2400.01,-233.11"/>
</g>
<!-- podcast_scraper__workflow__orchestration__extract_episode_description -->
<g id="node30" class="node">
<title>podcast_scraper__workflow__orchestration__extract_episode_description</title>
<ellipse fill="#ffffff" fill-opacity="0.698039" stroke="black" cx="2576" cy="-250" rx="114.3" ry="18"/>
<text xml:space="preserve" text-anchor="middle" x="2576" y="-244.95" font-family="Times,serif" font-size="14.00" fill="#000000">extract_episode_description</text>
</g>
<!-- podcast_scraper__workflow__orchestration__extract_episode_description&#45;&gt;podcast_scraper__workflow__orchestration__extract_episode_description -->
<g id="edge1" class="edge">
<title>podcast_scraper__workflow__orchestration__extract_episode_description&#45;&gt;podcast_scraper__workflow__orchestration__extract_episode_description</title>
<path fill="none" stroke="#000000" d="M2654.45,-263.47C2683.96,-263.95 2708.3,-259.46 2708.3,-250 2708.3,-241.8 2689.99,-237.33 2665.89,-236.61"/>
<polygon fill="#000000" stroke="#000000" points="2665.99,-233.11 2655.96,-236.54 2665.94,-240.11 2665.99,-233.11"/>
</g>
<!-- podcast_scraper__workflow__orchestration__process_episode_download -->
<g id="node31" class="node">
<title>podcast_scraper__workflow__orchestration__process_episode_download</title>
<ellipse fill="#ffffff" fill-opacity="0.698039" stroke="black" cx="2839" cy="-250" rx="112.26" ry="18"/>
<text xml:space="preserve" text-anchor="middle" x="2839" y="-244.95" font-family="Times,serif" font-size="14.00" fill="#000000">process_episode_download</text>
</g>
<!-- podcast_scraper__workflow__orchestration__process_episode_download&#45;&gt;podcast_scraper__workflow__orchestration__process_episode_download -->
<g id="edge11" class="edge">
<title>podcast_scraper__workflow__orchestration__process_episode_download&#45;&gt;podcast_scraper__workflow__orchestration__process_episode_download</title>
<path fill="none" stroke="#000000" d="M2916.24,-263.47C2945.29,-263.95 2969.26,-259.46 2969.26,-250 2969.26,-241.8 2951.23,-237.33 2927.5,-236.61"/>
<polygon fill="#000000" stroke="#000000" points="2927.77,-233.11 2917.75,-236.54 2927.73,-240.11 2927.77,-233.11"/>
</g>
<!-- podcast_scraper__workflow__orchestration__run_pipeline -->
<g id="node32" class="node">
<title>podcast_scraper__workflow__orchestration__run_pipeline</title>
<ellipse fill="#ffffff" fill-opacity="0.698039" stroke="black" cx="3045" cy="-250" rx="57.49" ry="18"/>
<text xml:space="preserve" text-anchor="middle" x="3045" y="-244.95" font-family="Times,serif" font-size="14.00" fill="#000000">run_pipeline</text>
</g>
<!-- podcast_scraper__workflow__orchestration__run_pipeline&#45;&gt;podcast_scraper__workflow__orchestration___cleanup_providers -->
<g id="edge21" class="edge">
<title>podcast_scraper__workflow__orchestration__run_pipeline&#45;&gt;podcast_scraper__workflow__orchestration___cleanup_providers</title>
<path fill="none" stroke="#000000" d="M3003.81,-237.11C2995.34,-235.07 2986.43,-233.22 2978,-232 2575.67,-173.69 2468.03,-241.05 2064,-196 2056.82,-195.2 2049.35,-194.16 2041.92,-193"/>
<polygon fill="#000000" stroke="#000000" points="2042.64,-189.57 2032.2,-191.39 2041.5,-196.48 2042.64,-189.57"/>
</g>
<!-- podcast_scraper__workflow__orchestration__run_pipeline&#45;&gt;podcast_scraper__workflow__orchestration___create_all_providers -->
<g id="edge20" class="edge">
<title>podcast_scraper__workflow__orchestration__run_pipeline&#45;&gt;podcast_scraper__workflow__orchestration___create_all_providers</title>
<path fill="none" stroke="#000000" d="M3003.44,-237.1C2995.08,-235.09 2986.31,-233.25 2978,-232 2663.8,-184.7 2579.84,-230.69 2264,-196 2256.06,-195.13 2247.79,-194.03 2239.56,-192.82"/>
<polygon fill="#000000" stroke="#000000" points="2240.31,-189.39 2229.89,-191.33 2239.24,-196.31 2240.31,-189.39"/>
</g>
<!-- podcast_scraper__workflow__orchestration__run_pipeline&#45;&gt;podcast_scraper__workflow__orchestration___create_run_manifest -->
<g id="edge24" class="edge">
<title>podcast_scraper__workflow__orchestration__run_pipeline&#45;&gt;podcast_scraper__workflow__orchestration___create_run_manifest</title>
<path fill="none" stroke="#000000" d="M3003.42,-237.23C2995.06,-235.21 2986.29,-233.33 2978,-232 2752.33,-195.75 2691.96,-223 2465,-196 2457.05,-195.05 2448.77,-193.91 2440.52,-192.68"/>
<polygon fill="#000000" stroke="#000000" points="2441.25,-189.25 2430.83,-191.18 2440.18,-196.17 2441.25,-189.25"/>
</g>
<!-- podcast_scraper__workflow__orchestration__run_pipeline&#45;&gt;podcast_scraper__workflow__orchestration___fetch_and_prepare_episodes -->
<g id="edge26" class="edge">
<title>podcast_scraper__workflow__orchestration__run_pipeline&#45;&gt;podcast_scraper__workflow__orchestration___fetch_and_prepare_episodes</title>
<path fill="none" stroke="#000000" d="M3002.63,-237.49C2994.49,-235.5 2986.01,-233.56 2978,-232 2950.64,-226.66 2797.8,-206.02 2693.39,-192.13"/>
<polygon fill="#000000" stroke="#000000" points="2694.06,-188.69 2683.68,-190.84 2693.13,-195.63 2694.06,-188.69"/>
</g>
<!-- podcast_scraper__workflow__orchestration__run_pipeline&#45;&gt;podcast_scraper__workflow__orchestration___finalize_pipeline -->
<g id="edge22" class="edge">
<title>podcast_scraper__workflow__orchestration__run_pipeline&#45;&gt;podcast_scraper__workflow__orchestration___finalize_pipeline</title>
<path fill="none" stroke="#000000" d="M3004.33,-236.89C2966.47,-225.61 2909.65,-208.68 2867.21,-196.04"/>
<polygon fill="#000000" stroke="#000000" points="2868.24,-192.7 2857.65,-193.19 2866.24,-199.4 2868.24,-192.7"/>
</g>
<!-- podcast_scraper__workflow__orchestration__run_pipeline&#45;&gt;podcast_scraper__workflow__orchestration___process_episodes_with_threading -->
<g id="edge25" class="edge">
<title>podcast_scraper__workflow__orchestration__run_pipeline&#45;&gt;podcast_scraper__workflow__orchestration___process_episodes_with_threading</title>
<path fill="none" stroke="#000000" d="M3045,-231.7C3045,-224.41 3045,-215.73 3045,-207.54"/>
<polygon fill="#000000" stroke="#000000" points="3048.5,-207.62 3045,-197.62 3041.5,-207.62 3048.5,-207.62"/>
</g>
<!-- podcast_scraper__workflow__orchestration__run_pipeline&#45;&gt;podcast_scraper__workflow__orchestration___setup_jsonl_emitter -->
<g id="edge17" class="edge">
<title>podcast_scraper__workflow__orchestration__run_pipeline&#45;&gt;podcast_scraper__workflow__orchestration___setup_jsonl_emitter</title>
<path fill="none" stroke="#000000" d="M3086.62,-237.2C3126.04,-226.03 3185.71,-209.12 3230.59,-196.4"/>
<polygon fill="#000000" stroke="#000000" points="3231.54,-199.77 3240.21,-193.68 3229.63,-193.04 3231.54,-199.77"/>
</g>
<!-- podcast_scraper__workflow__orchestration__run_pipeline&#45;&gt;podcast_scraper__workflow__orchestration___setup_logging_and_devices -->
<g id="edge18" class="edge">
<title>podcast_scraper__workflow__orchestration__run_pipeline&#45;&gt;podcast_scraper__workflow__orchestration___setup_logging_and_devices</title>
<path fill="none" stroke="#000000" d="M3095.96,-241.44C3174.23,-229.83 3325.27,-207.43 3423.56,-192.86"/>
<polygon fill="#000000" stroke="#000000" points="3423.8,-196.36 3433.18,-191.43 3422.77,-189.44 3423.8,-196.36"/>
</g>
<!-- podcast_scraper__workflow__orchestration__run_pipeline&#45;&gt;podcast_scraper__workflow__orchestration___setup_pipeline_environment -->
<g id="edge23" class="edge">
<title>podcast_scraper__workflow__orchestration__run_pipeline&#45;&gt;podcast_scraper__workflow__orchestration___setup_pipeline_environment</title>
<path fill="none" stroke="#000000" d="M3100.41,-244.88C3206.2,-236.83 3444.23,-217.89 3644,-196 3654.33,-194.87 3665.11,-193.6 3675.84,-192.28"/>
<polygon fill="#000000" stroke="#000000" points="3676.01,-195.79 3685.5,-191.07 3675.14,-188.84 3676.01,-195.79"/>
</g>
<!-- podcast_scraper__workflow__orchestration__run_pipeline&#45;&gt;podcast_scraper__workflow__orchestration___setup_pipeline_resources -->
<g id="edge19" class="edge">
<title>podcast_scraper__workflow__orchestration__run_pipeline&#45;&gt;podcast_scraper__workflow__orchestration___setup_pipeline_resources</title>
<path fill="none" stroke="#000000" d="M3102.18,-247.08C3240.27,-242.1 3602.83,-226.93 3904,-196 3913.65,-195.01 3923.72,-193.81 3933.73,-192.52"/>
<polygon fill="#000000" stroke="#000000" points="3934.04,-196.01 3943.49,-191.22 3933.12,-189.07 3934.04,-196.01"/>
</g>
<!-- podcast_scraper__workflow__orchestration__transcribe_media_to_text -->
<g id="node33" class="node">
<title>podcast_scraper__workflow__orchestration__transcribe_media_to_text</title>
<ellipse fill="#ffffff" fill-opacity="0.698039" stroke="black" cx="3617" cy="-250" rx="105.09" ry="18"/>
<text xml:space="preserve" text-anchor="middle" x="3617" y="-244.95" font-family="Times,serif" font-size="14.00" fill="#000000">transcribe_media_to_text</text>
</g>
<!-- podcast_scraper__workflow__orchestration__transcribe_media_to_text&#45;&gt;podcast_scraper__workflow__orchestration__transcribe_media_to_text -->
<g id="edge10" class="edge">
<title>podcast_scraper__workflow__orchestration__transcribe_media_to_text&#45;&gt;podcast_scraper__workflow__orchestration__transcribe_media_to_text</title>
<path fill="none" stroke="#000000" d="M3689.37,-263.45C3717.1,-264.01 3740.09,-259.53 3740.09,-250 3740.09,-241.81 3723.11,-237.35 3700.74,-236.61"/>
<polygon fill="#000000" stroke="#000000" points="3700.91,-233.11 3690.89,-236.55 3700.87,-240.11 3700.91,-233.11"/>
</g>
</g>
</svg>
